M48
; DRILL file {KiCad 9.0.9-9.0.9~ubuntu24.04.1} date 2026-06-18T20:29:42+0200
; FORMAT={-:-/ absolute / metric / decimal}
; #@! TF.CreationDate,2026-06-18T20:29:42+02:00
; #@! TF.GenerationSoftware,Kicad,Pcbnew,9.0.9-9.0.9~ubuntu24.04.1
; #@! TF.FileFunction,Plated,1,2,PTH
FMAT,2
METRIC
; #@! TA.AperFunction,Plated,PTH,ViaDrill
T1C0.300
; #@! TA.AperFunction,Plated,PTH,ComponentDrill
T2C0.800
; #@! TA.AperFunction,Plated,PTH,ComponentDrill
T3C1.000
; #@! TA.AperFunction,Plated,PTH,ComponentDrill
T4C1.500
; #@! TA.AperFunction,Plated,PTH,ComponentDrill
T5C2.500
%
G90
G05
T1
X129.686Y-101.735
X135.5Y-120.5
X135.827Y-103.348
X136.25Y-122.2
X136.5Y-102.4
X137.5Y-106.5
X141.474Y-121.523
T2
X110.5Y-103.0
X112.5Y-103.0
X114.5Y-103.0
T3
X101.5Y-103.0
X103.0Y-119.5
X104.04Y-103.0
X104.68Y-110.5
X105.54Y-119.5
X107.22Y-110.5
X108.08Y-119.5
X109.76Y-110.5
X110.62Y-119.5
X112.3Y-110.5
X113.16Y-119.5
X114.84Y-110.5
X115.7Y-119.5
X117.38Y-110.5
X118.24Y-119.5
X119.92Y-110.5
X120.78Y-119.5
X122.0Y-103.0
X122.46Y-110.5
X123.32Y-119.5
X124.54Y-103.0
X125.0Y-110.5
X139.0Y-103.0
X141.54Y-103.0
X145.0Y-107.22
X145.0Y-109.76
X145.0Y-112.3
X145.0Y-114.84
X145.0Y-117.38
X145.0Y-119.92
X145.0Y-122.46
X145.0Y-125.0
X150.0Y-108.76
X150.0Y-111.3
X150.0Y-113.84
X150.0Y-116.38
X150.0Y-118.92
X150.0Y-121.46
X150.0Y-124.0
X152.0Y-103.0
X154.54Y-103.0
X157.08Y-103.0
X159.62Y-103.0
X162.16Y-103.0
X164.7Y-103.0
X165.24Y-108.76
X165.24Y-111.3
X165.24Y-113.84
X165.24Y-116.38
X165.24Y-118.92
X165.24Y-121.46
X165.24Y-124.0
X167.24Y-103.0
X169.78Y-103.0
T4
X108.4Y-103.0
X116.6Y-103.0
T5
X95.0Y-107.0
X95.0Y-123.0
X175.0Y-105.0
X175.0Y-125.0
X185.0Y-105.0
X185.0Y-125.0
M30
