G04 #@! TF.GenerationSoftware,KiCad,Pcbnew,9.0.9-9.0.9~ubuntu24.04.1*
G04 #@! TF.CreationDate,2026-06-18T20:29:42+02:00*
G04 #@! TF.ProjectId,mt1-pcb,6d74312d-7063-4622-9e6b-696361645f70,v0.1*
G04 #@! TF.SameCoordinates,Original*
G04 #@! TF.FileFunction,Legend,Bot*
G04 #@! TF.FilePolarity,Positive*
%FSLAX46Y46*%
G04 Gerber Fmt 4.6, Leading zero omitted, Abs format (unit mm)*
G04 Created by KiCad (PCBNEW 9.0.9-9.0.9~ubuntu24.04.1) date 2026-06-18 20:29:42*
%MOMM*%
%LPD*%
G01*
G04 APERTURE LIST*
%ADD10C,0.120000*%
%ADD11C,0.250000*%
%ADD12C,0.150000*%
G04 APERTURE END LIST*
D10*
X143665476Y-106783855D02*
X143448809Y-107583855D01*
X143448809Y-107583855D02*
X143232142Y-106783855D01*
X143015476Y-107583855D02*
X143015476Y-107050521D01*
X143015476Y-106783855D02*
X143046428Y-106821950D01*
X143046428Y-106821950D02*
X143015476Y-106860045D01*
X143015476Y-106860045D02*
X142984523Y-106821950D01*
X142984523Y-106821950D02*
X143015476Y-106783855D01*
X143015476Y-106783855D02*
X143015476Y-106860045D01*
X142705952Y-107050521D02*
X142705952Y-107583855D01*
X142705952Y-107126712D02*
X142674999Y-107088617D01*
X142674999Y-107088617D02*
X142613094Y-107050521D01*
X142613094Y-107050521D02*
X142520237Y-107050521D01*
X142520237Y-107050521D02*
X142458333Y-107088617D01*
X142458333Y-107088617D02*
X142427380Y-107164807D01*
X142427380Y-107164807D02*
X142427380Y-107583855D01*
X143789285Y-109323855D02*
X143386904Y-109323855D01*
X143386904Y-109323855D02*
X143603571Y-109628617D01*
X143603571Y-109628617D02*
X143510714Y-109628617D01*
X143510714Y-109628617D02*
X143448809Y-109666712D01*
X143448809Y-109666712D02*
X143417857Y-109704807D01*
X143417857Y-109704807D02*
X143386904Y-109780998D01*
X143386904Y-109780998D02*
X143386904Y-109971474D01*
X143386904Y-109971474D02*
X143417857Y-110047664D01*
X143417857Y-110047664D02*
X143448809Y-110085760D01*
X143448809Y-110085760D02*
X143510714Y-110123855D01*
X143510714Y-110123855D02*
X143696428Y-110123855D01*
X143696428Y-110123855D02*
X143758333Y-110085760D01*
X143758333Y-110085760D02*
X143789285Y-110047664D01*
X143201190Y-109323855D02*
X142984523Y-110123855D01*
X142984523Y-110123855D02*
X142767856Y-109323855D01*
X142458332Y-110123855D02*
X142520237Y-110085760D01*
X142520237Y-110085760D02*
X142551190Y-110047664D01*
X142551190Y-110047664D02*
X142582142Y-109971474D01*
X142582142Y-109971474D02*
X142582142Y-109742902D01*
X142582142Y-109742902D02*
X142551190Y-109666712D01*
X142551190Y-109666712D02*
X142520237Y-109628617D01*
X142520237Y-109628617D02*
X142458332Y-109590521D01*
X142458332Y-109590521D02*
X142365475Y-109590521D01*
X142365475Y-109590521D02*
X142303571Y-109628617D01*
X142303571Y-109628617D02*
X142272618Y-109666712D01*
X142272618Y-109666712D02*
X142241666Y-109742902D01*
X142241666Y-109742902D02*
X142241666Y-109971474D01*
X142241666Y-109971474D02*
X142272618Y-110047664D01*
X142272618Y-110047664D02*
X142303571Y-110085760D01*
X142303571Y-110085760D02*
X142365475Y-110123855D01*
X142365475Y-110123855D02*
X142458332Y-110123855D01*
X143495237Y-111901950D02*
X143557142Y-111863855D01*
X143557142Y-111863855D02*
X143649999Y-111863855D01*
X143649999Y-111863855D02*
X143742856Y-111901950D01*
X143742856Y-111901950D02*
X143804761Y-111978140D01*
X143804761Y-111978140D02*
X143835714Y-112054331D01*
X143835714Y-112054331D02*
X143866666Y-112206712D01*
X143866666Y-112206712D02*
X143866666Y-112320998D01*
X143866666Y-112320998D02*
X143835714Y-112473379D01*
X143835714Y-112473379D02*
X143804761Y-112549569D01*
X143804761Y-112549569D02*
X143742856Y-112625760D01*
X143742856Y-112625760D02*
X143649999Y-112663855D01*
X143649999Y-112663855D02*
X143588095Y-112663855D01*
X143588095Y-112663855D02*
X143495237Y-112625760D01*
X143495237Y-112625760D02*
X143464285Y-112587664D01*
X143464285Y-112587664D02*
X143464285Y-112320998D01*
X143464285Y-112320998D02*
X143588095Y-112320998D01*
X143185714Y-112663855D02*
X143185714Y-111863855D01*
X143185714Y-111863855D02*
X142814285Y-112663855D01*
X142814285Y-112663855D02*
X142814285Y-111863855D01*
X142504762Y-112663855D02*
X142504762Y-111863855D01*
X142504762Y-111863855D02*
X142350000Y-111863855D01*
X142350000Y-111863855D02*
X142257143Y-111901950D01*
X142257143Y-111901950D02*
X142195238Y-111978140D01*
X142195238Y-111978140D02*
X142164285Y-112054331D01*
X142164285Y-112054331D02*
X142133333Y-112206712D01*
X142133333Y-112206712D02*
X142133333Y-112320998D01*
X142133333Y-112320998D02*
X142164285Y-112473379D01*
X142164285Y-112473379D02*
X142195238Y-112549569D01*
X142195238Y-112549569D02*
X142257143Y-112625760D01*
X142257143Y-112625760D02*
X142350000Y-112663855D01*
X142350000Y-112663855D02*
X142504762Y-112663855D01*
X143773809Y-115165760D02*
X143680952Y-115203855D01*
X143680952Y-115203855D02*
X143526190Y-115203855D01*
X143526190Y-115203855D02*
X143464285Y-115165760D01*
X143464285Y-115165760D02*
X143433333Y-115127664D01*
X143433333Y-115127664D02*
X143402380Y-115051474D01*
X143402380Y-115051474D02*
X143402380Y-114975283D01*
X143402380Y-114975283D02*
X143433333Y-114899093D01*
X143433333Y-114899093D02*
X143464285Y-114860998D01*
X143464285Y-114860998D02*
X143526190Y-114822902D01*
X143526190Y-114822902D02*
X143649999Y-114784807D01*
X143649999Y-114784807D02*
X143711904Y-114746712D01*
X143711904Y-114746712D02*
X143742857Y-114708617D01*
X143742857Y-114708617D02*
X143773809Y-114632426D01*
X143773809Y-114632426D02*
X143773809Y-114556236D01*
X143773809Y-114556236D02*
X143742857Y-114480045D01*
X143742857Y-114480045D02*
X143711904Y-114441950D01*
X143711904Y-114441950D02*
X143649999Y-114403855D01*
X143649999Y-114403855D02*
X143495238Y-114403855D01*
X143495238Y-114403855D02*
X143402380Y-114441950D01*
X142752380Y-115127664D02*
X142783332Y-115165760D01*
X142783332Y-115165760D02*
X142876190Y-115203855D01*
X142876190Y-115203855D02*
X142938094Y-115203855D01*
X142938094Y-115203855D02*
X143030951Y-115165760D01*
X143030951Y-115165760D02*
X143092856Y-115089569D01*
X143092856Y-115089569D02*
X143123809Y-115013379D01*
X143123809Y-115013379D02*
X143154761Y-114860998D01*
X143154761Y-114860998D02*
X143154761Y-114746712D01*
X143154761Y-114746712D02*
X143123809Y-114594331D01*
X143123809Y-114594331D02*
X143092856Y-114518140D01*
X143092856Y-114518140D02*
X143030951Y-114441950D01*
X143030951Y-114441950D02*
X142938094Y-114403855D01*
X142938094Y-114403855D02*
X142876190Y-114403855D01*
X142876190Y-114403855D02*
X142783332Y-114441950D01*
X142783332Y-114441950D02*
X142752380Y-114480045D01*
X142164285Y-115203855D02*
X142473809Y-115203855D01*
X142473809Y-115203855D02*
X142473809Y-114403855D01*
X143851190Y-117705760D02*
X143758333Y-117743855D01*
X143758333Y-117743855D02*
X143603571Y-117743855D01*
X143603571Y-117743855D02*
X143541666Y-117705760D01*
X143541666Y-117705760D02*
X143510714Y-117667664D01*
X143510714Y-117667664D02*
X143479761Y-117591474D01*
X143479761Y-117591474D02*
X143479761Y-117515283D01*
X143479761Y-117515283D02*
X143510714Y-117439093D01*
X143510714Y-117439093D02*
X143541666Y-117400998D01*
X143541666Y-117400998D02*
X143603571Y-117362902D01*
X143603571Y-117362902D02*
X143727380Y-117324807D01*
X143727380Y-117324807D02*
X143789285Y-117286712D01*
X143789285Y-117286712D02*
X143820238Y-117248617D01*
X143820238Y-117248617D02*
X143851190Y-117172426D01*
X143851190Y-117172426D02*
X143851190Y-117096236D01*
X143851190Y-117096236D02*
X143820238Y-117020045D01*
X143820238Y-117020045D02*
X143789285Y-116981950D01*
X143789285Y-116981950D02*
X143727380Y-116943855D01*
X143727380Y-116943855D02*
X143572619Y-116943855D01*
X143572619Y-116943855D02*
X143479761Y-116981950D01*
X143201190Y-117743855D02*
X143201190Y-116943855D01*
X143201190Y-116943855D02*
X143046428Y-116943855D01*
X143046428Y-116943855D02*
X142953571Y-116981950D01*
X142953571Y-116981950D02*
X142891666Y-117058140D01*
X142891666Y-117058140D02*
X142860713Y-117134331D01*
X142860713Y-117134331D02*
X142829761Y-117286712D01*
X142829761Y-117286712D02*
X142829761Y-117400998D01*
X142829761Y-117400998D02*
X142860713Y-117553379D01*
X142860713Y-117553379D02*
X142891666Y-117629569D01*
X142891666Y-117629569D02*
X142953571Y-117705760D01*
X142953571Y-117705760D02*
X143046428Y-117743855D01*
X143046428Y-117743855D02*
X143201190Y-117743855D01*
X142427380Y-116943855D02*
X142303571Y-116943855D01*
X142303571Y-116943855D02*
X142241666Y-116981950D01*
X142241666Y-116981950D02*
X142179761Y-117058140D01*
X142179761Y-117058140D02*
X142148809Y-117210521D01*
X142148809Y-117210521D02*
X142148809Y-117477188D01*
X142148809Y-117477188D02*
X142179761Y-117629569D01*
X142179761Y-117629569D02*
X142241666Y-117705760D01*
X142241666Y-117705760D02*
X142303571Y-117743855D01*
X142303571Y-117743855D02*
X142427380Y-117743855D01*
X142427380Y-117743855D02*
X142489285Y-117705760D01*
X142489285Y-117705760D02*
X142551190Y-117629569D01*
X142551190Y-117629569D02*
X142582142Y-117477188D01*
X142582142Y-117477188D02*
X142582142Y-117210521D01*
X142582142Y-117210521D02*
X142551190Y-117058140D01*
X142551190Y-117058140D02*
X142489285Y-116981950D01*
X142489285Y-116981950D02*
X142427380Y-116943855D01*
X143789285Y-120245760D02*
X143696428Y-120283855D01*
X143696428Y-120283855D02*
X143541666Y-120283855D01*
X143541666Y-120283855D02*
X143479761Y-120245760D01*
X143479761Y-120245760D02*
X143448809Y-120207664D01*
X143448809Y-120207664D02*
X143417856Y-120131474D01*
X143417856Y-120131474D02*
X143417856Y-120055283D01*
X143417856Y-120055283D02*
X143448809Y-119979093D01*
X143448809Y-119979093D02*
X143479761Y-119940998D01*
X143479761Y-119940998D02*
X143541666Y-119902902D01*
X143541666Y-119902902D02*
X143665475Y-119864807D01*
X143665475Y-119864807D02*
X143727380Y-119826712D01*
X143727380Y-119826712D02*
X143758333Y-119788617D01*
X143758333Y-119788617D02*
X143789285Y-119712426D01*
X143789285Y-119712426D02*
X143789285Y-119636236D01*
X143789285Y-119636236D02*
X143758333Y-119560045D01*
X143758333Y-119560045D02*
X143727380Y-119521950D01*
X143727380Y-119521950D02*
X143665475Y-119483855D01*
X143665475Y-119483855D02*
X143510714Y-119483855D01*
X143510714Y-119483855D02*
X143417856Y-119521950D01*
X143139285Y-120283855D02*
X143139285Y-119483855D01*
X143139285Y-119483855D02*
X142984523Y-119483855D01*
X142984523Y-119483855D02*
X142891666Y-119521950D01*
X142891666Y-119521950D02*
X142829761Y-119598140D01*
X142829761Y-119598140D02*
X142798808Y-119674331D01*
X142798808Y-119674331D02*
X142767856Y-119826712D01*
X142767856Y-119826712D02*
X142767856Y-119940998D01*
X142767856Y-119940998D02*
X142798808Y-120093379D01*
X142798808Y-120093379D02*
X142829761Y-120169569D01*
X142829761Y-120169569D02*
X142891666Y-120245760D01*
X142891666Y-120245760D02*
X142984523Y-120283855D01*
X142984523Y-120283855D02*
X143139285Y-120283855D01*
X142520237Y-120055283D02*
X142210713Y-120055283D01*
X142582142Y-120283855D02*
X142365475Y-119483855D01*
X142365475Y-119483855D02*
X142148808Y-120283855D01*
X143108333Y-122747664D02*
X143139285Y-122785760D01*
X143139285Y-122785760D02*
X143232143Y-122823855D01*
X143232143Y-122823855D02*
X143294047Y-122823855D01*
X143294047Y-122823855D02*
X143386904Y-122785760D01*
X143386904Y-122785760D02*
X143448809Y-122709569D01*
X143448809Y-122709569D02*
X143479762Y-122633379D01*
X143479762Y-122633379D02*
X143510714Y-122480998D01*
X143510714Y-122480998D02*
X143510714Y-122366712D01*
X143510714Y-122366712D02*
X143479762Y-122214331D01*
X143479762Y-122214331D02*
X143448809Y-122138140D01*
X143448809Y-122138140D02*
X143386904Y-122061950D01*
X143386904Y-122061950D02*
X143294047Y-122023855D01*
X143294047Y-122023855D02*
X143232143Y-122023855D01*
X143232143Y-122023855D02*
X143139285Y-122061950D01*
X143139285Y-122061950D02*
X143108333Y-122100045D01*
X142860714Y-122785760D02*
X142767857Y-122823855D01*
X142767857Y-122823855D02*
X142613095Y-122823855D01*
X142613095Y-122823855D02*
X142551190Y-122785760D01*
X142551190Y-122785760D02*
X142520238Y-122747664D01*
X142520238Y-122747664D02*
X142489285Y-122671474D01*
X142489285Y-122671474D02*
X142489285Y-122595283D01*
X142489285Y-122595283D02*
X142520238Y-122519093D01*
X142520238Y-122519093D02*
X142551190Y-122480998D01*
X142551190Y-122480998D02*
X142613095Y-122442902D01*
X142613095Y-122442902D02*
X142736904Y-122404807D01*
X142736904Y-122404807D02*
X142798809Y-122366712D01*
X142798809Y-122366712D02*
X142829762Y-122328617D01*
X142829762Y-122328617D02*
X142860714Y-122252426D01*
X142860714Y-122252426D02*
X142860714Y-122176236D01*
X142860714Y-122176236D02*
X142829762Y-122100045D01*
X142829762Y-122100045D02*
X142798809Y-122061950D01*
X142798809Y-122061950D02*
X142736904Y-122023855D01*
X142736904Y-122023855D02*
X142582143Y-122023855D01*
X142582143Y-122023855D02*
X142489285Y-122061950D01*
X143588095Y-125363855D02*
X143588095Y-124563855D01*
X143278571Y-125363855D02*
X143278571Y-124563855D01*
X143278571Y-124563855D02*
X142907142Y-125363855D01*
X142907142Y-125363855D02*
X142907142Y-124563855D01*
X142690476Y-124563855D02*
X142319047Y-124563855D01*
X142504761Y-125363855D02*
X142504761Y-124563855D01*
X148479762Y-109123855D02*
X148479762Y-108323855D01*
X148479762Y-108323855D02*
X148325000Y-108323855D01*
X148325000Y-108323855D02*
X148232143Y-108361950D01*
X148232143Y-108361950D02*
X148170238Y-108438140D01*
X148170238Y-108438140D02*
X148139285Y-108514331D01*
X148139285Y-108514331D02*
X148108333Y-108666712D01*
X148108333Y-108666712D02*
X148108333Y-108780998D01*
X148108333Y-108780998D02*
X148139285Y-108933379D01*
X148139285Y-108933379D02*
X148170238Y-109009569D01*
X148170238Y-109009569D02*
X148232143Y-109085760D01*
X148232143Y-109085760D02*
X148325000Y-109123855D01*
X148325000Y-109123855D02*
X148479762Y-109123855D01*
X147891666Y-108323855D02*
X147458333Y-108323855D01*
X147458333Y-108323855D02*
X147736904Y-109123855D01*
X148479762Y-111663855D02*
X148479762Y-110863855D01*
X148479762Y-110863855D02*
X148325000Y-110863855D01*
X148325000Y-110863855D02*
X148232143Y-110901950D01*
X148232143Y-110901950D02*
X148170238Y-110978140D01*
X148170238Y-110978140D02*
X148139285Y-111054331D01*
X148139285Y-111054331D02*
X148108333Y-111206712D01*
X148108333Y-111206712D02*
X148108333Y-111320998D01*
X148108333Y-111320998D02*
X148139285Y-111473379D01*
X148139285Y-111473379D02*
X148170238Y-111549569D01*
X148170238Y-111549569D02*
X148232143Y-111625760D01*
X148232143Y-111625760D02*
X148325000Y-111663855D01*
X148325000Y-111663855D02*
X148479762Y-111663855D01*
X147736904Y-111206712D02*
X147798809Y-111168617D01*
X147798809Y-111168617D02*
X147829762Y-111130521D01*
X147829762Y-111130521D02*
X147860714Y-111054331D01*
X147860714Y-111054331D02*
X147860714Y-111016236D01*
X147860714Y-111016236D02*
X147829762Y-110940045D01*
X147829762Y-110940045D02*
X147798809Y-110901950D01*
X147798809Y-110901950D02*
X147736904Y-110863855D01*
X147736904Y-110863855D02*
X147613095Y-110863855D01*
X147613095Y-110863855D02*
X147551190Y-110901950D01*
X147551190Y-110901950D02*
X147520238Y-110940045D01*
X147520238Y-110940045D02*
X147489285Y-111016236D01*
X147489285Y-111016236D02*
X147489285Y-111054331D01*
X147489285Y-111054331D02*
X147520238Y-111130521D01*
X147520238Y-111130521D02*
X147551190Y-111168617D01*
X147551190Y-111168617D02*
X147613095Y-111206712D01*
X147613095Y-111206712D02*
X147736904Y-111206712D01*
X147736904Y-111206712D02*
X147798809Y-111244807D01*
X147798809Y-111244807D02*
X147829762Y-111282902D01*
X147829762Y-111282902D02*
X147860714Y-111359093D01*
X147860714Y-111359093D02*
X147860714Y-111511474D01*
X147860714Y-111511474D02*
X147829762Y-111587664D01*
X147829762Y-111587664D02*
X147798809Y-111625760D01*
X147798809Y-111625760D02*
X147736904Y-111663855D01*
X147736904Y-111663855D02*
X147613095Y-111663855D01*
X147613095Y-111663855D02*
X147551190Y-111625760D01*
X147551190Y-111625760D02*
X147520238Y-111587664D01*
X147520238Y-111587664D02*
X147489285Y-111511474D01*
X147489285Y-111511474D02*
X147489285Y-111359093D01*
X147489285Y-111359093D02*
X147520238Y-111282902D01*
X147520238Y-111282902D02*
X147551190Y-111244807D01*
X147551190Y-111244807D02*
X147613095Y-111206712D01*
X148479762Y-114203855D02*
X148479762Y-113403855D01*
X148479762Y-113403855D02*
X148325000Y-113403855D01*
X148325000Y-113403855D02*
X148232143Y-113441950D01*
X148232143Y-113441950D02*
X148170238Y-113518140D01*
X148170238Y-113518140D02*
X148139285Y-113594331D01*
X148139285Y-113594331D02*
X148108333Y-113746712D01*
X148108333Y-113746712D02*
X148108333Y-113860998D01*
X148108333Y-113860998D02*
X148139285Y-114013379D01*
X148139285Y-114013379D02*
X148170238Y-114089569D01*
X148170238Y-114089569D02*
X148232143Y-114165760D01*
X148232143Y-114165760D02*
X148325000Y-114203855D01*
X148325000Y-114203855D02*
X148479762Y-114203855D01*
X147798809Y-114203855D02*
X147675000Y-114203855D01*
X147675000Y-114203855D02*
X147613095Y-114165760D01*
X147613095Y-114165760D02*
X147582143Y-114127664D01*
X147582143Y-114127664D02*
X147520238Y-114013379D01*
X147520238Y-114013379D02*
X147489285Y-113860998D01*
X147489285Y-113860998D02*
X147489285Y-113556236D01*
X147489285Y-113556236D02*
X147520238Y-113480045D01*
X147520238Y-113480045D02*
X147551190Y-113441950D01*
X147551190Y-113441950D02*
X147613095Y-113403855D01*
X147613095Y-113403855D02*
X147736904Y-113403855D01*
X147736904Y-113403855D02*
X147798809Y-113441950D01*
X147798809Y-113441950D02*
X147829762Y-113480045D01*
X147829762Y-113480045D02*
X147860714Y-113556236D01*
X147860714Y-113556236D02*
X147860714Y-113746712D01*
X147860714Y-113746712D02*
X147829762Y-113822902D01*
X147829762Y-113822902D02*
X147798809Y-113860998D01*
X147798809Y-113860998D02*
X147736904Y-113899093D01*
X147736904Y-113899093D02*
X147613095Y-113899093D01*
X147613095Y-113899093D02*
X147551190Y-113860998D01*
X147551190Y-113860998D02*
X147520238Y-113822902D01*
X147520238Y-113822902D02*
X147489285Y-113746712D01*
X148789286Y-116743855D02*
X148789286Y-115943855D01*
X148789286Y-115943855D02*
X148634524Y-115943855D01*
X148634524Y-115943855D02*
X148541667Y-115981950D01*
X148541667Y-115981950D02*
X148479762Y-116058140D01*
X148479762Y-116058140D02*
X148448809Y-116134331D01*
X148448809Y-116134331D02*
X148417857Y-116286712D01*
X148417857Y-116286712D02*
X148417857Y-116400998D01*
X148417857Y-116400998D02*
X148448809Y-116553379D01*
X148448809Y-116553379D02*
X148479762Y-116629569D01*
X148479762Y-116629569D02*
X148541667Y-116705760D01*
X148541667Y-116705760D02*
X148634524Y-116743855D01*
X148634524Y-116743855D02*
X148789286Y-116743855D01*
X147798809Y-116743855D02*
X148170238Y-116743855D01*
X147984524Y-116743855D02*
X147984524Y-115943855D01*
X147984524Y-115943855D02*
X148046428Y-116058140D01*
X148046428Y-116058140D02*
X148108333Y-116134331D01*
X148108333Y-116134331D02*
X148170238Y-116172426D01*
X147396428Y-115943855D02*
X147334523Y-115943855D01*
X147334523Y-115943855D02*
X147272619Y-115981950D01*
X147272619Y-115981950D02*
X147241666Y-116020045D01*
X147241666Y-116020045D02*
X147210714Y-116096236D01*
X147210714Y-116096236D02*
X147179761Y-116248617D01*
X147179761Y-116248617D02*
X147179761Y-116439093D01*
X147179761Y-116439093D02*
X147210714Y-116591474D01*
X147210714Y-116591474D02*
X147241666Y-116667664D01*
X147241666Y-116667664D02*
X147272619Y-116705760D01*
X147272619Y-116705760D02*
X147334523Y-116743855D01*
X147334523Y-116743855D02*
X147396428Y-116743855D01*
X147396428Y-116743855D02*
X147458333Y-116705760D01*
X147458333Y-116705760D02*
X147489285Y-116667664D01*
X147489285Y-116667664D02*
X147520238Y-116591474D01*
X147520238Y-116591474D02*
X147551190Y-116439093D01*
X147551190Y-116439093D02*
X147551190Y-116248617D01*
X147551190Y-116248617D02*
X147520238Y-116096236D01*
X147520238Y-116096236D02*
X147489285Y-116020045D01*
X147489285Y-116020045D02*
X147458333Y-115981950D01*
X147458333Y-115981950D02*
X147396428Y-115943855D01*
X148804761Y-118483855D02*
X148402380Y-118483855D01*
X148402380Y-118483855D02*
X148619047Y-118788617D01*
X148619047Y-118788617D02*
X148526190Y-118788617D01*
X148526190Y-118788617D02*
X148464285Y-118826712D01*
X148464285Y-118826712D02*
X148433333Y-118864807D01*
X148433333Y-118864807D02*
X148402380Y-118940998D01*
X148402380Y-118940998D02*
X148402380Y-119131474D01*
X148402380Y-119131474D02*
X148433333Y-119207664D01*
X148433333Y-119207664D02*
X148464285Y-119245760D01*
X148464285Y-119245760D02*
X148526190Y-119283855D01*
X148526190Y-119283855D02*
X148711904Y-119283855D01*
X148711904Y-119283855D02*
X148773809Y-119245760D01*
X148773809Y-119245760D02*
X148804761Y-119207664D01*
X148216666Y-118483855D02*
X147999999Y-119283855D01*
X147999999Y-119283855D02*
X147783332Y-118483855D01*
X147628570Y-118483855D02*
X147226189Y-118483855D01*
X147226189Y-118483855D02*
X147442856Y-118788617D01*
X147442856Y-118788617D02*
X147349999Y-118788617D01*
X147349999Y-118788617D02*
X147288094Y-118826712D01*
X147288094Y-118826712D02*
X147257142Y-118864807D01*
X147257142Y-118864807D02*
X147226189Y-118940998D01*
X147226189Y-118940998D02*
X147226189Y-119131474D01*
X147226189Y-119131474D02*
X147257142Y-119207664D01*
X147257142Y-119207664D02*
X147288094Y-119245760D01*
X147288094Y-119245760D02*
X147349999Y-119283855D01*
X147349999Y-119283855D02*
X147535713Y-119283855D01*
X147535713Y-119283855D02*
X147597618Y-119245760D01*
X147597618Y-119245760D02*
X147628570Y-119207664D01*
X148495237Y-121061950D02*
X148557142Y-121023855D01*
X148557142Y-121023855D02*
X148649999Y-121023855D01*
X148649999Y-121023855D02*
X148742856Y-121061950D01*
X148742856Y-121061950D02*
X148804761Y-121138140D01*
X148804761Y-121138140D02*
X148835714Y-121214331D01*
X148835714Y-121214331D02*
X148866666Y-121366712D01*
X148866666Y-121366712D02*
X148866666Y-121480998D01*
X148866666Y-121480998D02*
X148835714Y-121633379D01*
X148835714Y-121633379D02*
X148804761Y-121709569D01*
X148804761Y-121709569D02*
X148742856Y-121785760D01*
X148742856Y-121785760D02*
X148649999Y-121823855D01*
X148649999Y-121823855D02*
X148588095Y-121823855D01*
X148588095Y-121823855D02*
X148495237Y-121785760D01*
X148495237Y-121785760D02*
X148464285Y-121747664D01*
X148464285Y-121747664D02*
X148464285Y-121480998D01*
X148464285Y-121480998D02*
X148588095Y-121480998D01*
X148185714Y-121823855D02*
X148185714Y-121023855D01*
X148185714Y-121023855D02*
X147814285Y-121823855D01*
X147814285Y-121823855D02*
X147814285Y-121023855D01*
X147504762Y-121823855D02*
X147504762Y-121023855D01*
X147504762Y-121023855D02*
X147350000Y-121023855D01*
X147350000Y-121023855D02*
X147257143Y-121061950D01*
X147257143Y-121061950D02*
X147195238Y-121138140D01*
X147195238Y-121138140D02*
X147164285Y-121214331D01*
X147164285Y-121214331D02*
X147133333Y-121366712D01*
X147133333Y-121366712D02*
X147133333Y-121480998D01*
X147133333Y-121480998D02*
X147164285Y-121633379D01*
X147164285Y-121633379D02*
X147195238Y-121709569D01*
X147195238Y-121709569D02*
X147257143Y-121785760D01*
X147257143Y-121785760D02*
X147350000Y-121823855D01*
X147350000Y-121823855D02*
X147504762Y-121823855D01*
X148123809Y-123563855D02*
X148433333Y-123563855D01*
X148433333Y-123563855D02*
X148464285Y-123944807D01*
X148464285Y-123944807D02*
X148433333Y-123906712D01*
X148433333Y-123906712D02*
X148371428Y-123868617D01*
X148371428Y-123868617D02*
X148216666Y-123868617D01*
X148216666Y-123868617D02*
X148154761Y-123906712D01*
X148154761Y-123906712D02*
X148123809Y-123944807D01*
X148123809Y-123944807D02*
X148092856Y-124020998D01*
X148092856Y-124020998D02*
X148092856Y-124211474D01*
X148092856Y-124211474D02*
X148123809Y-124287664D01*
X148123809Y-124287664D02*
X148154761Y-124325760D01*
X148154761Y-124325760D02*
X148216666Y-124363855D01*
X148216666Y-124363855D02*
X148371428Y-124363855D01*
X148371428Y-124363855D02*
X148433333Y-124325760D01*
X148433333Y-124325760D02*
X148464285Y-124287664D01*
X147907142Y-123563855D02*
X147690475Y-124363855D01*
X147690475Y-124363855D02*
X147473808Y-123563855D01*
X167719762Y-109123855D02*
X167719762Y-108323855D01*
X167719762Y-108323855D02*
X167565000Y-108323855D01*
X167565000Y-108323855D02*
X167472143Y-108361950D01*
X167472143Y-108361950D02*
X167410238Y-108438140D01*
X167410238Y-108438140D02*
X167379285Y-108514331D01*
X167379285Y-108514331D02*
X167348333Y-108666712D01*
X167348333Y-108666712D02*
X167348333Y-108780998D01*
X167348333Y-108780998D02*
X167379285Y-108933379D01*
X167379285Y-108933379D02*
X167410238Y-109009569D01*
X167410238Y-109009569D02*
X167472143Y-109085760D01*
X167472143Y-109085760D02*
X167565000Y-109123855D01*
X167565000Y-109123855D02*
X167719762Y-109123855D01*
X166791190Y-108323855D02*
X166915000Y-108323855D01*
X166915000Y-108323855D02*
X166976904Y-108361950D01*
X166976904Y-108361950D02*
X167007857Y-108400045D01*
X167007857Y-108400045D02*
X167069762Y-108514331D01*
X167069762Y-108514331D02*
X167100714Y-108666712D01*
X167100714Y-108666712D02*
X167100714Y-108971474D01*
X167100714Y-108971474D02*
X167069762Y-109047664D01*
X167069762Y-109047664D02*
X167038809Y-109085760D01*
X167038809Y-109085760D02*
X166976904Y-109123855D01*
X166976904Y-109123855D02*
X166853095Y-109123855D01*
X166853095Y-109123855D02*
X166791190Y-109085760D01*
X166791190Y-109085760D02*
X166760238Y-109047664D01*
X166760238Y-109047664D02*
X166729285Y-108971474D01*
X166729285Y-108971474D02*
X166729285Y-108780998D01*
X166729285Y-108780998D02*
X166760238Y-108704807D01*
X166760238Y-108704807D02*
X166791190Y-108666712D01*
X166791190Y-108666712D02*
X166853095Y-108628617D01*
X166853095Y-108628617D02*
X166976904Y-108628617D01*
X166976904Y-108628617D02*
X167038809Y-108666712D01*
X167038809Y-108666712D02*
X167069762Y-108704807D01*
X167069762Y-108704807D02*
X167100714Y-108780998D01*
X167719762Y-111663855D02*
X167719762Y-110863855D01*
X167719762Y-110863855D02*
X167565000Y-110863855D01*
X167565000Y-110863855D02*
X167472143Y-110901950D01*
X167472143Y-110901950D02*
X167410238Y-110978140D01*
X167410238Y-110978140D02*
X167379285Y-111054331D01*
X167379285Y-111054331D02*
X167348333Y-111206712D01*
X167348333Y-111206712D02*
X167348333Y-111320998D01*
X167348333Y-111320998D02*
X167379285Y-111473379D01*
X167379285Y-111473379D02*
X167410238Y-111549569D01*
X167410238Y-111549569D02*
X167472143Y-111625760D01*
X167472143Y-111625760D02*
X167565000Y-111663855D01*
X167565000Y-111663855D02*
X167719762Y-111663855D01*
X166760238Y-110863855D02*
X167069762Y-110863855D01*
X167069762Y-110863855D02*
X167100714Y-111244807D01*
X167100714Y-111244807D02*
X167069762Y-111206712D01*
X167069762Y-111206712D02*
X167007857Y-111168617D01*
X167007857Y-111168617D02*
X166853095Y-111168617D01*
X166853095Y-111168617D02*
X166791190Y-111206712D01*
X166791190Y-111206712D02*
X166760238Y-111244807D01*
X166760238Y-111244807D02*
X166729285Y-111320998D01*
X166729285Y-111320998D02*
X166729285Y-111511474D01*
X166729285Y-111511474D02*
X166760238Y-111587664D01*
X166760238Y-111587664D02*
X166791190Y-111625760D01*
X166791190Y-111625760D02*
X166853095Y-111663855D01*
X166853095Y-111663855D02*
X167007857Y-111663855D01*
X167007857Y-111663855D02*
X167069762Y-111625760D01*
X167069762Y-111625760D02*
X167100714Y-111587664D01*
X167719762Y-114203855D02*
X167719762Y-113403855D01*
X167719762Y-113403855D02*
X167565000Y-113403855D01*
X167565000Y-113403855D02*
X167472143Y-113441950D01*
X167472143Y-113441950D02*
X167410238Y-113518140D01*
X167410238Y-113518140D02*
X167379285Y-113594331D01*
X167379285Y-113594331D02*
X167348333Y-113746712D01*
X167348333Y-113746712D02*
X167348333Y-113860998D01*
X167348333Y-113860998D02*
X167379285Y-114013379D01*
X167379285Y-114013379D02*
X167410238Y-114089569D01*
X167410238Y-114089569D02*
X167472143Y-114165760D01*
X167472143Y-114165760D02*
X167565000Y-114203855D01*
X167565000Y-114203855D02*
X167719762Y-114203855D01*
X166791190Y-113670521D02*
X166791190Y-114203855D01*
X166945952Y-113365760D02*
X167100714Y-113937188D01*
X167100714Y-113937188D02*
X166698333Y-113937188D01*
X167719762Y-116743855D02*
X167719762Y-115943855D01*
X167719762Y-115943855D02*
X167565000Y-115943855D01*
X167565000Y-115943855D02*
X167472143Y-115981950D01*
X167472143Y-115981950D02*
X167410238Y-116058140D01*
X167410238Y-116058140D02*
X167379285Y-116134331D01*
X167379285Y-116134331D02*
X167348333Y-116286712D01*
X167348333Y-116286712D02*
X167348333Y-116400998D01*
X167348333Y-116400998D02*
X167379285Y-116553379D01*
X167379285Y-116553379D02*
X167410238Y-116629569D01*
X167410238Y-116629569D02*
X167472143Y-116705760D01*
X167472143Y-116705760D02*
X167565000Y-116743855D01*
X167565000Y-116743855D02*
X167719762Y-116743855D01*
X167131666Y-115943855D02*
X166729285Y-115943855D01*
X166729285Y-115943855D02*
X166945952Y-116248617D01*
X166945952Y-116248617D02*
X166853095Y-116248617D01*
X166853095Y-116248617D02*
X166791190Y-116286712D01*
X166791190Y-116286712D02*
X166760238Y-116324807D01*
X166760238Y-116324807D02*
X166729285Y-116400998D01*
X166729285Y-116400998D02*
X166729285Y-116591474D01*
X166729285Y-116591474D02*
X166760238Y-116667664D01*
X166760238Y-116667664D02*
X166791190Y-116705760D01*
X166791190Y-116705760D02*
X166853095Y-116743855D01*
X166853095Y-116743855D02*
X167038809Y-116743855D01*
X167038809Y-116743855D02*
X167100714Y-116705760D01*
X167100714Y-116705760D02*
X167131666Y-116667664D01*
X167719762Y-119283855D02*
X167719762Y-118483855D01*
X167719762Y-118483855D02*
X167565000Y-118483855D01*
X167565000Y-118483855D02*
X167472143Y-118521950D01*
X167472143Y-118521950D02*
X167410238Y-118598140D01*
X167410238Y-118598140D02*
X167379285Y-118674331D01*
X167379285Y-118674331D02*
X167348333Y-118826712D01*
X167348333Y-118826712D02*
X167348333Y-118940998D01*
X167348333Y-118940998D02*
X167379285Y-119093379D01*
X167379285Y-119093379D02*
X167410238Y-119169569D01*
X167410238Y-119169569D02*
X167472143Y-119245760D01*
X167472143Y-119245760D02*
X167565000Y-119283855D01*
X167565000Y-119283855D02*
X167719762Y-119283855D01*
X167100714Y-118560045D02*
X167069762Y-118521950D01*
X167069762Y-118521950D02*
X167007857Y-118483855D01*
X167007857Y-118483855D02*
X166853095Y-118483855D01*
X166853095Y-118483855D02*
X166791190Y-118521950D01*
X166791190Y-118521950D02*
X166760238Y-118560045D01*
X166760238Y-118560045D02*
X166729285Y-118636236D01*
X166729285Y-118636236D02*
X166729285Y-118712426D01*
X166729285Y-118712426D02*
X166760238Y-118826712D01*
X166760238Y-118826712D02*
X167131666Y-119283855D01*
X167131666Y-119283855D02*
X166729285Y-119283855D01*
X167719762Y-121823855D02*
X167719762Y-121023855D01*
X167719762Y-121023855D02*
X167565000Y-121023855D01*
X167565000Y-121023855D02*
X167472143Y-121061950D01*
X167472143Y-121061950D02*
X167410238Y-121138140D01*
X167410238Y-121138140D02*
X167379285Y-121214331D01*
X167379285Y-121214331D02*
X167348333Y-121366712D01*
X167348333Y-121366712D02*
X167348333Y-121480998D01*
X167348333Y-121480998D02*
X167379285Y-121633379D01*
X167379285Y-121633379D02*
X167410238Y-121709569D01*
X167410238Y-121709569D02*
X167472143Y-121785760D01*
X167472143Y-121785760D02*
X167565000Y-121823855D01*
X167565000Y-121823855D02*
X167719762Y-121823855D01*
X166729285Y-121823855D02*
X167100714Y-121823855D01*
X166915000Y-121823855D02*
X166915000Y-121023855D01*
X166915000Y-121023855D02*
X166976904Y-121138140D01*
X166976904Y-121138140D02*
X167038809Y-121214331D01*
X167038809Y-121214331D02*
X167100714Y-121252426D01*
X167719762Y-124363855D02*
X167719762Y-123563855D01*
X167719762Y-123563855D02*
X167565000Y-123563855D01*
X167565000Y-123563855D02*
X167472143Y-123601950D01*
X167472143Y-123601950D02*
X167410238Y-123678140D01*
X167410238Y-123678140D02*
X167379285Y-123754331D01*
X167379285Y-123754331D02*
X167348333Y-123906712D01*
X167348333Y-123906712D02*
X167348333Y-124020998D01*
X167348333Y-124020998D02*
X167379285Y-124173379D01*
X167379285Y-124173379D02*
X167410238Y-124249569D01*
X167410238Y-124249569D02*
X167472143Y-124325760D01*
X167472143Y-124325760D02*
X167565000Y-124363855D01*
X167565000Y-124363855D02*
X167719762Y-124363855D01*
X166945952Y-123563855D02*
X166884047Y-123563855D01*
X166884047Y-123563855D02*
X166822143Y-123601950D01*
X166822143Y-123601950D02*
X166791190Y-123640045D01*
X166791190Y-123640045D02*
X166760238Y-123716236D01*
X166760238Y-123716236D02*
X166729285Y-123868617D01*
X166729285Y-123868617D02*
X166729285Y-124059093D01*
X166729285Y-124059093D02*
X166760238Y-124211474D01*
X166760238Y-124211474D02*
X166791190Y-124287664D01*
X166791190Y-124287664D02*
X166822143Y-124325760D01*
X166822143Y-124325760D02*
X166884047Y-124363855D01*
X166884047Y-124363855D02*
X166945952Y-124363855D01*
X166945952Y-124363855D02*
X167007857Y-124325760D01*
X167007857Y-124325760D02*
X167038809Y-124287664D01*
X167038809Y-124287664D02*
X167069762Y-124211474D01*
X167069762Y-124211474D02*
X167100714Y-124059093D01*
X167100714Y-124059093D02*
X167100714Y-123868617D01*
X167100714Y-123868617D02*
X167069762Y-123716236D01*
X167069762Y-123716236D02*
X167038809Y-123640045D01*
X167038809Y-123640045D02*
X167007857Y-123601950D01*
X167007857Y-123601950D02*
X166945952Y-123563855D01*
X101559093Y-104752380D02*
X101559093Y-105247619D01*
X103363855Y-120602380D02*
X102563855Y-120602380D01*
X103363855Y-120911904D02*
X102563855Y-120911904D01*
X102563855Y-120911904D02*
X103363855Y-121283333D01*
X103363855Y-121283333D02*
X102563855Y-121283333D01*
X102563855Y-121499999D02*
X102563855Y-121871428D01*
X103363855Y-121685714D02*
X102563855Y-121685714D01*
X102640045Y-122057142D02*
X102601950Y-122088094D01*
X102601950Y-122088094D02*
X102563855Y-122149999D01*
X102563855Y-122149999D02*
X102563855Y-122304761D01*
X102563855Y-122304761D02*
X102601950Y-122366666D01*
X102601950Y-122366666D02*
X102640045Y-122397618D01*
X102640045Y-122397618D02*
X102716236Y-122428571D01*
X102716236Y-122428571D02*
X102792426Y-122428571D01*
X102792426Y-122428571D02*
X102906712Y-122397618D01*
X102906712Y-122397618D02*
X103363855Y-122026190D01*
X103363855Y-122026190D02*
X103363855Y-122428571D01*
X104099093Y-104752380D02*
X104099093Y-105247619D01*
X104403855Y-104999999D02*
X103794331Y-104999999D01*
X105043855Y-111788095D02*
X104243855Y-111788095D01*
X104243855Y-111788095D02*
X104243855Y-111942857D01*
X104243855Y-111942857D02*
X104281950Y-112035714D01*
X104281950Y-112035714D02*
X104358140Y-112097619D01*
X104358140Y-112097619D02*
X104434331Y-112128572D01*
X104434331Y-112128572D02*
X104586712Y-112159524D01*
X104586712Y-112159524D02*
X104700998Y-112159524D01*
X104700998Y-112159524D02*
X104853379Y-112128572D01*
X104853379Y-112128572D02*
X104929569Y-112097619D01*
X104929569Y-112097619D02*
X105005760Y-112035714D01*
X105005760Y-112035714D02*
X105043855Y-111942857D01*
X105043855Y-111942857D02*
X105043855Y-111788095D01*
X104624807Y-112438095D02*
X104624807Y-112654762D01*
X105043855Y-112747619D02*
X105043855Y-112438095D01*
X105043855Y-112438095D02*
X104243855Y-112438095D01*
X104243855Y-112438095D02*
X104243855Y-112747619D01*
X104243855Y-112933333D02*
X104243855Y-113304762D01*
X105043855Y-113119048D02*
X104243855Y-113119048D01*
X105903855Y-120602380D02*
X105103855Y-120602380D01*
X105903855Y-120911904D02*
X105103855Y-120911904D01*
X105103855Y-120911904D02*
X105903855Y-121283333D01*
X105903855Y-121283333D02*
X105103855Y-121283333D01*
X105103855Y-121499999D02*
X105103855Y-121871428D01*
X105903855Y-121685714D02*
X105103855Y-121685714D01*
X105903855Y-122428571D02*
X105903855Y-122057142D01*
X105903855Y-122242856D02*
X105103855Y-122242856D01*
X105103855Y-122242856D02*
X105218140Y-122180952D01*
X105218140Y-122180952D02*
X105294331Y-122119047D01*
X105294331Y-122119047D02*
X105332426Y-122057142D01*
X107583855Y-111494047D02*
X106783855Y-111494047D01*
X106783855Y-111494047D02*
X106783855Y-111648809D01*
X106783855Y-111648809D02*
X106821950Y-111741666D01*
X106821950Y-111741666D02*
X106898140Y-111803571D01*
X106898140Y-111803571D02*
X106974331Y-111834524D01*
X106974331Y-111834524D02*
X107126712Y-111865476D01*
X107126712Y-111865476D02*
X107240998Y-111865476D01*
X107240998Y-111865476D02*
X107393379Y-111834524D01*
X107393379Y-111834524D02*
X107469569Y-111803571D01*
X107469569Y-111803571D02*
X107545760Y-111741666D01*
X107545760Y-111741666D02*
X107583855Y-111648809D01*
X107583855Y-111648809D02*
X107583855Y-111494047D01*
X107355283Y-112113095D02*
X107355283Y-112422619D01*
X107583855Y-112051190D02*
X106783855Y-112267857D01*
X106783855Y-112267857D02*
X107583855Y-112484524D01*
X106783855Y-112608333D02*
X106783855Y-112979762D01*
X107583855Y-112794048D02*
X106783855Y-112794048D01*
X106860045Y-113165476D02*
X106821950Y-113196428D01*
X106821950Y-113196428D02*
X106783855Y-113258333D01*
X106783855Y-113258333D02*
X106783855Y-113413095D01*
X106783855Y-113413095D02*
X106821950Y-113475000D01*
X106821950Y-113475000D02*
X106860045Y-113505952D01*
X106860045Y-113505952D02*
X106936236Y-113536905D01*
X106936236Y-113536905D02*
X107012426Y-113536905D01*
X107012426Y-113536905D02*
X107126712Y-113505952D01*
X107126712Y-113505952D02*
X107583855Y-113134524D01*
X107583855Y-113134524D02*
X107583855Y-113536905D01*
X108367664Y-121391666D02*
X108405760Y-121360714D01*
X108405760Y-121360714D02*
X108443855Y-121267856D01*
X108443855Y-121267856D02*
X108443855Y-121205952D01*
X108443855Y-121205952D02*
X108405760Y-121113095D01*
X108405760Y-121113095D02*
X108329569Y-121051190D01*
X108329569Y-121051190D02*
X108253379Y-121020237D01*
X108253379Y-121020237D02*
X108100998Y-120989285D01*
X108100998Y-120989285D02*
X107986712Y-120989285D01*
X107986712Y-120989285D02*
X107834331Y-121020237D01*
X107834331Y-121020237D02*
X107758140Y-121051190D01*
X107758140Y-121051190D02*
X107681950Y-121113095D01*
X107681950Y-121113095D02*
X107643855Y-121205952D01*
X107643855Y-121205952D02*
X107643855Y-121267856D01*
X107643855Y-121267856D02*
X107681950Y-121360714D01*
X107681950Y-121360714D02*
X107720045Y-121391666D01*
X108405760Y-121639285D02*
X108443855Y-121732142D01*
X108443855Y-121732142D02*
X108443855Y-121886904D01*
X108443855Y-121886904D02*
X108405760Y-121948809D01*
X108405760Y-121948809D02*
X108367664Y-121979761D01*
X108367664Y-121979761D02*
X108291474Y-122010714D01*
X108291474Y-122010714D02*
X108215283Y-122010714D01*
X108215283Y-122010714D02*
X108139093Y-121979761D01*
X108139093Y-121979761D02*
X108100998Y-121948809D01*
X108100998Y-121948809D02*
X108062902Y-121886904D01*
X108062902Y-121886904D02*
X108024807Y-121763095D01*
X108024807Y-121763095D02*
X107986712Y-121701190D01*
X107986712Y-121701190D02*
X107948617Y-121670237D01*
X107948617Y-121670237D02*
X107872426Y-121639285D01*
X107872426Y-121639285D02*
X107796236Y-121639285D01*
X107796236Y-121639285D02*
X107720045Y-121670237D01*
X107720045Y-121670237D02*
X107681950Y-121701190D01*
X107681950Y-121701190D02*
X107643855Y-121763095D01*
X107643855Y-121763095D02*
X107643855Y-121917856D01*
X107643855Y-121917856D02*
X107681950Y-122010714D01*
X110123855Y-112020237D02*
X109323855Y-112020237D01*
X109323855Y-112020237D02*
X109323855Y-112174999D01*
X109323855Y-112174999D02*
X109361950Y-112267856D01*
X109361950Y-112267856D02*
X109438140Y-112329761D01*
X109438140Y-112329761D02*
X109514331Y-112360714D01*
X109514331Y-112360714D02*
X109666712Y-112391666D01*
X109666712Y-112391666D02*
X109780998Y-112391666D01*
X109780998Y-112391666D02*
X109933379Y-112360714D01*
X109933379Y-112360714D02*
X110009569Y-112329761D01*
X110009569Y-112329761D02*
X110085760Y-112267856D01*
X110085760Y-112267856D02*
X110123855Y-112174999D01*
X110123855Y-112174999D02*
X110123855Y-112020237D01*
X110123855Y-113010714D02*
X110123855Y-112639285D01*
X110123855Y-112824999D02*
X109323855Y-112824999D01*
X109323855Y-112824999D02*
X109438140Y-112763095D01*
X109438140Y-112763095D02*
X109514331Y-112701190D01*
X109514331Y-112701190D02*
X109552426Y-112639285D01*
X110945760Y-120648809D02*
X110983855Y-120741666D01*
X110983855Y-120741666D02*
X110983855Y-120896428D01*
X110983855Y-120896428D02*
X110945760Y-120958333D01*
X110945760Y-120958333D02*
X110907664Y-120989285D01*
X110907664Y-120989285D02*
X110831474Y-121020238D01*
X110831474Y-121020238D02*
X110755283Y-121020238D01*
X110755283Y-121020238D02*
X110679093Y-120989285D01*
X110679093Y-120989285D02*
X110640998Y-120958333D01*
X110640998Y-120958333D02*
X110602902Y-120896428D01*
X110602902Y-120896428D02*
X110564807Y-120772619D01*
X110564807Y-120772619D02*
X110526712Y-120710714D01*
X110526712Y-120710714D02*
X110488617Y-120679761D01*
X110488617Y-120679761D02*
X110412426Y-120648809D01*
X110412426Y-120648809D02*
X110336236Y-120648809D01*
X110336236Y-120648809D02*
X110260045Y-120679761D01*
X110260045Y-120679761D02*
X110221950Y-120710714D01*
X110221950Y-120710714D02*
X110183855Y-120772619D01*
X110183855Y-120772619D02*
X110183855Y-120927380D01*
X110183855Y-120927380D02*
X110221950Y-121020238D01*
X110983855Y-121298809D02*
X110183855Y-121298809D01*
X110183855Y-121298809D02*
X110183855Y-121453571D01*
X110183855Y-121453571D02*
X110221950Y-121546428D01*
X110221950Y-121546428D02*
X110298140Y-121608333D01*
X110298140Y-121608333D02*
X110374331Y-121639286D01*
X110374331Y-121639286D02*
X110526712Y-121670238D01*
X110526712Y-121670238D02*
X110640998Y-121670238D01*
X110640998Y-121670238D02*
X110793379Y-121639286D01*
X110793379Y-121639286D02*
X110869569Y-121608333D01*
X110869569Y-121608333D02*
X110945760Y-121546428D01*
X110945760Y-121546428D02*
X110983855Y-121453571D01*
X110983855Y-121453571D02*
X110983855Y-121298809D01*
X110183855Y-122072619D02*
X110183855Y-122196428D01*
X110183855Y-122196428D02*
X110221950Y-122258333D01*
X110221950Y-122258333D02*
X110298140Y-122320238D01*
X110298140Y-122320238D02*
X110450521Y-122351190D01*
X110450521Y-122351190D02*
X110717188Y-122351190D01*
X110717188Y-122351190D02*
X110869569Y-122320238D01*
X110869569Y-122320238D02*
X110945760Y-122258333D01*
X110945760Y-122258333D02*
X110983855Y-122196428D01*
X110983855Y-122196428D02*
X110983855Y-122072619D01*
X110983855Y-122072619D02*
X110945760Y-122010714D01*
X110945760Y-122010714D02*
X110869569Y-121948809D01*
X110869569Y-121948809D02*
X110717188Y-121917857D01*
X110717188Y-121917857D02*
X110450521Y-121917857D01*
X110450521Y-121917857D02*
X110298140Y-121948809D01*
X110298140Y-121948809D02*
X110221950Y-122010714D01*
X110221950Y-122010714D02*
X110183855Y-122072619D01*
X112663855Y-111385713D02*
X111863855Y-111385713D01*
X111863855Y-111385713D02*
X111863855Y-111540475D01*
X111863855Y-111540475D02*
X111901950Y-111633332D01*
X111901950Y-111633332D02*
X111978140Y-111695237D01*
X111978140Y-111695237D02*
X112054331Y-111726190D01*
X112054331Y-111726190D02*
X112206712Y-111757142D01*
X112206712Y-111757142D02*
X112320998Y-111757142D01*
X112320998Y-111757142D02*
X112473379Y-111726190D01*
X112473379Y-111726190D02*
X112549569Y-111695237D01*
X112549569Y-111695237D02*
X112625760Y-111633332D01*
X112625760Y-111633332D02*
X112663855Y-111540475D01*
X112663855Y-111540475D02*
X112663855Y-111385713D01*
X111863855Y-111973809D02*
X111863855Y-112376190D01*
X111863855Y-112376190D02*
X112168617Y-112159523D01*
X112168617Y-112159523D02*
X112168617Y-112252380D01*
X112168617Y-112252380D02*
X112206712Y-112314285D01*
X112206712Y-112314285D02*
X112244807Y-112345237D01*
X112244807Y-112345237D02*
X112320998Y-112376190D01*
X112320998Y-112376190D02*
X112511474Y-112376190D01*
X112511474Y-112376190D02*
X112587664Y-112345237D01*
X112587664Y-112345237D02*
X112625760Y-112314285D01*
X112625760Y-112314285D02*
X112663855Y-112252380D01*
X112663855Y-112252380D02*
X112663855Y-112066666D01*
X112663855Y-112066666D02*
X112625760Y-112004761D01*
X112625760Y-112004761D02*
X112587664Y-111973809D01*
X112587664Y-113026190D02*
X112625760Y-112995238D01*
X112625760Y-112995238D02*
X112663855Y-112902380D01*
X112663855Y-112902380D02*
X112663855Y-112840476D01*
X112663855Y-112840476D02*
X112625760Y-112747619D01*
X112625760Y-112747619D02*
X112549569Y-112685714D01*
X112549569Y-112685714D02*
X112473379Y-112654761D01*
X112473379Y-112654761D02*
X112320998Y-112623809D01*
X112320998Y-112623809D02*
X112206712Y-112623809D01*
X112206712Y-112623809D02*
X112054331Y-112654761D01*
X112054331Y-112654761D02*
X111978140Y-112685714D01*
X111978140Y-112685714D02*
X111901950Y-112747619D01*
X111901950Y-112747619D02*
X111863855Y-112840476D01*
X111863855Y-112840476D02*
X111863855Y-112902380D01*
X111863855Y-112902380D02*
X111901950Y-112995238D01*
X111901950Y-112995238D02*
X111940045Y-113026190D01*
X112625760Y-113273809D02*
X112663855Y-113366666D01*
X112663855Y-113366666D02*
X112663855Y-113521428D01*
X112663855Y-113521428D02*
X112625760Y-113583333D01*
X112625760Y-113583333D02*
X112587664Y-113614285D01*
X112587664Y-113614285D02*
X112511474Y-113645238D01*
X112511474Y-113645238D02*
X112435283Y-113645238D01*
X112435283Y-113645238D02*
X112359093Y-113614285D01*
X112359093Y-113614285D02*
X112320998Y-113583333D01*
X112320998Y-113583333D02*
X112282902Y-113521428D01*
X112282902Y-113521428D02*
X112244807Y-113397619D01*
X112244807Y-113397619D02*
X112206712Y-113335714D01*
X112206712Y-113335714D02*
X112168617Y-113304761D01*
X112168617Y-113304761D02*
X112092426Y-113273809D01*
X112092426Y-113273809D02*
X112016236Y-113273809D01*
X112016236Y-113273809D02*
X111940045Y-113304761D01*
X111940045Y-113304761D02*
X111901950Y-113335714D01*
X111901950Y-113335714D02*
X111863855Y-113397619D01*
X111863855Y-113397619D02*
X111863855Y-113552380D01*
X111863855Y-113552380D02*
X111901950Y-113645238D01*
X113485760Y-120710714D02*
X113523855Y-120803571D01*
X113523855Y-120803571D02*
X113523855Y-120958333D01*
X113523855Y-120958333D02*
X113485760Y-121020238D01*
X113485760Y-121020238D02*
X113447664Y-121051190D01*
X113447664Y-121051190D02*
X113371474Y-121082143D01*
X113371474Y-121082143D02*
X113295283Y-121082143D01*
X113295283Y-121082143D02*
X113219093Y-121051190D01*
X113219093Y-121051190D02*
X113180998Y-121020238D01*
X113180998Y-121020238D02*
X113142902Y-120958333D01*
X113142902Y-120958333D02*
X113104807Y-120834524D01*
X113104807Y-120834524D02*
X113066712Y-120772619D01*
X113066712Y-120772619D02*
X113028617Y-120741666D01*
X113028617Y-120741666D02*
X112952426Y-120710714D01*
X112952426Y-120710714D02*
X112876236Y-120710714D01*
X112876236Y-120710714D02*
X112800045Y-120741666D01*
X112800045Y-120741666D02*
X112761950Y-120772619D01*
X112761950Y-120772619D02*
X112723855Y-120834524D01*
X112723855Y-120834524D02*
X112723855Y-120989285D01*
X112723855Y-120989285D02*
X112761950Y-121082143D01*
X113523855Y-121360714D02*
X112723855Y-121360714D01*
X112723855Y-121360714D02*
X112723855Y-121515476D01*
X112723855Y-121515476D02*
X112761950Y-121608333D01*
X112761950Y-121608333D02*
X112838140Y-121670238D01*
X112838140Y-121670238D02*
X112914331Y-121701191D01*
X112914331Y-121701191D02*
X113066712Y-121732143D01*
X113066712Y-121732143D02*
X113180998Y-121732143D01*
X113180998Y-121732143D02*
X113333379Y-121701191D01*
X113333379Y-121701191D02*
X113409569Y-121670238D01*
X113409569Y-121670238D02*
X113485760Y-121608333D01*
X113485760Y-121608333D02*
X113523855Y-121515476D01*
X113523855Y-121515476D02*
X113523855Y-121360714D01*
X113295283Y-121979762D02*
X113295283Y-122289286D01*
X113523855Y-121917857D02*
X112723855Y-122134524D01*
X112723855Y-122134524D02*
X113523855Y-122351191D01*
X115127664Y-112004762D02*
X115165760Y-111973810D01*
X115165760Y-111973810D02*
X115203855Y-111880952D01*
X115203855Y-111880952D02*
X115203855Y-111819048D01*
X115203855Y-111819048D02*
X115165760Y-111726191D01*
X115165760Y-111726191D02*
X115089569Y-111664286D01*
X115089569Y-111664286D02*
X115013379Y-111633333D01*
X115013379Y-111633333D02*
X114860998Y-111602381D01*
X114860998Y-111602381D02*
X114746712Y-111602381D01*
X114746712Y-111602381D02*
X114594331Y-111633333D01*
X114594331Y-111633333D02*
X114518140Y-111664286D01*
X114518140Y-111664286D02*
X114441950Y-111726191D01*
X114441950Y-111726191D02*
X114403855Y-111819048D01*
X114403855Y-111819048D02*
X114403855Y-111880952D01*
X114403855Y-111880952D02*
X114441950Y-111973810D01*
X114441950Y-111973810D02*
X114480045Y-112004762D01*
X115203855Y-112283333D02*
X114403855Y-112283333D01*
X114403855Y-112283333D02*
X114975283Y-112500000D01*
X114975283Y-112500000D02*
X114403855Y-112716667D01*
X114403855Y-112716667D02*
X115203855Y-112716667D01*
X115203855Y-113026190D02*
X114403855Y-113026190D01*
X114403855Y-113026190D02*
X114403855Y-113180952D01*
X114403855Y-113180952D02*
X114441950Y-113273809D01*
X114441950Y-113273809D02*
X114518140Y-113335714D01*
X114518140Y-113335714D02*
X114594331Y-113366667D01*
X114594331Y-113366667D02*
X114746712Y-113397619D01*
X114746712Y-113397619D02*
X114860998Y-113397619D01*
X114860998Y-113397619D02*
X115013379Y-113366667D01*
X115013379Y-113366667D02*
X115089569Y-113335714D01*
X115089569Y-113335714D02*
X115165760Y-113273809D01*
X115165760Y-113273809D02*
X115203855Y-113180952D01*
X115203855Y-113180952D02*
X115203855Y-113026190D01*
X116025760Y-120726190D02*
X116063855Y-120819047D01*
X116063855Y-120819047D02*
X116063855Y-120973809D01*
X116063855Y-120973809D02*
X116025760Y-121035714D01*
X116025760Y-121035714D02*
X115987664Y-121066666D01*
X115987664Y-121066666D02*
X115911474Y-121097619D01*
X115911474Y-121097619D02*
X115835283Y-121097619D01*
X115835283Y-121097619D02*
X115759093Y-121066666D01*
X115759093Y-121066666D02*
X115720998Y-121035714D01*
X115720998Y-121035714D02*
X115682902Y-120973809D01*
X115682902Y-120973809D02*
X115644807Y-120850000D01*
X115644807Y-120850000D02*
X115606712Y-120788095D01*
X115606712Y-120788095D02*
X115568617Y-120757142D01*
X115568617Y-120757142D02*
X115492426Y-120726190D01*
X115492426Y-120726190D02*
X115416236Y-120726190D01*
X115416236Y-120726190D02*
X115340045Y-120757142D01*
X115340045Y-120757142D02*
X115301950Y-120788095D01*
X115301950Y-120788095D02*
X115263855Y-120850000D01*
X115263855Y-120850000D02*
X115263855Y-121004761D01*
X115263855Y-121004761D02*
X115301950Y-121097619D01*
X115987664Y-121747619D02*
X116025760Y-121716667D01*
X116025760Y-121716667D02*
X116063855Y-121623809D01*
X116063855Y-121623809D02*
X116063855Y-121561905D01*
X116063855Y-121561905D02*
X116025760Y-121469048D01*
X116025760Y-121469048D02*
X115949569Y-121407143D01*
X115949569Y-121407143D02*
X115873379Y-121376190D01*
X115873379Y-121376190D02*
X115720998Y-121345238D01*
X115720998Y-121345238D02*
X115606712Y-121345238D01*
X115606712Y-121345238D02*
X115454331Y-121376190D01*
X115454331Y-121376190D02*
X115378140Y-121407143D01*
X115378140Y-121407143D02*
X115301950Y-121469048D01*
X115301950Y-121469048D02*
X115263855Y-121561905D01*
X115263855Y-121561905D02*
X115263855Y-121623809D01*
X115263855Y-121623809D02*
X115301950Y-121716667D01*
X115301950Y-121716667D02*
X115340045Y-121747619D01*
X116063855Y-122335714D02*
X116063855Y-122026190D01*
X116063855Y-122026190D02*
X115263855Y-122026190D01*
X117743855Y-112020237D02*
X116943855Y-112020237D01*
X116943855Y-112020237D02*
X116943855Y-112174999D01*
X116943855Y-112174999D02*
X116981950Y-112267856D01*
X116981950Y-112267856D02*
X117058140Y-112329761D01*
X117058140Y-112329761D02*
X117134331Y-112360714D01*
X117134331Y-112360714D02*
X117286712Y-112391666D01*
X117286712Y-112391666D02*
X117400998Y-112391666D01*
X117400998Y-112391666D02*
X117553379Y-112360714D01*
X117553379Y-112360714D02*
X117629569Y-112329761D01*
X117629569Y-112329761D02*
X117705760Y-112267856D01*
X117705760Y-112267856D02*
X117743855Y-112174999D01*
X117743855Y-112174999D02*
X117743855Y-112020237D01*
X116943855Y-112794047D02*
X116943855Y-112855952D01*
X116943855Y-112855952D02*
X116981950Y-112917856D01*
X116981950Y-112917856D02*
X117020045Y-112948809D01*
X117020045Y-112948809D02*
X117096236Y-112979761D01*
X117096236Y-112979761D02*
X117248617Y-113010714D01*
X117248617Y-113010714D02*
X117439093Y-113010714D01*
X117439093Y-113010714D02*
X117591474Y-112979761D01*
X117591474Y-112979761D02*
X117667664Y-112948809D01*
X117667664Y-112948809D02*
X117705760Y-112917856D01*
X117705760Y-112917856D02*
X117743855Y-112855952D01*
X117743855Y-112855952D02*
X117743855Y-112794047D01*
X117743855Y-112794047D02*
X117705760Y-112732142D01*
X117705760Y-112732142D02*
X117667664Y-112701190D01*
X117667664Y-112701190D02*
X117591474Y-112670237D01*
X117591474Y-112670237D02*
X117439093Y-112639285D01*
X117439093Y-112639285D02*
X117248617Y-112639285D01*
X117248617Y-112639285D02*
X117096236Y-112670237D01*
X117096236Y-112670237D02*
X117020045Y-112701190D01*
X117020045Y-112701190D02*
X116981950Y-112732142D01*
X116981950Y-112732142D02*
X116943855Y-112794047D01*
X117841950Y-121004762D02*
X117803855Y-120942857D01*
X117803855Y-120942857D02*
X117803855Y-120850000D01*
X117803855Y-120850000D02*
X117841950Y-120757143D01*
X117841950Y-120757143D02*
X117918140Y-120695238D01*
X117918140Y-120695238D02*
X117994331Y-120664285D01*
X117994331Y-120664285D02*
X118146712Y-120633333D01*
X118146712Y-120633333D02*
X118260998Y-120633333D01*
X118260998Y-120633333D02*
X118413379Y-120664285D01*
X118413379Y-120664285D02*
X118489569Y-120695238D01*
X118489569Y-120695238D02*
X118565760Y-120757143D01*
X118565760Y-120757143D02*
X118603855Y-120850000D01*
X118603855Y-120850000D02*
X118603855Y-120911904D01*
X118603855Y-120911904D02*
X118565760Y-121004762D01*
X118565760Y-121004762D02*
X118527664Y-121035714D01*
X118527664Y-121035714D02*
X118260998Y-121035714D01*
X118260998Y-121035714D02*
X118260998Y-120911904D01*
X118603855Y-121314285D02*
X117803855Y-121314285D01*
X117803855Y-121314285D02*
X118603855Y-121685714D01*
X118603855Y-121685714D02*
X117803855Y-121685714D01*
X118603855Y-121995237D02*
X117803855Y-121995237D01*
X117803855Y-121995237D02*
X117803855Y-122149999D01*
X117803855Y-122149999D02*
X117841950Y-122242856D01*
X117841950Y-122242856D02*
X117918140Y-122304761D01*
X117918140Y-122304761D02*
X117994331Y-122335714D01*
X117994331Y-122335714D02*
X118146712Y-122366666D01*
X118146712Y-122366666D02*
X118260998Y-122366666D01*
X118260998Y-122366666D02*
X118413379Y-122335714D01*
X118413379Y-122335714D02*
X118489569Y-122304761D01*
X118489569Y-122304761D02*
X118565760Y-122242856D01*
X118565760Y-122242856D02*
X118603855Y-122149999D01*
X118603855Y-122149999D02*
X118603855Y-121995237D01*
X120207664Y-112113095D02*
X120245760Y-112082143D01*
X120245760Y-112082143D02*
X120283855Y-111989285D01*
X120283855Y-111989285D02*
X120283855Y-111927381D01*
X120283855Y-111927381D02*
X120245760Y-111834524D01*
X120245760Y-111834524D02*
X120169569Y-111772619D01*
X120169569Y-111772619D02*
X120093379Y-111741666D01*
X120093379Y-111741666D02*
X119940998Y-111710714D01*
X119940998Y-111710714D02*
X119826712Y-111710714D01*
X119826712Y-111710714D02*
X119674331Y-111741666D01*
X119674331Y-111741666D02*
X119598140Y-111772619D01*
X119598140Y-111772619D02*
X119521950Y-111834524D01*
X119521950Y-111834524D02*
X119483855Y-111927381D01*
X119483855Y-111927381D02*
X119483855Y-111989285D01*
X119483855Y-111989285D02*
X119521950Y-112082143D01*
X119521950Y-112082143D02*
X119560045Y-112113095D01*
X120283855Y-112701190D02*
X120283855Y-112391666D01*
X120283855Y-112391666D02*
X119483855Y-112391666D01*
X120283855Y-112917856D02*
X119483855Y-112917856D01*
X120283855Y-113289285D02*
X119826712Y-113010714D01*
X119483855Y-113289285D02*
X119940998Y-112917856D01*
X120343855Y-120710714D02*
X120343855Y-121113095D01*
X120343855Y-121113095D02*
X120648617Y-120896428D01*
X120648617Y-120896428D02*
X120648617Y-120989285D01*
X120648617Y-120989285D02*
X120686712Y-121051190D01*
X120686712Y-121051190D02*
X120724807Y-121082142D01*
X120724807Y-121082142D02*
X120800998Y-121113095D01*
X120800998Y-121113095D02*
X120991474Y-121113095D01*
X120991474Y-121113095D02*
X121067664Y-121082142D01*
X121067664Y-121082142D02*
X121105760Y-121051190D01*
X121105760Y-121051190D02*
X121143855Y-120989285D01*
X121143855Y-120989285D02*
X121143855Y-120803571D01*
X121143855Y-120803571D02*
X121105760Y-120741666D01*
X121105760Y-120741666D02*
X121067664Y-120710714D01*
X120343855Y-121298809D02*
X121143855Y-121515476D01*
X121143855Y-121515476D02*
X120343855Y-121732143D01*
X121143855Y-122041667D02*
X121105760Y-121979762D01*
X121105760Y-121979762D02*
X121067664Y-121948809D01*
X121067664Y-121948809D02*
X120991474Y-121917857D01*
X120991474Y-121917857D02*
X120762902Y-121917857D01*
X120762902Y-121917857D02*
X120686712Y-121948809D01*
X120686712Y-121948809D02*
X120648617Y-121979762D01*
X120648617Y-121979762D02*
X120610521Y-122041667D01*
X120610521Y-122041667D02*
X120610521Y-122134524D01*
X120610521Y-122134524D02*
X120648617Y-122196428D01*
X120648617Y-122196428D02*
X120686712Y-122227381D01*
X120686712Y-122227381D02*
X120762902Y-122258333D01*
X120762902Y-122258333D02*
X120991474Y-122258333D01*
X120991474Y-122258333D02*
X121067664Y-122227381D01*
X121067664Y-122227381D02*
X121105760Y-122196428D01*
X121105760Y-122196428D02*
X121143855Y-122134524D01*
X121143855Y-122134524D02*
X121143855Y-122041667D01*
X121944807Y-104520238D02*
X121982902Y-104613095D01*
X121982902Y-104613095D02*
X122020998Y-104644048D01*
X122020998Y-104644048D02*
X122097188Y-104675000D01*
X122097188Y-104675000D02*
X122211474Y-104675000D01*
X122211474Y-104675000D02*
X122287664Y-104644048D01*
X122287664Y-104644048D02*
X122325760Y-104613095D01*
X122325760Y-104613095D02*
X122363855Y-104551190D01*
X122363855Y-104551190D02*
X122363855Y-104303571D01*
X122363855Y-104303571D02*
X121563855Y-104303571D01*
X121563855Y-104303571D02*
X121563855Y-104520238D01*
X121563855Y-104520238D02*
X121601950Y-104582143D01*
X121601950Y-104582143D02*
X121640045Y-104613095D01*
X121640045Y-104613095D02*
X121716236Y-104644048D01*
X121716236Y-104644048D02*
X121792426Y-104644048D01*
X121792426Y-104644048D02*
X121868617Y-104613095D01*
X121868617Y-104613095D02*
X121906712Y-104582143D01*
X121906712Y-104582143D02*
X121944807Y-104520238D01*
X121944807Y-104520238D02*
X121944807Y-104303571D01*
X122135283Y-104922619D02*
X122135283Y-105232143D01*
X122363855Y-104860714D02*
X121563855Y-105077381D01*
X121563855Y-105077381D02*
X122363855Y-105294048D01*
X121563855Y-105417857D02*
X121563855Y-105789286D01*
X122363855Y-105603572D02*
X121563855Y-105603572D01*
X122061950Y-112004762D02*
X122023855Y-111942857D01*
X122023855Y-111942857D02*
X122023855Y-111850000D01*
X122023855Y-111850000D02*
X122061950Y-111757143D01*
X122061950Y-111757143D02*
X122138140Y-111695238D01*
X122138140Y-111695238D02*
X122214331Y-111664285D01*
X122214331Y-111664285D02*
X122366712Y-111633333D01*
X122366712Y-111633333D02*
X122480998Y-111633333D01*
X122480998Y-111633333D02*
X122633379Y-111664285D01*
X122633379Y-111664285D02*
X122709569Y-111695238D01*
X122709569Y-111695238D02*
X122785760Y-111757143D01*
X122785760Y-111757143D02*
X122823855Y-111850000D01*
X122823855Y-111850000D02*
X122823855Y-111911904D01*
X122823855Y-111911904D02*
X122785760Y-112004762D01*
X122785760Y-112004762D02*
X122747664Y-112035714D01*
X122747664Y-112035714D02*
X122480998Y-112035714D01*
X122480998Y-112035714D02*
X122480998Y-111911904D01*
X122823855Y-112314285D02*
X122023855Y-112314285D01*
X122023855Y-112314285D02*
X122823855Y-112685714D01*
X122823855Y-112685714D02*
X122023855Y-112685714D01*
X122823855Y-112995237D02*
X122023855Y-112995237D01*
X122023855Y-112995237D02*
X122023855Y-113149999D01*
X122023855Y-113149999D02*
X122061950Y-113242856D01*
X122061950Y-113242856D02*
X122138140Y-113304761D01*
X122138140Y-113304761D02*
X122214331Y-113335714D01*
X122214331Y-113335714D02*
X122366712Y-113366666D01*
X122366712Y-113366666D02*
X122480998Y-113366666D01*
X122480998Y-113366666D02*
X122633379Y-113335714D01*
X122633379Y-113335714D02*
X122709569Y-113304761D01*
X122709569Y-113304761D02*
X122785760Y-113242856D01*
X122785760Y-113242856D02*
X122823855Y-113149999D01*
X122823855Y-113149999D02*
X122823855Y-112995237D01*
X122883855Y-120834523D02*
X123683855Y-121051190D01*
X123683855Y-121051190D02*
X122883855Y-121267857D01*
X123683855Y-121484523D02*
X123150521Y-121484523D01*
X122883855Y-121484523D02*
X122921950Y-121453571D01*
X122921950Y-121453571D02*
X122960045Y-121484523D01*
X122960045Y-121484523D02*
X122921950Y-121515476D01*
X122921950Y-121515476D02*
X122883855Y-121484523D01*
X122883855Y-121484523D02*
X122960045Y-121484523D01*
X123150521Y-121794047D02*
X123683855Y-121794047D01*
X123226712Y-121794047D02*
X123188617Y-121825000D01*
X123188617Y-121825000D02*
X123150521Y-121886905D01*
X123150521Y-121886905D02*
X123150521Y-121979762D01*
X123150521Y-121979762D02*
X123188617Y-122041666D01*
X123188617Y-122041666D02*
X123264807Y-122072619D01*
X123264807Y-122072619D02*
X123683855Y-122072619D01*
X124865760Y-104442857D02*
X124903855Y-104535714D01*
X124903855Y-104535714D02*
X124903855Y-104690476D01*
X124903855Y-104690476D02*
X124865760Y-104752381D01*
X124865760Y-104752381D02*
X124827664Y-104783333D01*
X124827664Y-104783333D02*
X124751474Y-104814286D01*
X124751474Y-104814286D02*
X124675283Y-104814286D01*
X124675283Y-104814286D02*
X124599093Y-104783333D01*
X124599093Y-104783333D02*
X124560998Y-104752381D01*
X124560998Y-104752381D02*
X124522902Y-104690476D01*
X124522902Y-104690476D02*
X124484807Y-104566667D01*
X124484807Y-104566667D02*
X124446712Y-104504762D01*
X124446712Y-104504762D02*
X124408617Y-104473809D01*
X124408617Y-104473809D02*
X124332426Y-104442857D01*
X124332426Y-104442857D02*
X124256236Y-104442857D01*
X124256236Y-104442857D02*
X124180045Y-104473809D01*
X124180045Y-104473809D02*
X124141950Y-104504762D01*
X124141950Y-104504762D02*
X124103855Y-104566667D01*
X124103855Y-104566667D02*
X124103855Y-104721428D01*
X124103855Y-104721428D02*
X124141950Y-104814286D01*
X124103855Y-105030953D02*
X124903855Y-105185715D01*
X124903855Y-105185715D02*
X124332426Y-105309524D01*
X124332426Y-105309524D02*
X124903855Y-105433334D01*
X124903855Y-105433334D02*
X124103855Y-105588096D01*
X124563855Y-112004762D02*
X124563855Y-112407143D01*
X124563855Y-112407143D02*
X124868617Y-112190476D01*
X124868617Y-112190476D02*
X124868617Y-112283333D01*
X124868617Y-112283333D02*
X124906712Y-112345238D01*
X124906712Y-112345238D02*
X124944807Y-112376190D01*
X124944807Y-112376190D02*
X125020998Y-112407143D01*
X125020998Y-112407143D02*
X125211474Y-112407143D01*
X125211474Y-112407143D02*
X125287664Y-112376190D01*
X125287664Y-112376190D02*
X125325760Y-112345238D01*
X125325760Y-112345238D02*
X125363855Y-112283333D01*
X125363855Y-112283333D02*
X125363855Y-112097619D01*
X125363855Y-112097619D02*
X125325760Y-112035714D01*
X125325760Y-112035714D02*
X125287664Y-112004762D01*
X124563855Y-112592857D02*
X125363855Y-112809524D01*
X125363855Y-112809524D02*
X124563855Y-113026191D01*
X139059093Y-104752380D02*
X139059093Y-105247619D01*
X141599093Y-104752380D02*
X141599093Y-105247619D01*
X141903855Y-104999999D02*
X141294331Y-104999999D01*
X152363855Y-104520237D02*
X151563855Y-104520237D01*
X151563855Y-104520237D02*
X151563855Y-104674999D01*
X151563855Y-104674999D02*
X151601950Y-104767856D01*
X151601950Y-104767856D02*
X151678140Y-104829761D01*
X151678140Y-104829761D02*
X151754331Y-104860714D01*
X151754331Y-104860714D02*
X151906712Y-104891666D01*
X151906712Y-104891666D02*
X152020998Y-104891666D01*
X152020998Y-104891666D02*
X152173379Y-104860714D01*
X152173379Y-104860714D02*
X152249569Y-104829761D01*
X152249569Y-104829761D02*
X152325760Y-104767856D01*
X152325760Y-104767856D02*
X152363855Y-104674999D01*
X152363855Y-104674999D02*
X152363855Y-104520237D01*
X151563855Y-105294047D02*
X151563855Y-105355952D01*
X151563855Y-105355952D02*
X151601950Y-105417856D01*
X151601950Y-105417856D02*
X151640045Y-105448809D01*
X151640045Y-105448809D02*
X151716236Y-105479761D01*
X151716236Y-105479761D02*
X151868617Y-105510714D01*
X151868617Y-105510714D02*
X152059093Y-105510714D01*
X152059093Y-105510714D02*
X152211474Y-105479761D01*
X152211474Y-105479761D02*
X152287664Y-105448809D01*
X152287664Y-105448809D02*
X152325760Y-105417856D01*
X152325760Y-105417856D02*
X152363855Y-105355952D01*
X152363855Y-105355952D02*
X152363855Y-105294047D01*
X152363855Y-105294047D02*
X152325760Y-105232142D01*
X152325760Y-105232142D02*
X152287664Y-105201190D01*
X152287664Y-105201190D02*
X152211474Y-105170237D01*
X152211474Y-105170237D02*
X152059093Y-105139285D01*
X152059093Y-105139285D02*
X151868617Y-105139285D01*
X151868617Y-105139285D02*
X151716236Y-105170237D01*
X151716236Y-105170237D02*
X151640045Y-105201190D01*
X151640045Y-105201190D02*
X151601950Y-105232142D01*
X151601950Y-105232142D02*
X151563855Y-105294047D01*
X154903855Y-104520237D02*
X154103855Y-104520237D01*
X154103855Y-104520237D02*
X154103855Y-104674999D01*
X154103855Y-104674999D02*
X154141950Y-104767856D01*
X154141950Y-104767856D02*
X154218140Y-104829761D01*
X154218140Y-104829761D02*
X154294331Y-104860714D01*
X154294331Y-104860714D02*
X154446712Y-104891666D01*
X154446712Y-104891666D02*
X154560998Y-104891666D01*
X154560998Y-104891666D02*
X154713379Y-104860714D01*
X154713379Y-104860714D02*
X154789569Y-104829761D01*
X154789569Y-104829761D02*
X154865760Y-104767856D01*
X154865760Y-104767856D02*
X154903855Y-104674999D01*
X154903855Y-104674999D02*
X154903855Y-104520237D01*
X154903855Y-105510714D02*
X154903855Y-105139285D01*
X154903855Y-105324999D02*
X154103855Y-105324999D01*
X154103855Y-105324999D02*
X154218140Y-105263095D01*
X154218140Y-105263095D02*
X154294331Y-105201190D01*
X154294331Y-105201190D02*
X154332426Y-105139285D01*
X157443855Y-104520237D02*
X156643855Y-104520237D01*
X156643855Y-104520237D02*
X156643855Y-104674999D01*
X156643855Y-104674999D02*
X156681950Y-104767856D01*
X156681950Y-104767856D02*
X156758140Y-104829761D01*
X156758140Y-104829761D02*
X156834331Y-104860714D01*
X156834331Y-104860714D02*
X156986712Y-104891666D01*
X156986712Y-104891666D02*
X157100998Y-104891666D01*
X157100998Y-104891666D02*
X157253379Y-104860714D01*
X157253379Y-104860714D02*
X157329569Y-104829761D01*
X157329569Y-104829761D02*
X157405760Y-104767856D01*
X157405760Y-104767856D02*
X157443855Y-104674999D01*
X157443855Y-104674999D02*
X157443855Y-104520237D01*
X156720045Y-105139285D02*
X156681950Y-105170237D01*
X156681950Y-105170237D02*
X156643855Y-105232142D01*
X156643855Y-105232142D02*
X156643855Y-105386904D01*
X156643855Y-105386904D02*
X156681950Y-105448809D01*
X156681950Y-105448809D02*
X156720045Y-105479761D01*
X156720045Y-105479761D02*
X156796236Y-105510714D01*
X156796236Y-105510714D02*
X156872426Y-105510714D01*
X156872426Y-105510714D02*
X156986712Y-105479761D01*
X156986712Y-105479761D02*
X157443855Y-105108333D01*
X157443855Y-105108333D02*
X157443855Y-105510714D01*
X159983855Y-104520237D02*
X159183855Y-104520237D01*
X159183855Y-104520237D02*
X159183855Y-104674999D01*
X159183855Y-104674999D02*
X159221950Y-104767856D01*
X159221950Y-104767856D02*
X159298140Y-104829761D01*
X159298140Y-104829761D02*
X159374331Y-104860714D01*
X159374331Y-104860714D02*
X159526712Y-104891666D01*
X159526712Y-104891666D02*
X159640998Y-104891666D01*
X159640998Y-104891666D02*
X159793379Y-104860714D01*
X159793379Y-104860714D02*
X159869569Y-104829761D01*
X159869569Y-104829761D02*
X159945760Y-104767856D01*
X159945760Y-104767856D02*
X159983855Y-104674999D01*
X159983855Y-104674999D02*
X159983855Y-104520237D01*
X159183855Y-105108333D02*
X159183855Y-105510714D01*
X159183855Y-105510714D02*
X159488617Y-105294047D01*
X159488617Y-105294047D02*
X159488617Y-105386904D01*
X159488617Y-105386904D02*
X159526712Y-105448809D01*
X159526712Y-105448809D02*
X159564807Y-105479761D01*
X159564807Y-105479761D02*
X159640998Y-105510714D01*
X159640998Y-105510714D02*
X159831474Y-105510714D01*
X159831474Y-105510714D02*
X159907664Y-105479761D01*
X159907664Y-105479761D02*
X159945760Y-105448809D01*
X159945760Y-105448809D02*
X159983855Y-105386904D01*
X159983855Y-105386904D02*
X159983855Y-105201190D01*
X159983855Y-105201190D02*
X159945760Y-105139285D01*
X159945760Y-105139285D02*
X159907664Y-105108333D01*
X162523855Y-104520237D02*
X161723855Y-104520237D01*
X161723855Y-104520237D02*
X161723855Y-104674999D01*
X161723855Y-104674999D02*
X161761950Y-104767856D01*
X161761950Y-104767856D02*
X161838140Y-104829761D01*
X161838140Y-104829761D02*
X161914331Y-104860714D01*
X161914331Y-104860714D02*
X162066712Y-104891666D01*
X162066712Y-104891666D02*
X162180998Y-104891666D01*
X162180998Y-104891666D02*
X162333379Y-104860714D01*
X162333379Y-104860714D02*
X162409569Y-104829761D01*
X162409569Y-104829761D02*
X162485760Y-104767856D01*
X162485760Y-104767856D02*
X162523855Y-104674999D01*
X162523855Y-104674999D02*
X162523855Y-104520237D01*
X161723855Y-105448809D02*
X161723855Y-105324999D01*
X161723855Y-105324999D02*
X161761950Y-105263095D01*
X161761950Y-105263095D02*
X161800045Y-105232142D01*
X161800045Y-105232142D02*
X161914331Y-105170237D01*
X161914331Y-105170237D02*
X162066712Y-105139285D01*
X162066712Y-105139285D02*
X162371474Y-105139285D01*
X162371474Y-105139285D02*
X162447664Y-105170237D01*
X162447664Y-105170237D02*
X162485760Y-105201190D01*
X162485760Y-105201190D02*
X162523855Y-105263095D01*
X162523855Y-105263095D02*
X162523855Y-105386904D01*
X162523855Y-105386904D02*
X162485760Y-105448809D01*
X162485760Y-105448809D02*
X162447664Y-105479761D01*
X162447664Y-105479761D02*
X162371474Y-105510714D01*
X162371474Y-105510714D02*
X162180998Y-105510714D01*
X162180998Y-105510714D02*
X162104807Y-105479761D01*
X162104807Y-105479761D02*
X162066712Y-105448809D01*
X162066712Y-105448809D02*
X162028617Y-105386904D01*
X162028617Y-105386904D02*
X162028617Y-105263095D01*
X162028617Y-105263095D02*
X162066712Y-105201190D01*
X162066712Y-105201190D02*
X162104807Y-105170237D01*
X162104807Y-105170237D02*
X162180998Y-105139285D01*
X165063855Y-104520237D02*
X164263855Y-104520237D01*
X164263855Y-104520237D02*
X164263855Y-104674999D01*
X164263855Y-104674999D02*
X164301950Y-104767856D01*
X164301950Y-104767856D02*
X164378140Y-104829761D01*
X164378140Y-104829761D02*
X164454331Y-104860714D01*
X164454331Y-104860714D02*
X164606712Y-104891666D01*
X164606712Y-104891666D02*
X164720998Y-104891666D01*
X164720998Y-104891666D02*
X164873379Y-104860714D01*
X164873379Y-104860714D02*
X164949569Y-104829761D01*
X164949569Y-104829761D02*
X165025760Y-104767856D01*
X165025760Y-104767856D02*
X165063855Y-104674999D01*
X165063855Y-104674999D02*
X165063855Y-104520237D01*
X164263855Y-105108333D02*
X164263855Y-105541666D01*
X164263855Y-105541666D02*
X165063855Y-105263095D01*
X166803855Y-104195238D02*
X166803855Y-104597619D01*
X166803855Y-104597619D02*
X167108617Y-104380952D01*
X167108617Y-104380952D02*
X167108617Y-104473809D01*
X167108617Y-104473809D02*
X167146712Y-104535714D01*
X167146712Y-104535714D02*
X167184807Y-104566666D01*
X167184807Y-104566666D02*
X167260998Y-104597619D01*
X167260998Y-104597619D02*
X167451474Y-104597619D01*
X167451474Y-104597619D02*
X167527664Y-104566666D01*
X167527664Y-104566666D02*
X167565760Y-104535714D01*
X167565760Y-104535714D02*
X167603855Y-104473809D01*
X167603855Y-104473809D02*
X167603855Y-104288095D01*
X167603855Y-104288095D02*
X167565760Y-104226190D01*
X167565760Y-104226190D02*
X167527664Y-104195238D01*
X166803855Y-104783333D02*
X167603855Y-105000000D01*
X167603855Y-105000000D02*
X166803855Y-105216667D01*
X166803855Y-105371429D02*
X166803855Y-105773810D01*
X166803855Y-105773810D02*
X167108617Y-105557143D01*
X167108617Y-105557143D02*
X167108617Y-105650000D01*
X167108617Y-105650000D02*
X167146712Y-105711905D01*
X167146712Y-105711905D02*
X167184807Y-105742857D01*
X167184807Y-105742857D02*
X167260998Y-105773810D01*
X167260998Y-105773810D02*
X167451474Y-105773810D01*
X167451474Y-105773810D02*
X167527664Y-105742857D01*
X167527664Y-105742857D02*
X167565760Y-105711905D01*
X167565760Y-105711905D02*
X167603855Y-105650000D01*
X167603855Y-105650000D02*
X167603855Y-105464286D01*
X167603855Y-105464286D02*
X167565760Y-105402381D01*
X167565760Y-105402381D02*
X167527664Y-105371429D01*
X169381950Y-104504762D02*
X169343855Y-104442857D01*
X169343855Y-104442857D02*
X169343855Y-104350000D01*
X169343855Y-104350000D02*
X169381950Y-104257143D01*
X169381950Y-104257143D02*
X169458140Y-104195238D01*
X169458140Y-104195238D02*
X169534331Y-104164285D01*
X169534331Y-104164285D02*
X169686712Y-104133333D01*
X169686712Y-104133333D02*
X169800998Y-104133333D01*
X169800998Y-104133333D02*
X169953379Y-104164285D01*
X169953379Y-104164285D02*
X170029569Y-104195238D01*
X170029569Y-104195238D02*
X170105760Y-104257143D01*
X170105760Y-104257143D02*
X170143855Y-104350000D01*
X170143855Y-104350000D02*
X170143855Y-104411904D01*
X170143855Y-104411904D02*
X170105760Y-104504762D01*
X170105760Y-104504762D02*
X170067664Y-104535714D01*
X170067664Y-104535714D02*
X169800998Y-104535714D01*
X169800998Y-104535714D02*
X169800998Y-104411904D01*
X170143855Y-104814285D02*
X169343855Y-104814285D01*
X169343855Y-104814285D02*
X170143855Y-105185714D01*
X170143855Y-105185714D02*
X169343855Y-105185714D01*
X170143855Y-105495237D02*
X169343855Y-105495237D01*
X169343855Y-105495237D02*
X169343855Y-105649999D01*
X169343855Y-105649999D02*
X169381950Y-105742856D01*
X169381950Y-105742856D02*
X169458140Y-105804761D01*
X169458140Y-105804761D02*
X169534331Y-105835714D01*
X169534331Y-105835714D02*
X169686712Y-105866666D01*
X169686712Y-105866666D02*
X169800998Y-105866666D01*
X169800998Y-105866666D02*
X169953379Y-105835714D01*
X169953379Y-105835714D02*
X170029569Y-105804761D01*
X170029569Y-105804761D02*
X170105760Y-105742856D01*
X170105760Y-105742856D02*
X170143855Y-105649999D01*
X170143855Y-105649999D02*
X170143855Y-105495237D01*
D11*
X112928571Y-114680928D02*
X112928571Y-113180928D01*
X112928571Y-113180928D02*
X112428571Y-114252357D01*
X112428571Y-114252357D02*
X111928571Y-113180928D01*
X111928571Y-113180928D02*
X111928571Y-114680928D01*
X110571428Y-114680928D02*
X110571428Y-113895214D01*
X110571428Y-113895214D02*
X110642856Y-113752357D01*
X110642856Y-113752357D02*
X110785713Y-113680928D01*
X110785713Y-113680928D02*
X111071428Y-113680928D01*
X111071428Y-113680928D02*
X111214285Y-113752357D01*
X110571428Y-114609500D02*
X110714285Y-114680928D01*
X110714285Y-114680928D02*
X111071428Y-114680928D01*
X111071428Y-114680928D02*
X111214285Y-114609500D01*
X111214285Y-114609500D02*
X111285713Y-114466642D01*
X111285713Y-114466642D02*
X111285713Y-114323785D01*
X111285713Y-114323785D02*
X111214285Y-114180928D01*
X111214285Y-114180928D02*
X111071428Y-114109500D01*
X111071428Y-114109500D02*
X110714285Y-114109500D01*
X110714285Y-114109500D02*
X110571428Y-114038071D01*
X109214285Y-114680928D02*
X109214285Y-113180928D01*
X109214285Y-114609500D02*
X109357142Y-114680928D01*
X109357142Y-114680928D02*
X109642856Y-114680928D01*
X109642856Y-114680928D02*
X109785713Y-114609500D01*
X109785713Y-114609500D02*
X109857142Y-114538071D01*
X109857142Y-114538071D02*
X109928570Y-114395214D01*
X109928570Y-114395214D02*
X109928570Y-113966642D01*
X109928570Y-113966642D02*
X109857142Y-113823785D01*
X109857142Y-113823785D02*
X109785713Y-113752357D01*
X109785713Y-113752357D02*
X109642856Y-113680928D01*
X109642856Y-113680928D02*
X109357142Y-113680928D01*
X109357142Y-113680928D02*
X109214285Y-113752357D01*
X107928570Y-114609500D02*
X108071427Y-114680928D01*
X108071427Y-114680928D02*
X108357142Y-114680928D01*
X108357142Y-114680928D02*
X108499999Y-114609500D01*
X108499999Y-114609500D02*
X108571427Y-114466642D01*
X108571427Y-114466642D02*
X108571427Y-113895214D01*
X108571427Y-113895214D02*
X108499999Y-113752357D01*
X108499999Y-113752357D02*
X108357142Y-113680928D01*
X108357142Y-113680928D02*
X108071427Y-113680928D01*
X108071427Y-113680928D02*
X107928570Y-113752357D01*
X107928570Y-113752357D02*
X107857142Y-113895214D01*
X107857142Y-113895214D02*
X107857142Y-114038071D01*
X107857142Y-114038071D02*
X108571427Y-114180928D01*
X105857142Y-114680928D02*
X105999999Y-114609500D01*
X105999999Y-114609500D02*
X106071428Y-114538071D01*
X106071428Y-114538071D02*
X106142856Y-114395214D01*
X106142856Y-114395214D02*
X106142856Y-113966642D01*
X106142856Y-113966642D02*
X106071428Y-113823785D01*
X106071428Y-113823785D02*
X105999999Y-113752357D01*
X105999999Y-113752357D02*
X105857142Y-113680928D01*
X105857142Y-113680928D02*
X105642856Y-113680928D01*
X105642856Y-113680928D02*
X105499999Y-113752357D01*
X105499999Y-113752357D02*
X105428571Y-113823785D01*
X105428571Y-113823785D02*
X105357142Y-113966642D01*
X105357142Y-113966642D02*
X105357142Y-114395214D01*
X105357142Y-114395214D02*
X105428571Y-114538071D01*
X105428571Y-114538071D02*
X105499999Y-114609500D01*
X105499999Y-114609500D02*
X105642856Y-114680928D01*
X105642856Y-114680928D02*
X105857142Y-114680928D01*
X104714285Y-113680928D02*
X104714285Y-114680928D01*
X104714285Y-113823785D02*
X104642856Y-113752357D01*
X104642856Y-113752357D02*
X104499999Y-113680928D01*
X104499999Y-113680928D02*
X104285713Y-113680928D01*
X104285713Y-113680928D02*
X104142856Y-113752357D01*
X104142856Y-113752357D02*
X104071428Y-113895214D01*
X104071428Y-113895214D02*
X104071428Y-114680928D01*
X102214285Y-113895214D02*
X101714285Y-113895214D01*
X101499999Y-114680928D02*
X102214285Y-114680928D01*
X102214285Y-114680928D02*
X102214285Y-113180928D01*
X102214285Y-113180928D02*
X101499999Y-113180928D01*
X100214285Y-114680928D02*
X100214285Y-113895214D01*
X100214285Y-113895214D02*
X100285713Y-113752357D01*
X100285713Y-113752357D02*
X100428570Y-113680928D01*
X100428570Y-113680928D02*
X100714285Y-113680928D01*
X100714285Y-113680928D02*
X100857142Y-113752357D01*
X100214285Y-114609500D02*
X100357142Y-114680928D01*
X100357142Y-114680928D02*
X100714285Y-114680928D01*
X100714285Y-114680928D02*
X100857142Y-114609500D01*
X100857142Y-114609500D02*
X100928570Y-114466642D01*
X100928570Y-114466642D02*
X100928570Y-114323785D01*
X100928570Y-114323785D02*
X100857142Y-114180928D01*
X100857142Y-114180928D02*
X100714285Y-114109500D01*
X100714285Y-114109500D02*
X100357142Y-114109500D01*
X100357142Y-114109500D02*
X100214285Y-114038071D01*
X99499999Y-114680928D02*
X99499999Y-113680928D01*
X99499999Y-113966642D02*
X99428570Y-113823785D01*
X99428570Y-113823785D02*
X99357142Y-113752357D01*
X99357142Y-113752357D02*
X99214284Y-113680928D01*
X99214284Y-113680928D02*
X99071427Y-113680928D01*
X98785713Y-113680928D02*
X98214285Y-113680928D01*
X98571428Y-113180928D02*
X98571428Y-114466642D01*
X98571428Y-114466642D02*
X98499999Y-114609500D01*
X98499999Y-114609500D02*
X98357142Y-114680928D01*
X98357142Y-114680928D02*
X98214285Y-114680928D01*
X97714285Y-114680928D02*
X97714285Y-113180928D01*
X97071428Y-114680928D02*
X97071428Y-113895214D01*
X97071428Y-113895214D02*
X97142856Y-113752357D01*
X97142856Y-113752357D02*
X97285713Y-113680928D01*
X97285713Y-113680928D02*
X97499999Y-113680928D01*
X97499999Y-113680928D02*
X97642856Y-113752357D01*
X97642856Y-113752357D02*
X97714285Y-113823785D01*
X112321428Y-117180928D02*
X112321428Y-115680928D01*
X112321428Y-116252357D02*
X112178571Y-116180928D01*
X112178571Y-116180928D02*
X111892856Y-116180928D01*
X111892856Y-116180928D02*
X111749999Y-116252357D01*
X111749999Y-116252357D02*
X111678571Y-116323785D01*
X111678571Y-116323785D02*
X111607142Y-116466642D01*
X111607142Y-116466642D02*
X111607142Y-116895214D01*
X111607142Y-116895214D02*
X111678571Y-117038071D01*
X111678571Y-117038071D02*
X111749999Y-117109500D01*
X111749999Y-117109500D02*
X111892856Y-117180928D01*
X111892856Y-117180928D02*
X112178571Y-117180928D01*
X112178571Y-117180928D02*
X112321428Y-117109500D01*
X111107142Y-116180928D02*
X110749999Y-117180928D01*
X110392856Y-116180928D02*
X110749999Y-117180928D01*
X110749999Y-117180928D02*
X110892856Y-117538071D01*
X110892856Y-117538071D02*
X110964285Y-117609500D01*
X110964285Y-117609500D02*
X111107142Y-117680928D01*
X108678571Y-117180928D02*
X108678571Y-115680928D01*
X108678571Y-115680928D02*
X108178571Y-116752357D01*
X108178571Y-116752357D02*
X107678571Y-115680928D01*
X107678571Y-115680928D02*
X107678571Y-117180928D01*
X106321428Y-116180928D02*
X106321428Y-117180928D01*
X106964285Y-116180928D02*
X106964285Y-116966642D01*
X106964285Y-116966642D02*
X106892856Y-117109500D01*
X106892856Y-117109500D02*
X106749999Y-117180928D01*
X106749999Y-117180928D02*
X106535713Y-117180928D01*
X106535713Y-117180928D02*
X106392856Y-117109500D01*
X106392856Y-117109500D02*
X106321428Y-117038071D01*
X105392856Y-117180928D02*
X105535713Y-117109500D01*
X105535713Y-117109500D02*
X105607142Y-116966642D01*
X105607142Y-116966642D02*
X105607142Y-115680928D01*
X105035713Y-116180928D02*
X104464285Y-116180928D01*
X104821428Y-115680928D02*
X104821428Y-116966642D01*
X104821428Y-116966642D02*
X104749999Y-117109500D01*
X104749999Y-117109500D02*
X104607142Y-117180928D01*
X104607142Y-117180928D02*
X104464285Y-117180928D01*
X103964285Y-117180928D02*
X103964285Y-116180928D01*
X103964285Y-115680928D02*
X104035713Y-115752357D01*
X104035713Y-115752357D02*
X103964285Y-115823785D01*
X103964285Y-115823785D02*
X103892856Y-115752357D01*
X103892856Y-115752357D02*
X103964285Y-115680928D01*
X103964285Y-115680928D02*
X103964285Y-115823785D01*
X103464284Y-116180928D02*
X102892856Y-116180928D01*
X103249999Y-115680928D02*
X103249999Y-116966642D01*
X103249999Y-116966642D02*
X103178570Y-117109500D01*
X103178570Y-117109500D02*
X103035713Y-117180928D01*
X103035713Y-117180928D02*
X102892856Y-117180928D01*
X101821427Y-117109500D02*
X101964284Y-117180928D01*
X101964284Y-117180928D02*
X102249999Y-117180928D01*
X102249999Y-117180928D02*
X102392856Y-117109500D01*
X102392856Y-117109500D02*
X102464284Y-116966642D01*
X102464284Y-116966642D02*
X102464284Y-116395214D01*
X102464284Y-116395214D02*
X102392856Y-116252357D01*
X102392856Y-116252357D02*
X102249999Y-116180928D01*
X102249999Y-116180928D02*
X101964284Y-116180928D01*
X101964284Y-116180928D02*
X101821427Y-116252357D01*
X101821427Y-116252357D02*
X101749999Y-116395214D01*
X101749999Y-116395214D02*
X101749999Y-116538071D01*
X101749999Y-116538071D02*
X102464284Y-116680928D01*
X100464285Y-117109500D02*
X100607142Y-117180928D01*
X100607142Y-117180928D02*
X100892856Y-117180928D01*
X100892856Y-117180928D02*
X101035713Y-117109500D01*
X101035713Y-117109500D02*
X101107142Y-117038071D01*
X101107142Y-117038071D02*
X101178570Y-116895214D01*
X101178570Y-116895214D02*
X101178570Y-116466642D01*
X101178570Y-116466642D02*
X101107142Y-116323785D01*
X101107142Y-116323785D02*
X101035713Y-116252357D01*
X101035713Y-116252357D02*
X100892856Y-116180928D01*
X100892856Y-116180928D02*
X100607142Y-116180928D01*
X100607142Y-116180928D02*
X100464285Y-116252357D01*
X99821428Y-115680928D02*
X99821428Y-116895214D01*
X99821428Y-116895214D02*
X99749999Y-117038071D01*
X99749999Y-117038071D02*
X99678571Y-117109500D01*
X99678571Y-117109500D02*
X99535713Y-117180928D01*
X99535713Y-117180928D02*
X99249999Y-117180928D01*
X99249999Y-117180928D02*
X99107142Y-117109500D01*
X99107142Y-117109500D02*
X99035713Y-117038071D01*
X99035713Y-117038071D02*
X98964285Y-116895214D01*
X98964285Y-116895214D02*
X98964285Y-115680928D01*
X98321427Y-116752357D02*
X97607142Y-116752357D01*
X98464284Y-117180928D02*
X97964284Y-115680928D01*
X97964284Y-115680928D02*
X97464284Y-117180928D01*
D12*
X126851904Y-118954819D02*
X126851904Y-119764342D01*
X126851904Y-119764342D02*
X126804285Y-119859580D01*
X126804285Y-119859580D02*
X126756666Y-119907200D01*
X126756666Y-119907200D02*
X126661428Y-119954819D01*
X126661428Y-119954819D02*
X126470952Y-119954819D01*
X126470952Y-119954819D02*
X126375714Y-119907200D01*
X126375714Y-119907200D02*
X126328095Y-119859580D01*
X126328095Y-119859580D02*
X126280476Y-119764342D01*
X126280476Y-119764342D02*
X126280476Y-118954819D01*
X125851904Y-119050057D02*
X125804285Y-119002438D01*
X125804285Y-119002438D02*
X125709047Y-118954819D01*
X125709047Y-118954819D02*
X125470952Y-118954819D01*
X125470952Y-118954819D02*
X125375714Y-119002438D01*
X125375714Y-119002438D02*
X125328095Y-119050057D01*
X125328095Y-119050057D02*
X125280476Y-119145295D01*
X125280476Y-119145295D02*
X125280476Y-119240533D01*
X125280476Y-119240533D02*
X125328095Y-119383390D01*
X125328095Y-119383390D02*
X125899523Y-119954819D01*
X125899523Y-119954819D02*
X125280476Y-119954819D01*
X145761904Y-103904819D02*
X145761904Y-104714342D01*
X145761904Y-104714342D02*
X145714285Y-104809580D01*
X145714285Y-104809580D02*
X145666666Y-104857200D01*
X145666666Y-104857200D02*
X145571428Y-104904819D01*
X145571428Y-104904819D02*
X145380952Y-104904819D01*
X145380952Y-104904819D02*
X145285714Y-104857200D01*
X145285714Y-104857200D02*
X145238095Y-104809580D01*
X145238095Y-104809580D02*
X145190476Y-104714342D01*
X145190476Y-104714342D02*
X145190476Y-103904819D01*
X144809523Y-103904819D02*
X144190476Y-103904819D01*
X144190476Y-103904819D02*
X144523809Y-104285771D01*
X144523809Y-104285771D02*
X144380952Y-104285771D01*
X144380952Y-104285771D02*
X144285714Y-104333390D01*
X144285714Y-104333390D02*
X144238095Y-104381009D01*
X144238095Y-104381009D02*
X144190476Y-104476247D01*
X144190476Y-104476247D02*
X144190476Y-104714342D01*
X144190476Y-104714342D02*
X144238095Y-104809580D01*
X144238095Y-104809580D02*
X144285714Y-104857200D01*
X144285714Y-104857200D02*
X144380952Y-104904819D01*
X144380952Y-104904819D02*
X144666666Y-104904819D01*
X144666666Y-104904819D02*
X144761904Y-104857200D01*
X144761904Y-104857200D02*
X144809523Y-104809580D01*
X128166666Y-105039580D02*
X128214285Y-105087200D01*
X128214285Y-105087200D02*
X128357142Y-105134819D01*
X128357142Y-105134819D02*
X128452380Y-105134819D01*
X128452380Y-105134819D02*
X128595237Y-105087200D01*
X128595237Y-105087200D02*
X128690475Y-104991961D01*
X128690475Y-104991961D02*
X128738094Y-104896723D01*
X128738094Y-104896723D02*
X128785713Y-104706247D01*
X128785713Y-104706247D02*
X128785713Y-104563390D01*
X128785713Y-104563390D02*
X128738094Y-104372914D01*
X128738094Y-104372914D02*
X128690475Y-104277676D01*
X128690475Y-104277676D02*
X128595237Y-104182438D01*
X128595237Y-104182438D02*
X128452380Y-104134819D01*
X128452380Y-104134819D02*
X128357142Y-104134819D01*
X128357142Y-104134819D02*
X128214285Y-104182438D01*
X128214285Y-104182438D02*
X128166666Y-104230057D01*
X127595237Y-104563390D02*
X127690475Y-104515771D01*
X127690475Y-104515771D02*
X127738094Y-104468152D01*
X127738094Y-104468152D02*
X127785713Y-104372914D01*
X127785713Y-104372914D02*
X127785713Y-104325295D01*
X127785713Y-104325295D02*
X127738094Y-104230057D01*
X127738094Y-104230057D02*
X127690475Y-104182438D01*
X127690475Y-104182438D02*
X127595237Y-104134819D01*
X127595237Y-104134819D02*
X127404761Y-104134819D01*
X127404761Y-104134819D02*
X127309523Y-104182438D01*
X127309523Y-104182438D02*
X127261904Y-104230057D01*
X127261904Y-104230057D02*
X127214285Y-104325295D01*
X127214285Y-104325295D02*
X127214285Y-104372914D01*
X127214285Y-104372914D02*
X127261904Y-104468152D01*
X127261904Y-104468152D02*
X127309523Y-104515771D01*
X127309523Y-104515771D02*
X127404761Y-104563390D01*
X127404761Y-104563390D02*
X127595237Y-104563390D01*
X127595237Y-104563390D02*
X127690475Y-104611009D01*
X127690475Y-104611009D02*
X127738094Y-104658628D01*
X127738094Y-104658628D02*
X127785713Y-104753866D01*
X127785713Y-104753866D02*
X127785713Y-104944342D01*
X127785713Y-104944342D02*
X127738094Y-105039580D01*
X127738094Y-105039580D02*
X127690475Y-105087200D01*
X127690475Y-105087200D02*
X127595237Y-105134819D01*
X127595237Y-105134819D02*
X127404761Y-105134819D01*
X127404761Y-105134819D02*
X127309523Y-105087200D01*
X127309523Y-105087200D02*
X127261904Y-105039580D01*
X127261904Y-105039580D02*
X127214285Y-104944342D01*
X127214285Y-104944342D02*
X127214285Y-104753866D01*
X127214285Y-104753866D02*
X127261904Y-104658628D01*
X127261904Y-104658628D02*
X127309523Y-104611009D01*
X127309523Y-104611009D02*
X127404761Y-104563390D01*
D10*
G04 #@! TO.C,U2*
X101670000Y-120830000D02*
X101670000Y-118170000D01*
X122050000Y-118170000D02*
X101670000Y-118170000D01*
X122050000Y-120830000D02*
X101670000Y-120830000D01*
X122050000Y-120830000D02*
X122050000Y-118170000D01*
X124650000Y-118170000D02*
X123320000Y-118170000D01*
X124650000Y-119500000D02*
X124650000Y-118170000D01*
G04 #@! TO.C,U3*
X143670000Y-105890000D02*
X143670000Y-107220000D01*
X143670000Y-108490000D02*
X143670000Y-126330000D01*
X145000000Y-105890000D02*
X143670000Y-105890000D01*
X146330000Y-108490000D02*
X143670000Y-108490000D01*
X146330000Y-108490000D02*
X146330000Y-126330000D01*
X146330000Y-126330000D02*
X143670000Y-126330000D01*
G04 #@! TO.C,C8*
X127738748Y-102265000D02*
X128261252Y-102265000D01*
X127738748Y-103735000D02*
X128261252Y-103735000D01*
G04 #@! TD*
M02*
