G04 #@! TF.GenerationSoftware,KiCad,Pcbnew,9.0.9-9.0.9~ubuntu24.04.1*
G04 #@! TF.CreationDate,2026-06-18T20:29:42+02:00*
G04 #@! TF.ProjectId,mt1-pcb,6d74312d-7063-4622-9e6b-696361645f70,v0.1*
G04 #@! TF.SameCoordinates,Original*
G04 #@! TF.FileFunction,Copper,L1,Top*
G04 #@! TF.FilePolarity,Positive*
%FSLAX46Y46*%
G04 Gerber Fmt 4.6, Leading zero omitted, Abs format (unit mm)*
G04 Created by KiCad (PCBNEW 9.0.9-9.0.9~ubuntu24.04.1) date 2026-06-18 20:29:42*
%MOMM*%
%LPD*%
G01*
G04 APERTURE LIST*
G04 Aperture macros list*
%AMRoundRect*
0 Rectangle with rounded corners*
0 $1 Rounding radius*
0 $2 $3 $4 $5 $6 $7 $8 $9 X,Y pos of 4 corners*
0 Add a 4 corners polygon primitive as box body*
4,1,4,$2,$3,$4,$5,$6,$7,$8,$9,$2,$3,0*
0 Add four circle primitives for the rounded corners*
1,1,$1+$1,$2,$3*
1,1,$1+$1,$4,$5*
1,1,$1+$1,$6,$7*
1,1,$1+$1,$8,$9*
0 Add four rect primitives between the rounded corners*
20,1,$1+$1,$2,$3,$4,$5,0*
20,1,$1+$1,$4,$5,$6,$7,0*
20,1,$1+$1,$6,$7,$8,$9,0*
20,1,$1+$1,$8,$9,$2,$3,0*%
G04 Aperture macros list end*
G04 #@! TA.AperFunction,SMDPad,CuDef*
%ADD10RoundRect,0.250000X-0.350000X-0.450000X0.350000X-0.450000X0.350000X0.450000X-0.350000X0.450000X0*%
G04 #@! TD*
G04 #@! TA.AperFunction,ComponentPad*
%ADD11R,1.700000X1.700000*%
G04 #@! TD*
G04 #@! TA.AperFunction,ComponentPad*
%ADD12C,1.700000*%
G04 #@! TD*
G04 #@! TA.AperFunction,ComponentPad*
%ADD13C,5.000000*%
G04 #@! TD*
G04 #@! TA.AperFunction,ComponentPad*
%ADD14O,2.200000X3.500000*%
G04 #@! TD*
G04 #@! TA.AperFunction,ComponentPad*
%ADD15R,1.500000X2.500000*%
G04 #@! TD*
G04 #@! TA.AperFunction,ComponentPad*
%ADD16O,1.500000X2.500000*%
G04 #@! TD*
G04 #@! TA.AperFunction,ViaPad*
%ADD17C,0.600000*%
G04 #@! TD*
G04 #@! TA.AperFunction,Conductor*
%ADD18C,0.200000*%
G04 #@! TD*
G04 APERTURE END LIST*
D10*
G04 #@! TO.P,R3,1*
G04 #@! TO.N,/BAT_SW*
X128000000Y-103000000D03*
G04 #@! TO.P,R3,2*
G04 #@! TO.N,/VBAT_SENSE*
X130000000Y-103000000D03*
G04 #@! TD*
D11*
G04 #@! TO.P,U5,1,Pin_1*
G04 #@! TO.N,unconnected-(U5-Pin_1-Pad1)*
X150000000Y-124000000D03*
D12*
G04 #@! TO.P,U5,2,Pin_2*
G04 #@! TO.N,/GND*
X150000000Y-121460000D03*
G04 #@! TO.P,U5,3,Pin_3*
G04 #@! TO.N,/+3V3*
X150000000Y-118920000D03*
G04 #@! TO.P,U5,4,Pin_4*
G04 #@! TO.N,/SDIO_CMD*
X150000000Y-116380000D03*
G04 #@! TO.P,U5,5,Pin_5*
G04 #@! TO.N,/SDIO_D0*
X150000000Y-113840000D03*
G04 #@! TO.P,U5,6,Pin_6*
G04 #@! TO.N,/SDIO_CLK*
X150000000Y-111300000D03*
G04 #@! TO.P,U5,7,Pin_7*
G04 #@! TO.N,/DBG_RX*
X150000000Y-108760000D03*
G04 #@! TD*
D11*
G04 #@! TO.P,U1,1,Pin_1*
G04 #@! TO.N,/VBAT_SENSE*
X165240000Y-124000000D03*
D12*
G04 #@! TO.P,U1,2,Pin_2*
G04 #@! TO.N,/BTN2*
X165240000Y-121460000D03*
G04 #@! TO.P,U1,3,Pin_3*
G04 #@! TO.N,/LED1*
X165240000Y-118920000D03*
G04 #@! TO.P,U1,4,Pin_4*
G04 #@! TO.N,/LED2*
X165240000Y-116380000D03*
G04 #@! TO.P,U1,5,Pin_5*
G04 #@! TO.N,/I2C_SDA*
X165240000Y-113840000D03*
G04 #@! TO.P,U1,6,Pin_6*
G04 #@! TO.N,/I2C_SCL*
X165240000Y-111300000D03*
G04 #@! TO.P,U1,7,Pin_7*
G04 #@! TO.N,/DBG_TX*
X165240000Y-108760000D03*
G04 #@! TD*
D11*
G04 #@! TO.P,U4,1,Pin_1*
G04 #@! TO.N,/+3V3*
X125000000Y-110500000D03*
D12*
G04 #@! TO.P,U4,2,Pin_2*
G04 #@! TO.N,/GND*
X122460000Y-110500000D03*
G04 #@! TO.P,U4,3,Pin_3*
G04 #@! TO.N,/SDIO_CLK*
X119920000Y-110500000D03*
G04 #@! TO.P,U4,4,Pin_4*
G04 #@! TO.N,/SDIO_D0*
X117380000Y-110500000D03*
G04 #@! TO.P,U4,5,Pin_5*
G04 #@! TO.N,/SDIO_CMD*
X114840000Y-110500000D03*
G04 #@! TO.P,U4,6,Pin_6*
G04 #@! TO.N,unconnected-(U4-Pin_6-Pad6)*
X112300000Y-110500000D03*
G04 #@! TO.P,U4,7,Pin_7*
G04 #@! TO.N,unconnected-(U4-Pin_7-Pad7)*
X109760000Y-110500000D03*
G04 #@! TO.P,U4,8,Pin_8*
G04 #@! TO.N,unconnected-(U4-Pin_8-Pad8)*
X107220000Y-110500000D03*
G04 #@! TO.P,U4,9,Pin_9*
G04 #@! TO.N,unconnected-(U4-Pin_9-Pad9)*
X104680000Y-110500000D03*
G04 #@! TD*
D11*
G04 #@! TO.P,J4,1,Pin_1*
G04 #@! TO.N,/VBAT_SENSE*
X152000000Y-103000000D03*
D12*
G04 #@! TO.P,J4,2,Pin_2*
G04 #@! TO.N,/BTN2*
X154540000Y-103000000D03*
G04 #@! TO.P,J4,3,Pin_3*
G04 #@! TO.N,/LED1*
X157080000Y-103000000D03*
G04 #@! TO.P,J4,4,Pin_4*
G04 #@! TO.N,/LED2*
X159620000Y-103000000D03*
G04 #@! TO.P,J4,5,Pin_5*
G04 #@! TO.N,/DBG_TX*
X162160000Y-103000000D03*
G04 #@! TO.P,J4,6,Pin_6*
G04 #@! TO.N,/DBG_RX*
X164700000Y-103000000D03*
G04 #@! TO.P,J4,7,Pin_7*
G04 #@! TO.N,/+3V3*
X167240000Y-103000000D03*
G04 #@! TO.P,J4,8,Pin_8*
G04 #@! TO.N,/GND*
X169780000Y-103000000D03*
G04 #@! TD*
D11*
G04 #@! TO.P,J5,1*
G04 #@! TO.N,/GND*
X139000000Y-103000000D03*
D12*
G04 #@! TO.P,J5,2*
G04 #@! TO.N,/BAT_SW*
X141540000Y-103000000D03*
G04 #@! TD*
D11*
G04 #@! TO.P,J1,1*
G04 #@! TO.N,/GND*
X101500000Y-103000000D03*
D12*
G04 #@! TO.P,J1,2*
G04 #@! TO.N,/BAT_P*
X104040000Y-103000000D03*
G04 #@! TD*
D13*
G04 #@! TO.P,H1,1*
G04 #@! TO.N,N/C*
X175000000Y-105000000D03*
G04 #@! TD*
G04 #@! TO.P,H2,1*
G04 #@! TO.N,N/C*
X185000000Y-105000000D03*
G04 #@! TD*
G04 #@! TO.P,H3,1*
G04 #@! TO.N,N/C*
X175000000Y-125000000D03*
G04 #@! TD*
G04 #@! TO.P,H4,1*
G04 #@! TO.N,N/C*
X185000000Y-125000000D03*
G04 #@! TD*
G04 #@! TO.P,H5,1*
G04 #@! TO.N,N/C*
X95000000Y-107000000D03*
G04 #@! TD*
G04 #@! TO.P,H6,1*
G04 #@! TO.N,N/C*
X95000000Y-123000000D03*
G04 #@! TD*
D10*
G04 #@! TO.P,R4,1*
G04 #@! TO.N,/VBAT_SENSE*
X132000000Y-103000000D03*
G04 #@! TO.P,R4,2*
G04 #@! TO.N,/GND*
X134000000Y-103000000D03*
G04 #@! TD*
D11*
G04 #@! TO.P,J2,1*
G04 #@! TO.N,/BAT_P*
X122000000Y-103000000D03*
D12*
G04 #@! TO.P,J2,2*
G04 #@! TO.N,/BAT_SW*
X124540000Y-103000000D03*
G04 #@! TD*
D14*
G04 #@! TO.P,SW1,*
G04 #@! TO.N,*
X108400000Y-103000000D03*
X116600000Y-103000000D03*
D15*
G04 #@! TO.P,SW1,1*
G04 #@! TO.N,/BAT_P*
X110500000Y-103000000D03*
D16*
G04 #@! TO.P,SW1,2*
G04 #@! TO.N,/BAT_SW*
X112500000Y-103000000D03*
G04 #@! TO.P,SW1,3*
G04 #@! TO.N,N/C*
X114500000Y-103000000D03*
G04 #@! TD*
D11*
G04 #@! TO.P,U2,1,Pin_1*
G04 #@! TO.N,/+3V3*
X123320000Y-119500000D03*
D12*
G04 #@! TO.P,U2,2,Pin_2*
G04 #@! TO.N,unconnected-(U2-Pin_2-Pad2)*
X120780000Y-119500000D03*
G04 #@! TO.P,U2,3,Pin_3*
G04 #@! TO.N,/GND*
X118240000Y-119500000D03*
G04 #@! TO.P,U2,4,Pin_4*
G04 #@! TO.N,/I2C_SCL*
X115700000Y-119500000D03*
G04 #@! TO.P,U2,5,Pin_5*
G04 #@! TO.N,/I2C_SDA*
X113160000Y-119500000D03*
G04 #@! TO.P,U2,6,Pin_6*
G04 #@! TO.N,unconnected-(U2-Pin_6-Pad6)*
X110620000Y-119500000D03*
G04 #@! TO.P,U2,7,Pin_7*
G04 #@! TO.N,unconnected-(U2-Pin_7-Pad7)*
X108080000Y-119500000D03*
G04 #@! TO.P,U2,8,Pin_8*
G04 #@! TO.N,unconnected-(U2-Pin_8-Pad8)*
X105540000Y-119500000D03*
G04 #@! TO.P,U2,9,Pin_9*
G04 #@! TO.N,unconnected-(U2-Pin_9-Pad9)*
X103000000Y-119500000D03*
G04 #@! TD*
D11*
G04 #@! TO.P,U3,1,Pin_1*
G04 #@! TO.N,/+3V3*
X145000000Y-107220000D03*
D12*
G04 #@! TO.P,U3,2,Pin_2*
G04 #@! TO.N,unconnected-(U3-Pin_2-Pad2)*
X145000000Y-109760000D03*
G04 #@! TO.P,U3,3,Pin_3*
G04 #@! TO.N,/GND*
X145000000Y-112300000D03*
G04 #@! TO.P,U3,4,Pin_4*
G04 #@! TO.N,/I2C_SCL*
X145000000Y-114840000D03*
G04 #@! TO.P,U3,5,Pin_5*
G04 #@! TO.N,unconnected-(U3-Pin_6-Pad6)*
X145000000Y-117380000D03*
G04 #@! TO.P,U3,6,Pin_6*
G04 #@! TO.N,/I2C_SDA*
X145000000Y-119920000D03*
G04 #@! TO.P,U3,7,Pin_7*
G04 #@! TO.N,unconnected-(U3-Pin_7-Pad7)*
X145000000Y-122460000D03*
G04 #@! TO.P,U3,8,Pin_8*
G04 #@! TO.N,unconnected-(U3-Pin_8-Pad8)*
X145000000Y-125000000D03*
G04 #@! TD*
D17*
G04 #@! TO.N,/GND*
X136250000Y-122200000D03*
X135500000Y-120500000D03*
X136500000Y-102400000D03*
X135827300Y-103348300D03*
X137500000Y-106500000D03*
G04 #@! TO.N,/VBAT_SENSE*
X129685900Y-101734700D03*
G04 #@! TO.N,/I2C_SCL*
X141474300Y-121522800D03*
G04 #@! TD*
D18*
G04 #@! TO.N,/GND*
X135827300Y-103348300D02*
X134348300Y-103348300D01*
X136500000Y-102400000D02*
X137500000Y-106500000D01*
X135500000Y-120500000D02*
X136250000Y-122200000D01*
X134348300Y-103348300D02*
X134000000Y-103000000D01*
G04 #@! TO.N,/+3V3*
X125000000Y-116668300D02*
X123320000Y-118348300D01*
X146151700Y-115071700D02*
X150000000Y-118920000D01*
X145288000Y-108371700D02*
X146151700Y-109235400D01*
X123320000Y-119500000D02*
X123320000Y-118348300D01*
X125000000Y-110500000D02*
X125000000Y-116668300D01*
X145000000Y-108371700D02*
X145288000Y-108371700D01*
X145000000Y-107220000D02*
X145000000Y-108371700D01*
X146151700Y-109235400D02*
X146151700Y-115071700D01*
G04 #@! TO.N,/LED1*
X165240000Y-118920000D02*
X157080000Y-110760000D01*
X157080000Y-110760000D02*
X157080000Y-103000000D01*
G04 #@! TO.N,/LED2*
X165240000Y-116380000D02*
X159620000Y-110760000D01*
X159620000Y-110760000D02*
X159620000Y-103000000D01*
G04 #@! TO.N,/VBAT_SENSE*
X152000000Y-109896200D02*
X152000000Y-103000000D01*
X165240000Y-122848300D02*
X164952100Y-122848300D01*
X130000000Y-103000000D02*
X130000000Y-102048800D01*
X164952100Y-122848300D02*
X152000000Y-109896200D01*
X130000000Y-102048800D02*
X129685900Y-101734700D01*
X165240000Y-124000000D02*
X165240000Y-122848300D01*
X130000000Y-103000000D02*
X132000000Y-103000000D01*
G04 #@! TO.N,/BTN2*
X154540000Y-110760000D02*
X165240000Y-121460000D01*
X154540000Y-103000000D02*
X154540000Y-110760000D01*
G04 #@! TO.N,/I2C_SCL*
X141474300Y-118365700D02*
X141474300Y-121522800D01*
X145000000Y-114840000D02*
X141474300Y-118365700D01*
G04 #@! TO.N,/DBG_TX*
X165240000Y-106080000D02*
X165240000Y-108760000D01*
X162160000Y-103000000D02*
X165240000Y-106080000D01*
G04 #@! TO.N,/BAT_SW*
X128000000Y-103000000D02*
X124540000Y-103000000D01*
G04 #@! TD*
M02*
