G04 #@! TF.GenerationSoftware,KiCad,Pcbnew,9.0.9-9.0.9~ubuntu24.04.1*
G04 #@! TF.CreationDate,2026-06-18T20:29:42+02:00*
G04 #@! TF.ProjectId,mt1-pcb,6d74312d-7063-4622-9e6b-696361645f70,v0.1*
G04 #@! TF.SameCoordinates,Original*
G04 #@! TF.FileFunction,Soldermask,Bot*
G04 #@! TF.FilePolarity,Negative*
%FSLAX46Y46*%
G04 Gerber Fmt 4.6, Leading zero omitted, Abs format (unit mm)*
G04 Created by KiCad (PCBNEW 9.0.9-9.0.9~ubuntu24.04.1) date 2026-06-18 20:29:42*
%MOMM*%
%LPD*%
G01*
G04 APERTURE LIST*
G04 Aperture macros list*
%AMRoundRect*
0 Rectangle with rounded corners*
0 $1 Rounding radius*
0 $2 $3 $4 $5 $6 $7 $8 $9 X,Y pos of 4 corners*
0 Add a 4 corners polygon primitive as box body*
4,1,4,$2,$3,$4,$5,$6,$7,$8,$9,$2,$3,0*
0 Add four circle primitives for the rounded corners*
1,1,$1+$1,$2,$3*
1,1,$1+$1,$4,$5*
1,1,$1+$1,$6,$7*
1,1,$1+$1,$8,$9*
0 Add four rect primitives between the rounded corners*
20,1,$1+$1,$2,$3,$4,$5,0*
20,1,$1+$1,$4,$5,$6,$7,0*
20,1,$1+$1,$6,$7,$8,$9,0*
20,1,$1+$1,$8,$9,$2,$3,0*%
G04 Aperture macros list end*
%ADD10C,2.200000*%
%ADD11RoundRect,0.050000X-0.850000X-0.850000X0.850000X-0.850000X0.850000X0.850000X-0.850000X0.850000X0*%
%ADD12C,1.800000*%
%ADD13RoundRect,0.050000X0.850000X-0.850000X0.850000X0.850000X-0.850000X0.850000X-0.850000X-0.850000X0*%
%ADD14C,5.100000*%
%ADD15RoundRect,0.050000X-0.850000X0.850000X-0.850000X-0.850000X0.850000X-0.850000X0.850000X0.850000X0*%
%ADD16O,2.300000X3.600000*%
%ADD17RoundRect,0.050000X-0.750000X-1.250000X0.750000X-1.250000X0.750000X1.250000X-0.750000X1.250000X0*%
%ADD18O,1.600000X2.600000*%
%ADD19RoundRect,0.050000X0.850000X0.850000X-0.850000X0.850000X-0.850000X-0.850000X0.850000X-0.850000X0*%
%ADD20RoundRect,0.271277X-0.366223X-0.503723X0.366223X-0.503723X0.366223X0.503723X-0.366223X0.503723X0*%
G04 APERTURE END LIST*
D10*
G04 #@! TO.C,MH3*
X132316000Y-105969000D03*
G04 #@! TD*
G04 #@! TO.C,MH4*
X132309000Y-126336000D03*
G04 #@! TD*
G04 #@! TO.C,MH6*
X104380000Y-128109000D03*
G04 #@! TD*
D11*
G04 #@! TO.C,U5*
X150000000Y-124000000D03*
D12*
X150000000Y-121460000D03*
X150000000Y-118920000D03*
X150000000Y-116380000D03*
X150000000Y-113840000D03*
X150000000Y-111300000D03*
X150000000Y-108760000D03*
G04 #@! TD*
D11*
G04 #@! TO.C,U1*
X165240000Y-124000000D03*
D12*
X165240000Y-121460000D03*
X165240000Y-118920000D03*
X165240000Y-116380000D03*
X165240000Y-113840000D03*
X165240000Y-111300000D03*
X165240000Y-108760000D03*
G04 #@! TD*
D10*
G04 #@! TO.C,MH2*
X102941000Y-106725000D03*
G04 #@! TD*
D11*
G04 #@! TO.C,U4*
X125000000Y-110500000D03*
D12*
X122460000Y-110500000D03*
X119920000Y-110500000D03*
X117380000Y-110500000D03*
X114840000Y-110500000D03*
X112300000Y-110500000D03*
X109760000Y-110500000D03*
X107220000Y-110500000D03*
X104680000Y-110500000D03*
G04 #@! TD*
D10*
G04 #@! TO.C,MH5*
X125124000Y-127970000D03*
G04 #@! TD*
D11*
G04 #@! TO.C,J4*
X152000000Y-103000000D03*
D12*
X154540000Y-103000000D03*
X157080000Y-103000000D03*
X159620000Y-103000000D03*
X162160000Y-103000000D03*
X164700000Y-103000000D03*
X167240000Y-103000000D03*
X169780000Y-103000000D03*
G04 #@! TD*
D13*
G04 #@! TO.C,J5*
X139000000Y-103000000D03*
D12*
X141540000Y-103000000D03*
G04 #@! TD*
D13*
G04 #@! TO.C,J1*
X101500000Y-103000000D03*
D12*
X104040000Y-103000000D03*
G04 #@! TD*
D10*
G04 #@! TO.C,MH1*
X123171000Y-106793000D03*
G04 #@! TD*
D14*
G04 #@! TO.C,H1*
X175000000Y-105000000D03*
G04 #@! TD*
G04 #@! TO.C,H2*
X185000000Y-105000000D03*
G04 #@! TD*
G04 #@! TO.C,H3*
X175000000Y-125000000D03*
G04 #@! TD*
G04 #@! TO.C,H4*
X185000000Y-125000000D03*
G04 #@! TD*
G04 #@! TO.C,H5*
X95000000Y-107000000D03*
G04 #@! TD*
G04 #@! TO.C,H6*
X95000000Y-123000000D03*
G04 #@! TD*
D15*
G04 #@! TO.C,J2*
X122000000Y-103000000D03*
D12*
X124540000Y-103000000D03*
G04 #@! TD*
D16*
G04 #@! TO.C,SW1*
X108400000Y-103000000D03*
X116600000Y-103000000D03*
D17*
X110500000Y-103000000D03*
D18*
X112500000Y-103000000D03*
X114500000Y-103000000D03*
G04 #@! TD*
D19*
G04 #@! TO.C,U2*
X123320000Y-119500000D03*
D12*
X120780000Y-119500000D03*
X118240000Y-119500000D03*
X115700000Y-119500000D03*
X113160000Y-119500000D03*
X110620000Y-119500000D03*
X108080000Y-119500000D03*
X105540000Y-119500000D03*
X103000000Y-119500000D03*
G04 #@! TD*
D19*
G04 #@! TO.C,U3*
X145000000Y-107220000D03*
D12*
X145000000Y-109760000D03*
X145000000Y-112300000D03*
X145000000Y-114840000D03*
X145000000Y-117380000D03*
X145000000Y-119920000D03*
X145000000Y-122460000D03*
X145000000Y-125000000D03*
G04 #@! TD*
D20*
G04 #@! TO.C,C8*
X126962500Y-103000000D03*
X129037500Y-103000000D03*
G04 #@! TD*
M02*
