G04 #@! TF.GenerationSoftware,KiCad,Pcbnew,9.0.9-9.0.9~ubuntu24.04.1*
G04 #@! TF.CreationDate,2026-06-18T20:29:42+02:00*
G04 #@! TF.ProjectId,mt1-pcb,6d74312d-7063-4622-9e6b-696361645f70,v0.1*
G04 #@! TF.SameCoordinates,Original*
G04 #@! TF.FileFunction,Copper,L2,Bot*
G04 #@! TF.FilePolarity,Positive*
%FSLAX46Y46*%
G04 Gerber Fmt 4.6, Leading zero omitted, Abs format (unit mm)*
G04 Created by KiCad (PCBNEW 9.0.9-9.0.9~ubuntu24.04.1) date 2026-06-18 20:29:42*
%MOMM*%
%LPD*%
G01*
G04 APERTURE LIST*
G04 Aperture macros list*
%AMRoundRect*
0 Rectangle with rounded corners*
0 $1 Rounding radius*
0 $2 $3 $4 $5 $6 $7 $8 $9 X,Y pos of 4 corners*
0 Add a 4 corners polygon primitive as box body*
4,1,4,$2,$3,$4,$5,$6,$7,$8,$9,$2,$3,0*
0 Add four circle primitives for the rounded corners*
1,1,$1+$1,$2,$3*
1,1,$1+$1,$4,$5*
1,1,$1+$1,$6,$7*
1,1,$1+$1,$8,$9*
0 Add four rect primitives between the rounded corners*
20,1,$1+$1,$2,$3,$4,$5,0*
20,1,$1+$1,$4,$5,$6,$7,0*
20,1,$1+$1,$6,$7,$8,$9,0*
20,1,$1+$1,$8,$9,$2,$3,0*%
G04 Aperture macros list end*
G04 #@! TA.AperFunction,ComponentPad*
%ADD10R,1.700000X1.700000*%
G04 #@! TD*
G04 #@! TA.AperFunction,ComponentPad*
%ADD11C,1.700000*%
G04 #@! TD*
G04 #@! TA.AperFunction,ComponentPad*
%ADD12C,5.000000*%
G04 #@! TD*
G04 #@! TA.AperFunction,ComponentPad*
%ADD13O,2.200000X3.500000*%
G04 #@! TD*
G04 #@! TA.AperFunction,ComponentPad*
%ADD14R,1.500000X2.500000*%
G04 #@! TD*
G04 #@! TA.AperFunction,ComponentPad*
%ADD15O,1.500000X2.500000*%
G04 #@! TD*
G04 #@! TA.AperFunction,SMDPad,CuDef*
%ADD16RoundRect,0.250000X-0.337500X-0.475000X0.337500X-0.475000X0.337500X0.475000X-0.337500X0.475000X0*%
G04 #@! TD*
G04 #@! TA.AperFunction,ViaPad*
%ADD17C,0.600000*%
G04 #@! TD*
G04 #@! TA.AperFunction,Conductor*
%ADD18C,0.200000*%
G04 #@! TD*
G04 APERTURE END LIST*
D10*
G04 #@! TO.P,U5,1,Pin_1*
G04 #@! TO.N,unconnected-(U5-Pin_1-Pad1)*
X150000000Y-124000000D03*
D11*
G04 #@! TO.P,U5,2,Pin_2*
G04 #@! TO.N,/GND*
X150000000Y-121460000D03*
G04 #@! TO.P,U5,3,Pin_3*
G04 #@! TO.N,/+3V3*
X150000000Y-118920000D03*
G04 #@! TO.P,U5,4,Pin_4*
G04 #@! TO.N,/SDIO_CMD*
X150000000Y-116380000D03*
G04 #@! TO.P,U5,5,Pin_5*
G04 #@! TO.N,/SDIO_D0*
X150000000Y-113840000D03*
G04 #@! TO.P,U5,6,Pin_6*
G04 #@! TO.N,/SDIO_CLK*
X150000000Y-111300000D03*
G04 #@! TO.P,U5,7,Pin_7*
G04 #@! TO.N,/DBG_RX*
X150000000Y-108760000D03*
G04 #@! TD*
D10*
G04 #@! TO.P,U1,1,Pin_1*
G04 #@! TO.N,/VBAT_SENSE*
X165240000Y-124000000D03*
D11*
G04 #@! TO.P,U1,2,Pin_2*
G04 #@! TO.N,/BTN2*
X165240000Y-121460000D03*
G04 #@! TO.P,U1,3,Pin_3*
G04 #@! TO.N,/LED1*
X165240000Y-118920000D03*
G04 #@! TO.P,U1,4,Pin_4*
G04 #@! TO.N,/LED2*
X165240000Y-116380000D03*
G04 #@! TO.P,U1,5,Pin_5*
G04 #@! TO.N,/I2C_SDA*
X165240000Y-113840000D03*
G04 #@! TO.P,U1,6,Pin_6*
G04 #@! TO.N,/I2C_SCL*
X165240000Y-111300000D03*
G04 #@! TO.P,U1,7,Pin_7*
G04 #@! TO.N,/DBG_TX*
X165240000Y-108760000D03*
G04 #@! TD*
D10*
G04 #@! TO.P,U4,1,Pin_1*
G04 #@! TO.N,/+3V3*
X125000000Y-110500000D03*
D11*
G04 #@! TO.P,U4,2,Pin_2*
G04 #@! TO.N,/GND*
X122460000Y-110500000D03*
G04 #@! TO.P,U4,3,Pin_3*
G04 #@! TO.N,/SDIO_CLK*
X119920000Y-110500000D03*
G04 #@! TO.P,U4,4,Pin_4*
G04 #@! TO.N,/SDIO_D0*
X117380000Y-110500000D03*
G04 #@! TO.P,U4,5,Pin_5*
G04 #@! TO.N,/SDIO_CMD*
X114840000Y-110500000D03*
G04 #@! TO.P,U4,6,Pin_6*
G04 #@! TO.N,unconnected-(U4-Pin_6-Pad6)*
X112300000Y-110500000D03*
G04 #@! TO.P,U4,7,Pin_7*
G04 #@! TO.N,unconnected-(U4-Pin_7-Pad7)*
X109760000Y-110500000D03*
G04 #@! TO.P,U4,8,Pin_8*
G04 #@! TO.N,unconnected-(U4-Pin_8-Pad8)*
X107220000Y-110500000D03*
G04 #@! TO.P,U4,9,Pin_9*
G04 #@! TO.N,unconnected-(U4-Pin_9-Pad9)*
X104680000Y-110500000D03*
G04 #@! TD*
D10*
G04 #@! TO.P,J4,1,Pin_1*
G04 #@! TO.N,/VBAT_SENSE*
X152000000Y-103000000D03*
D11*
G04 #@! TO.P,J4,2,Pin_2*
G04 #@! TO.N,/BTN2*
X154540000Y-103000000D03*
G04 #@! TO.P,J4,3,Pin_3*
G04 #@! TO.N,/LED1*
X157080000Y-103000000D03*
G04 #@! TO.P,J4,4,Pin_4*
G04 #@! TO.N,/LED2*
X159620000Y-103000000D03*
G04 #@! TO.P,J4,5,Pin_5*
G04 #@! TO.N,/DBG_TX*
X162160000Y-103000000D03*
G04 #@! TO.P,J4,6,Pin_6*
G04 #@! TO.N,/DBG_RX*
X164700000Y-103000000D03*
G04 #@! TO.P,J4,7,Pin_7*
G04 #@! TO.N,/+3V3*
X167240000Y-103000000D03*
G04 #@! TO.P,J4,8,Pin_8*
G04 #@! TO.N,/GND*
X169780000Y-103000000D03*
G04 #@! TD*
D10*
G04 #@! TO.P,J5,1*
G04 #@! TO.N,/GND*
X139000000Y-103000000D03*
D11*
G04 #@! TO.P,J5,2*
G04 #@! TO.N,/BAT_SW*
X141540000Y-103000000D03*
G04 #@! TD*
D10*
G04 #@! TO.P,J1,1*
G04 #@! TO.N,/GND*
X101500000Y-103000000D03*
D11*
G04 #@! TO.P,J1,2*
G04 #@! TO.N,/BAT_P*
X104040000Y-103000000D03*
G04 #@! TD*
D12*
G04 #@! TO.P,H1,1*
G04 #@! TO.N,N/C*
X175000000Y-105000000D03*
G04 #@! TD*
G04 #@! TO.P,H2,1*
G04 #@! TO.N,N/C*
X185000000Y-105000000D03*
G04 #@! TD*
G04 #@! TO.P,H3,1*
G04 #@! TO.N,N/C*
X175000000Y-125000000D03*
G04 #@! TD*
G04 #@! TO.P,H4,1*
G04 #@! TO.N,N/C*
X185000000Y-125000000D03*
G04 #@! TD*
G04 #@! TO.P,H5,1*
G04 #@! TO.N,N/C*
X95000000Y-107000000D03*
G04 #@! TD*
G04 #@! TO.P,H6,1*
G04 #@! TO.N,N/C*
X95000000Y-123000000D03*
G04 #@! TD*
D10*
G04 #@! TO.P,J2,1*
G04 #@! TO.N,/BAT_P*
X122000000Y-103000000D03*
D11*
G04 #@! TO.P,J2,2*
G04 #@! TO.N,/BAT_SW*
X124540000Y-103000000D03*
G04 #@! TD*
D13*
G04 #@! TO.P,SW1,*
G04 #@! TO.N,*
X108400000Y-103000000D03*
X116600000Y-103000000D03*
D14*
G04 #@! TO.P,SW1,1*
G04 #@! TO.N,/BAT_P*
X110500000Y-103000000D03*
D15*
G04 #@! TO.P,SW1,2*
G04 #@! TO.N,/BAT_SW*
X112500000Y-103000000D03*
G04 #@! TO.P,SW1,3*
G04 #@! TO.N,N/C*
X114500000Y-103000000D03*
G04 #@! TD*
D10*
G04 #@! TO.P,U2,1,Pin_1*
G04 #@! TO.N,/+3V3*
X123320000Y-119500000D03*
D11*
G04 #@! TO.P,U2,2,Pin_2*
G04 #@! TO.N,unconnected-(U2-Pin_2-Pad2)*
X120780000Y-119500000D03*
G04 #@! TO.P,U2,3,Pin_3*
G04 #@! TO.N,/GND*
X118240000Y-119500000D03*
G04 #@! TO.P,U2,4,Pin_4*
G04 #@! TO.N,/I2C_SCL*
X115700000Y-119500000D03*
G04 #@! TO.P,U2,5,Pin_5*
G04 #@! TO.N,/I2C_SDA*
X113160000Y-119500000D03*
G04 #@! TO.P,U2,6,Pin_6*
G04 #@! TO.N,unconnected-(U2-Pin_6-Pad6)*
X110620000Y-119500000D03*
G04 #@! TO.P,U2,7,Pin_7*
G04 #@! TO.N,unconnected-(U2-Pin_7-Pad7)*
X108080000Y-119500000D03*
G04 #@! TO.P,U2,8,Pin_8*
G04 #@! TO.N,unconnected-(U2-Pin_8-Pad8)*
X105540000Y-119500000D03*
G04 #@! TO.P,U2,9,Pin_9*
G04 #@! TO.N,unconnected-(U2-Pin_9-Pad9)*
X103000000Y-119500000D03*
G04 #@! TD*
D10*
G04 #@! TO.P,U3,1,Pin_1*
G04 #@! TO.N,/+3V3*
X145000000Y-107220000D03*
D11*
G04 #@! TO.P,U3,2,Pin_2*
G04 #@! TO.N,unconnected-(U3-Pin_2-Pad2)*
X145000000Y-109760000D03*
G04 #@! TO.P,U3,3,Pin_3*
G04 #@! TO.N,/GND*
X145000000Y-112300000D03*
G04 #@! TO.P,U3,4,Pin_4*
G04 #@! TO.N,/I2C_SCL*
X145000000Y-114840000D03*
G04 #@! TO.P,U3,5,Pin_5*
G04 #@! TO.N,unconnected-(U3-Pin_6-Pad6)*
X145000000Y-117380000D03*
G04 #@! TO.P,U3,6,Pin_6*
G04 #@! TO.N,/I2C_SDA*
X145000000Y-119920000D03*
G04 #@! TO.P,U3,7,Pin_7*
G04 #@! TO.N,unconnected-(U3-Pin_7-Pad7)*
X145000000Y-122460000D03*
G04 #@! TO.P,U3,8,Pin_8*
G04 #@! TO.N,unconnected-(U3-Pin_8-Pad8)*
X145000000Y-125000000D03*
G04 #@! TD*
D16*
G04 #@! TO.P,C8,1*
G04 #@! TO.N,/VBAT_SENSE*
X126962500Y-103000000D03*
G04 #@! TO.P,C8,2*
G04 #@! TO.N,/GND*
X129037500Y-103000000D03*
G04 #@! TD*
D17*
G04 #@! TO.N,/GND*
X136250000Y-122200000D03*
X135500000Y-120500000D03*
X136500000Y-102400000D03*
X135827300Y-103348300D03*
X137500000Y-106500000D03*
G04 #@! TO.N,/VBAT_SENSE*
X129685900Y-101734700D03*
G04 #@! TO.N,/I2C_SCL*
X141474300Y-121522800D03*
G04 #@! TD*
D18*
G04 #@! TO.N,/+3V3*
X158350000Y-103383100D02*
X158350000Y-102616400D01*
X123320000Y-119500000D02*
X124471700Y-119500000D01*
X159136400Y-101830000D02*
X166070000Y-101830000D01*
X166070000Y-101830000D02*
X167240000Y-103000000D01*
X154513100Y-107220000D02*
X158350000Y-103383100D01*
X141884500Y-121082100D02*
X140302400Y-119500000D01*
X158350000Y-102616400D02*
X159136400Y-101830000D01*
X147837900Y-121082100D02*
X141884500Y-121082100D01*
X150000000Y-118920000D02*
X147837900Y-121082100D01*
X140302400Y-119500000D02*
X124471700Y-119500000D01*
X145000000Y-107220000D02*
X154513100Y-107220000D01*
G04 #@! TO.N,/VBAT_SENSE*
X150848300Y-103000000D02*
X149622500Y-101774200D01*
X152000000Y-103000000D02*
X150848300Y-103000000D01*
X129685900Y-101774200D02*
X129685900Y-101734700D01*
X129685900Y-101774200D02*
X128188300Y-101774200D01*
X128188300Y-101774200D02*
X126962500Y-103000000D01*
X149622500Y-101774200D02*
X129685900Y-101774200D01*
G04 #@! TO.N,/I2C_SDA*
X145000000Y-119920000D02*
X143403600Y-118323600D01*
X143403600Y-118323600D02*
X114336400Y-118323600D01*
X165240000Y-113840000D02*
X161490000Y-117590000D01*
X114336400Y-118323600D02*
X113160000Y-119500000D01*
X161490000Y-117590000D02*
X147330000Y-117590000D01*
X147330000Y-117590000D02*
X145000000Y-119920000D01*
G04 #@! TO.N,/I2C_SCL*
X161548100Y-114991900D02*
X165240000Y-111300000D01*
X145000000Y-114840000D02*
X145151900Y-114991900D01*
X145151900Y-114991900D02*
X161548100Y-114991900D01*
X117722800Y-121522800D02*
X115700000Y-119500000D01*
X141474300Y-121522800D02*
X117722800Y-121522800D01*
G04 #@! TO.N,/SDIO_CMD*
X114840000Y-110500000D02*
X120450000Y-116110000D01*
X120450000Y-116110000D02*
X149730000Y-116110000D01*
X149730000Y-116110000D02*
X150000000Y-116380000D01*
G04 #@! TO.N,/SDIO_D0*
X150000000Y-113840000D02*
X149727000Y-113567000D01*
X149727000Y-113567000D02*
X120447000Y-113567000D01*
X120447000Y-113567000D02*
X117380000Y-110500000D01*
G04 #@! TO.N,/SDIO_CLK*
X150000000Y-111300000D02*
X149730000Y-111030000D01*
X149730000Y-111030000D02*
X133140300Y-111030000D01*
X131414400Y-109304100D02*
X121115900Y-109304100D01*
X133140300Y-111030000D02*
X131414400Y-109304100D01*
X121115900Y-109304100D02*
X119920000Y-110500000D01*
G04 #@! TO.N,/DBG_RX*
X164700000Y-103000000D02*
X158940000Y-108760000D01*
X158940000Y-108760000D02*
X150000000Y-108760000D01*
G04 #@! TO.N,/BAT_P*
X109970100Y-100918400D02*
X106121600Y-100918400D01*
X110500000Y-101448300D02*
X109970100Y-100918400D01*
X106121600Y-100918400D02*
X104040000Y-103000000D01*
X120848300Y-103000000D02*
X118732400Y-100884100D01*
X122000000Y-103000000D02*
X120848300Y-103000000D01*
X111064200Y-100884100D02*
X110500000Y-101448300D01*
X110500000Y-103000000D02*
X110500000Y-101448300D01*
X118732400Y-100884100D02*
X111064200Y-100884100D01*
G04 #@! TO.N,/BAT_SW*
X113038100Y-105089800D02*
X122450200Y-105089800D01*
X125691700Y-104151700D02*
X124540000Y-103000000D01*
X141540000Y-103000000D02*
X140388300Y-104151700D01*
X112500000Y-104551700D02*
X113038100Y-105089800D01*
X140388300Y-104151700D02*
X125691700Y-104151700D01*
X112500000Y-103000000D02*
X112500000Y-104551700D01*
X122450200Y-105089800D02*
X124540000Y-103000000D01*
G04 #@! TD*
G04 #@! TA.AperFunction,Conductor*
G04 #@! TO.N,/GND*
G36*
X119989452Y-118643007D02*
G01*
X120025416Y-118692507D01*
X120025416Y-118753693D01*
X120001266Y-118793101D01*
X119977836Y-118816532D01*
X119964020Y-118830348D01*
X119849058Y-119002402D01*
X119769869Y-119193581D01*
X119729500Y-119396532D01*
X119729500Y-119603467D01*
X119769869Y-119806418D01*
X119849058Y-119997597D01*
X119964020Y-120169651D01*
X119964023Y-120169655D01*
X120110345Y-120315977D01*
X120282402Y-120430941D01*
X120473580Y-120510130D01*
X120676535Y-120550500D01*
X120676536Y-120550500D01*
X120883464Y-120550500D01*
X120883465Y-120550500D01*
X121086420Y-120510130D01*
X121277598Y-120430941D01*
X121449655Y-120315977D01*
X121595977Y-120169655D01*
X121710941Y-119997598D01*
X121790130Y-119806420D01*
X121830500Y-119603465D01*
X121830500Y-119396535D01*
X121790130Y-119193580D01*
X121710941Y-119002402D01*
X121595977Y-118830345D01*
X121558733Y-118793101D01*
X121530958Y-118738587D01*
X121540529Y-118678155D01*
X121583794Y-118634890D01*
X121628739Y-118624100D01*
X122170500Y-118624100D01*
X122228691Y-118643007D01*
X122264655Y-118692507D01*
X122269500Y-118723100D01*
X122269500Y-120369746D01*
X122269501Y-120369758D01*
X122281132Y-120428227D01*
X122281134Y-120428233D01*
X122295012Y-120449002D01*
X122325448Y-120494552D01*
X122391769Y-120538867D01*
X122436231Y-120547711D01*
X122450241Y-120550498D01*
X122450246Y-120550498D01*
X122450252Y-120550500D01*
X122450253Y-120550500D01*
X124189747Y-120550500D01*
X124189748Y-120550500D01*
X124248231Y-120538867D01*
X124314552Y-120494552D01*
X124358867Y-120428231D01*
X124370500Y-120369748D01*
X124370500Y-119899500D01*
X124389407Y-119841309D01*
X124438907Y-119805345D01*
X124469500Y-119800500D01*
X140136921Y-119800500D01*
X140195112Y-119819407D01*
X140206925Y-119829496D01*
X141286705Y-120909276D01*
X141314482Y-120963793D01*
X141304911Y-121024225D01*
X141266202Y-121065016D01*
X141166988Y-121122298D01*
X141166986Y-121122299D01*
X141166986Y-121122300D01*
X141095980Y-121193305D01*
X141041466Y-121221081D01*
X141025979Y-121222300D01*
X117888279Y-121222300D01*
X117830088Y-121203393D01*
X117818275Y-121193304D01*
X116675263Y-120050292D01*
X116647486Y-119995775D01*
X116653802Y-119942405D01*
X116710130Y-119806420D01*
X116750500Y-119603465D01*
X116750500Y-119396535D01*
X116710130Y-119193580D01*
X116630941Y-119002402D01*
X116515977Y-118830345D01*
X116478733Y-118793101D01*
X116450958Y-118738587D01*
X116460529Y-118678155D01*
X116503794Y-118634890D01*
X116548739Y-118624100D01*
X119931261Y-118624100D01*
X119989452Y-118643007D01*
G37*
G04 #@! TD.AperFunction*
G04 #@! TA.AperFunction,Conductor*
G36*
X129335269Y-102093607D02*
G01*
X129347081Y-102103695D01*
X129378586Y-102135200D01*
X129378588Y-102135201D01*
X129378589Y-102135202D01*
X129378590Y-102135203D01*
X129492710Y-102201090D01*
X129492708Y-102201090D01*
X129492712Y-102201091D01*
X129492714Y-102201092D01*
X129620008Y-102235200D01*
X129620010Y-102235200D01*
X129751790Y-102235200D01*
X129751792Y-102235200D01*
X129879086Y-102201092D01*
X129879088Y-102201090D01*
X129879090Y-102201090D01*
X129993209Y-102135203D01*
X129993209Y-102135202D01*
X129993214Y-102135200D01*
X130024719Y-102103695D01*
X130079236Y-102075919D01*
X130094722Y-102074700D01*
X140740661Y-102074700D01*
X140798852Y-102093607D01*
X140834816Y-102143107D01*
X140834816Y-102204293D01*
X140810666Y-102243701D01*
X140754868Y-102299500D01*
X140724020Y-102330348D01*
X140609058Y-102502402D01*
X140529869Y-102693581D01*
X140489500Y-102896532D01*
X140489500Y-103103467D01*
X140529869Y-103306418D01*
X140586196Y-103442402D01*
X140590997Y-103503399D01*
X140564736Y-103550291D01*
X140292826Y-103822203D01*
X140238309Y-103849981D01*
X140222822Y-103851200D01*
X127778367Y-103851200D01*
X127720176Y-103832293D01*
X127684212Y-103782793D01*
X127684212Y-103721607D01*
X127698713Y-103693410D01*
X127700005Y-103691659D01*
X127702793Y-103687882D01*
X127747646Y-103559699D01*
X127750499Y-103529273D01*
X127750500Y-103529273D01*
X127750500Y-102677979D01*
X127769407Y-102619788D01*
X127779496Y-102607975D01*
X128283775Y-102103696D01*
X128338292Y-102075919D01*
X128353779Y-102074700D01*
X129277078Y-102074700D01*
X129335269Y-102093607D01*
G37*
G04 #@! TD.AperFunction*
G04 #@! TA.AperFunction,Conductor*
G36*
X189758691Y-100219407D02*
G01*
X189794655Y-100268907D01*
X189799500Y-100299500D01*
X189799500Y-129700500D01*
X189780593Y-129758691D01*
X189731093Y-129794655D01*
X189700500Y-129799500D01*
X90299500Y-129799500D01*
X90241309Y-129780593D01*
X90205345Y-129731093D01*
X90200500Y-129700500D01*
X90200500Y-128006644D01*
X103079500Y-128006644D01*
X103079500Y-128211355D01*
X103111521Y-128413529D01*
X103174780Y-128608219D01*
X103267712Y-128790609D01*
X103267714Y-128790613D01*
X103388029Y-128956213D01*
X103388031Y-128956215D01*
X103388034Y-128956219D01*
X103532781Y-129100966D01*
X103532784Y-129100968D01*
X103532786Y-129100970D01*
X103698386Y-129221285D01*
X103698390Y-129221287D01*
X103880781Y-129314220D01*
X104075466Y-129377477D01*
X104075467Y-129377477D01*
X104075470Y-129377478D01*
X104277645Y-129409500D01*
X104277648Y-129409500D01*
X104482355Y-129409500D01*
X104684529Y-129377478D01*
X104684530Y-129377477D01*
X104684534Y-129377477D01*
X104879219Y-129314220D01*
X105061610Y-129221287D01*
X105227219Y-129100966D01*
X105371966Y-128956219D01*
X105492287Y-128790610D01*
X105585220Y-128608219D01*
X105648477Y-128413534D01*
X105680500Y-128211352D01*
X105680500Y-128006648D01*
X105680500Y-128006644D01*
X105660322Y-127879245D01*
X105658484Y-127867644D01*
X123823500Y-127867644D01*
X123823500Y-128072355D01*
X123855521Y-128274529D01*
X123918780Y-128469219D01*
X124011712Y-128651609D01*
X124011714Y-128651613D01*
X124132029Y-128817213D01*
X124132031Y-128817215D01*
X124132034Y-128817219D01*
X124276781Y-128961966D01*
X124276784Y-128961968D01*
X124276786Y-128961970D01*
X124442386Y-129082285D01*
X124442390Y-129082287D01*
X124624781Y-129175220D01*
X124819466Y-129238477D01*
X124819467Y-129238477D01*
X124819470Y-129238478D01*
X125021645Y-129270500D01*
X125021648Y-129270500D01*
X125226355Y-129270500D01*
X125428529Y-129238478D01*
X125428530Y-129238477D01*
X125428534Y-129238477D01*
X125623219Y-129175220D01*
X125805610Y-129082287D01*
X125971219Y-128961966D01*
X126115966Y-128817219D01*
X126236287Y-128651610D01*
X126329220Y-128469219D01*
X126392477Y-128274534D01*
X126424500Y-128072352D01*
X126424500Y-127867648D01*
X126424500Y-127867644D01*
X126392478Y-127665470D01*
X126383065Y-127636500D01*
X126329220Y-127470781D01*
X126236287Y-127288390D01*
X126236285Y-127288386D01*
X126115970Y-127122786D01*
X126115968Y-127122784D01*
X126115966Y-127122781D01*
X125971219Y-126978034D01*
X125971215Y-126978031D01*
X125971213Y-126978029D01*
X125805613Y-126857714D01*
X125805609Y-126857712D01*
X125623219Y-126764780D01*
X125428529Y-126701521D01*
X125226355Y-126669500D01*
X125226352Y-126669500D01*
X125021648Y-126669500D01*
X125021645Y-126669500D01*
X124819470Y-126701521D01*
X124624780Y-126764780D01*
X124442390Y-126857712D01*
X124442386Y-126857714D01*
X124276786Y-126978029D01*
X124132029Y-127122786D01*
X124011714Y-127288386D01*
X124011712Y-127288390D01*
X123918780Y-127470780D01*
X123855521Y-127665470D01*
X123823500Y-127867644D01*
X105658484Y-127867644D01*
X105652348Y-127828908D01*
X105648477Y-127804466D01*
X105585220Y-127609781D01*
X105492287Y-127427390D01*
X105492285Y-127427386D01*
X105371970Y-127261786D01*
X105371968Y-127261784D01*
X105371966Y-127261781D01*
X105227219Y-127117034D01*
X105227215Y-127117031D01*
X105227213Y-127117029D01*
X105061613Y-126996714D01*
X105061609Y-126996712D01*
X104879219Y-126903780D01*
X104684529Y-126840521D01*
X104482355Y-126808500D01*
X104482352Y-126808500D01*
X104277648Y-126808500D01*
X104277645Y-126808500D01*
X104075470Y-126840521D01*
X103880780Y-126903780D01*
X103698390Y-126996712D01*
X103698386Y-126996714D01*
X103532786Y-127117029D01*
X103388029Y-127261786D01*
X103267714Y-127427386D01*
X103267712Y-127427390D01*
X103174780Y-127609780D01*
X103111521Y-127804470D01*
X103079500Y-128006644D01*
X90200500Y-128006644D01*
X90200500Y-126233644D01*
X131008500Y-126233644D01*
X131008500Y-126438355D01*
X131040521Y-126640529D01*
X131103780Y-126835219D01*
X131196712Y-127017609D01*
X131196714Y-127017613D01*
X131317029Y-127183213D01*
X131317031Y-127183215D01*
X131317034Y-127183219D01*
X131461781Y-127327966D01*
X131461784Y-127327968D01*
X131461786Y-127327970D01*
X131627386Y-127448285D01*
X131627390Y-127448287D01*
X131809781Y-127541220D01*
X132004466Y-127604477D01*
X132004467Y-127604477D01*
X132004470Y-127604478D01*
X132206645Y-127636500D01*
X132206648Y-127636500D01*
X132411355Y-127636500D01*
X132613529Y-127604478D01*
X132613530Y-127604477D01*
X132613534Y-127604477D01*
X132808219Y-127541220D01*
X132990610Y-127448287D01*
X133019373Y-127427390D01*
X133156213Y-127327970D01*
X133156219Y-127327966D01*
X133300966Y-127183219D01*
X133421287Y-127017610D01*
X133514220Y-126835219D01*
X133577477Y-126640534D01*
X133609500Y-126438352D01*
X133609500Y-126233648D01*
X133609500Y-126233644D01*
X133577478Y-126031470D01*
X133577477Y-126031466D01*
X133514220Y-125836781D01*
X133421287Y-125654390D01*
X133421285Y-125654386D01*
X133300970Y-125488786D01*
X133300968Y-125488784D01*
X133300966Y-125488781D01*
X133156219Y-125344034D01*
X133156215Y-125344031D01*
X133156213Y-125344029D01*
X132990613Y-125223714D01*
X132990609Y-125223712D01*
X132808219Y-125130780D01*
X132613529Y-125067521D01*
X132411355Y-125035500D01*
X132411352Y-125035500D01*
X132206648Y-125035500D01*
X132206645Y-125035500D01*
X132004470Y-125067521D01*
X131809780Y-125130780D01*
X131627390Y-125223712D01*
X131627386Y-125223714D01*
X131461786Y-125344029D01*
X131317029Y-125488786D01*
X131196714Y-125654386D01*
X131196712Y-125654390D01*
X131103780Y-125836780D01*
X131040521Y-126031470D01*
X131008500Y-126233644D01*
X90200500Y-126233644D01*
X90200500Y-122848341D01*
X92299500Y-122848341D01*
X92299500Y-123151658D01*
X92333459Y-123453061D01*
X92400954Y-123748775D01*
X92501131Y-124035063D01*
X92501132Y-124035065D01*
X92632727Y-124308326D01*
X92632731Y-124308333D01*
X92632735Y-124308341D01*
X92794108Y-124565164D01*
X92983221Y-124802304D01*
X93197696Y-125016779D01*
X93434836Y-125205892D01*
X93691659Y-125367265D01*
X93691670Y-125367270D01*
X93691673Y-125367272D01*
X93782462Y-125410993D01*
X93964935Y-125498868D01*
X94098580Y-125545632D01*
X94251224Y-125599045D01*
X94251227Y-125599045D01*
X94251228Y-125599046D01*
X94546937Y-125666540D01*
X94848343Y-125700500D01*
X94848344Y-125700500D01*
X95151656Y-125700500D01*
X95151657Y-125700500D01*
X95453063Y-125666540D01*
X95748772Y-125599046D01*
X96035065Y-125498868D01*
X96308341Y-125367265D01*
X96565164Y-125205892D01*
X96802304Y-125016779D01*
X96922551Y-124896532D01*
X143949500Y-124896532D01*
X143949500Y-125103467D01*
X143989869Y-125306418D01*
X144069058Y-125497597D01*
X144184020Y-125669651D01*
X144184023Y-125669655D01*
X144330345Y-125815977D01*
X144502402Y-125930941D01*
X144693580Y-126010130D01*
X144896535Y-126050500D01*
X144896536Y-126050500D01*
X145103464Y-126050500D01*
X145103465Y-126050500D01*
X145306420Y-126010130D01*
X145497598Y-125930941D01*
X145669655Y-125815977D01*
X145815977Y-125669655D01*
X145930941Y-125497598D01*
X146010130Y-125306420D01*
X146050500Y-125103465D01*
X146050500Y-124896535D01*
X146010130Y-124693580D01*
X145930941Y-124502402D01*
X145815977Y-124330345D01*
X145669655Y-124184023D01*
X145497598Y-124069059D01*
X145497599Y-124069059D01*
X145497597Y-124069058D01*
X145306418Y-123989869D01*
X145103467Y-123949500D01*
X145103465Y-123949500D01*
X144896535Y-123949500D01*
X144896532Y-123949500D01*
X144693581Y-123989869D01*
X144502402Y-124069058D01*
X144330348Y-124184020D01*
X144184020Y-124330348D01*
X144069058Y-124502402D01*
X143989869Y-124693581D01*
X143949500Y-124896532D01*
X96922551Y-124896532D01*
X97016779Y-124802304D01*
X97205892Y-124565164D01*
X97367265Y-124308341D01*
X97498868Y-124035065D01*
X97599046Y-123748772D01*
X97666540Y-123453063D01*
X97700500Y-123151657D01*
X97700500Y-122848343D01*
X97666540Y-122546937D01*
X97599046Y-122251228D01*
X97556504Y-122129651D01*
X97498868Y-121964936D01*
X97498868Y-121964935D01*
X97367265Y-121691659D01*
X97205892Y-121434836D01*
X97016779Y-121197696D01*
X96802304Y-120983221D01*
X96565164Y-120794108D01*
X96308341Y-120632735D01*
X96308333Y-120632731D01*
X96308326Y-120632727D01*
X96035065Y-120501132D01*
X96035063Y-120501131D01*
X95748775Y-120400954D01*
X95453061Y-120333459D01*
X95151658Y-120299500D01*
X95151657Y-120299500D01*
X94848343Y-120299500D01*
X94848341Y-120299500D01*
X94546938Y-120333459D01*
X94251224Y-120400954D01*
X93964936Y-120501131D01*
X93964934Y-120501132D01*
X93691673Y-120632727D01*
X93691660Y-120632734D01*
X93691659Y-120632735D01*
X93660988Y-120652007D01*
X93434835Y-120794108D01*
X93197697Y-120983220D01*
X92983220Y-121197697D01*
X92794108Y-121434835D01*
X92632734Y-121691661D01*
X92632727Y-121691673D01*
X92501132Y-121964934D01*
X92501131Y-121964936D01*
X92400954Y-122251224D01*
X92333459Y-122546938D01*
X92299500Y-122848341D01*
X90200500Y-122848341D01*
X90200500Y-119396532D01*
X101949500Y-119396532D01*
X101949500Y-119603467D01*
X101989869Y-119806418D01*
X102069058Y-119997597D01*
X102184020Y-120169651D01*
X102184023Y-120169655D01*
X102330345Y-120315977D01*
X102502402Y-120430941D01*
X102693580Y-120510130D01*
X102896535Y-120550500D01*
X102896536Y-120550500D01*
X103103464Y-120550500D01*
X103103465Y-120550500D01*
X103306420Y-120510130D01*
X103497598Y-120430941D01*
X103669655Y-120315977D01*
X103815977Y-120169655D01*
X103930941Y-119997598D01*
X104010130Y-119806420D01*
X104050500Y-119603465D01*
X104050500Y-119396535D01*
X104050499Y-119396532D01*
X104489500Y-119396532D01*
X104489500Y-119603467D01*
X104529869Y-119806418D01*
X104609058Y-119997597D01*
X104724020Y-120169651D01*
X104724023Y-120169655D01*
X104870345Y-120315977D01*
X105042402Y-120430941D01*
X105233580Y-120510130D01*
X105436535Y-120550500D01*
X105436536Y-120550500D01*
X105643464Y-120550500D01*
X105643465Y-120550500D01*
X105846420Y-120510130D01*
X106037598Y-120430941D01*
X106209655Y-120315977D01*
X106355977Y-120169655D01*
X106470941Y-119997598D01*
X106550130Y-119806420D01*
X106590500Y-119603465D01*
X106590500Y-119396535D01*
X106590499Y-119396532D01*
X107029500Y-119396532D01*
X107029500Y-119603467D01*
X107069869Y-119806418D01*
X107149058Y-119997597D01*
X107264020Y-120169651D01*
X107264023Y-120169655D01*
X107410345Y-120315977D01*
X107582402Y-120430941D01*
X107773580Y-120510130D01*
X107976535Y-120550500D01*
X107976536Y-120550500D01*
X108183464Y-120550500D01*
X108183465Y-120550500D01*
X108386420Y-120510130D01*
X108577598Y-120430941D01*
X108749655Y-120315977D01*
X108895977Y-120169655D01*
X109010941Y-119997598D01*
X109090130Y-119806420D01*
X109130500Y-119603465D01*
X109130500Y-119396535D01*
X109130499Y-119396532D01*
X109569500Y-119396532D01*
X109569500Y-119603467D01*
X109609869Y-119806418D01*
X109689058Y-119997597D01*
X109804020Y-120169651D01*
X109804023Y-120169655D01*
X109950345Y-120315977D01*
X110122402Y-120430941D01*
X110313580Y-120510130D01*
X110516535Y-120550500D01*
X110516536Y-120550500D01*
X110723464Y-120550500D01*
X110723465Y-120550500D01*
X110926420Y-120510130D01*
X111117598Y-120430941D01*
X111289655Y-120315977D01*
X111435977Y-120169655D01*
X111550941Y-119997598D01*
X111630130Y-119806420D01*
X111670500Y-119603465D01*
X111670500Y-119396535D01*
X111670499Y-119396532D01*
X112109500Y-119396532D01*
X112109500Y-119603467D01*
X112149869Y-119806418D01*
X112229058Y-119997597D01*
X112344020Y-120169651D01*
X112344023Y-120169655D01*
X112490345Y-120315977D01*
X112662402Y-120430941D01*
X112853580Y-120510130D01*
X113056535Y-120550500D01*
X113056536Y-120550500D01*
X113263464Y-120550500D01*
X113263465Y-120550500D01*
X113466420Y-120510130D01*
X113657598Y-120430941D01*
X113829655Y-120315977D01*
X113975977Y-120169655D01*
X114090941Y-119997598D01*
X114170130Y-119806420D01*
X114210500Y-119603465D01*
X114210500Y-119396535D01*
X114170130Y-119193580D01*
X114113801Y-119057592D01*
X114109001Y-118996600D01*
X114135261Y-118949708D01*
X114431875Y-118653096D01*
X114486391Y-118625319D01*
X114501878Y-118624100D01*
X114851261Y-118624100D01*
X114909452Y-118643007D01*
X114945416Y-118692507D01*
X114945416Y-118753693D01*
X114921266Y-118793101D01*
X114897836Y-118816532D01*
X114884020Y-118830348D01*
X114769058Y-119002402D01*
X114689869Y-119193581D01*
X114649500Y-119396532D01*
X114649500Y-119603467D01*
X114689869Y-119806418D01*
X114769058Y-119997597D01*
X114884020Y-120169651D01*
X114884023Y-120169655D01*
X115030345Y-120315977D01*
X115202402Y-120430941D01*
X115393580Y-120510130D01*
X115596535Y-120550500D01*
X115596536Y-120550500D01*
X115803464Y-120550500D01*
X115803465Y-120550500D01*
X116006420Y-120510130D01*
X116142405Y-120453802D01*
X116203399Y-120449002D01*
X116250292Y-120475263D01*
X117482340Y-121707311D01*
X117482339Y-121707311D01*
X117538289Y-121763260D01*
X117606807Y-121802819D01*
X117606811Y-121802821D01*
X117683235Y-121823299D01*
X117683237Y-121823300D01*
X117683238Y-121823300D01*
X141025979Y-121823300D01*
X141084170Y-121842207D01*
X141095976Y-121852290D01*
X141166986Y-121923300D01*
X141166988Y-121923301D01*
X141166990Y-121923303D01*
X141281110Y-121989190D01*
X141281108Y-121989190D01*
X141281112Y-121989191D01*
X141281114Y-121989192D01*
X141408408Y-122023300D01*
X141408410Y-122023300D01*
X141540190Y-122023300D01*
X141540192Y-122023300D01*
X141667486Y-121989192D01*
X141667488Y-121989190D01*
X141667490Y-121989190D01*
X141781609Y-121923303D01*
X141781609Y-121923302D01*
X141781614Y-121923300D01*
X141874800Y-121830114D01*
X141911575Y-121766418D01*
X141940690Y-121715990D01*
X141940690Y-121715988D01*
X141940692Y-121715986D01*
X141974800Y-121588692D01*
X141974800Y-121481600D01*
X141993707Y-121423409D01*
X142043207Y-121387445D01*
X142073800Y-121382600D01*
X144395233Y-121382600D01*
X144453424Y-121401507D01*
X144489388Y-121451007D01*
X144489388Y-121512193D01*
X144453424Y-121561693D01*
X144450234Y-121563916D01*
X144330348Y-121644020D01*
X144184020Y-121790348D01*
X144069058Y-121962402D01*
X143989869Y-122153581D01*
X143949500Y-122356532D01*
X143949500Y-122563467D01*
X143989869Y-122766418D01*
X144069058Y-122957597D01*
X144145343Y-123071766D01*
X144184023Y-123129655D01*
X144330345Y-123275977D01*
X144502402Y-123390941D01*
X144693580Y-123470130D01*
X144896535Y-123510500D01*
X144896536Y-123510500D01*
X145103464Y-123510500D01*
X145103465Y-123510500D01*
X145306420Y-123470130D01*
X145497598Y-123390941D01*
X145669655Y-123275977D01*
X145815379Y-123130253D01*
X148949500Y-123130253D01*
X148949500Y-124869746D01*
X148949501Y-124869758D01*
X148954828Y-124896535D01*
X148961133Y-124928231D01*
X149005448Y-124994552D01*
X149071769Y-125038867D01*
X149116231Y-125047711D01*
X149130241Y-125050498D01*
X149130246Y-125050498D01*
X149130252Y-125050500D01*
X149130253Y-125050500D01*
X150869747Y-125050500D01*
X150869748Y-125050500D01*
X150928231Y-125038867D01*
X150994552Y-124994552D01*
X151038867Y-124928231D01*
X151050500Y-124869748D01*
X151050500Y-123130253D01*
X164189500Y-123130253D01*
X164189500Y-124869746D01*
X164189501Y-124869758D01*
X164194828Y-124896535D01*
X164201133Y-124928231D01*
X164245448Y-124994552D01*
X164311769Y-125038867D01*
X164356231Y-125047711D01*
X164370241Y-125050498D01*
X164370246Y-125050498D01*
X164370252Y-125050500D01*
X164370253Y-125050500D01*
X166109747Y-125050500D01*
X166109748Y-125050500D01*
X166168231Y-125038867D01*
X166234552Y-124994552D01*
X166278867Y-124928231D01*
X166290500Y-124869748D01*
X166290500Y-124848341D01*
X172299500Y-124848341D01*
X172299500Y-125151658D01*
X172333459Y-125453061D01*
X172400954Y-125748775D01*
X172501131Y-126035063D01*
X172501132Y-126035065D01*
X172632727Y-126308326D01*
X172632731Y-126308333D01*
X172632735Y-126308341D01*
X172794108Y-126565164D01*
X172983221Y-126802304D01*
X173197696Y-127016779D01*
X173434836Y-127205892D01*
X173691659Y-127367265D01*
X173691670Y-127367270D01*
X173691673Y-127367272D01*
X173782462Y-127410993D01*
X173964935Y-127498868D01*
X174085968Y-127541219D01*
X174251224Y-127599045D01*
X174251227Y-127599045D01*
X174251228Y-127599046D01*
X174546937Y-127666540D01*
X174848343Y-127700500D01*
X174848344Y-127700500D01*
X175151656Y-127700500D01*
X175151657Y-127700500D01*
X175453063Y-127666540D01*
X175748772Y-127599046D01*
X176035065Y-127498868D01*
X176308341Y-127367265D01*
X176565164Y-127205892D01*
X176802304Y-127016779D01*
X177016779Y-126802304D01*
X177205892Y-126565164D01*
X177367265Y-126308341D01*
X177498868Y-126035065D01*
X177599046Y-125748772D01*
X177666540Y-125453063D01*
X177700500Y-125151657D01*
X177700500Y-124848343D01*
X177700500Y-124848341D01*
X182299500Y-124848341D01*
X182299500Y-125151658D01*
X182333459Y-125453061D01*
X182400954Y-125748775D01*
X182501131Y-126035063D01*
X182501132Y-126035065D01*
X182632727Y-126308326D01*
X182632731Y-126308333D01*
X182632735Y-126308341D01*
X182794108Y-126565164D01*
X182983221Y-126802304D01*
X183197696Y-127016779D01*
X183434836Y-127205892D01*
X183691659Y-127367265D01*
X183691670Y-127367270D01*
X183691673Y-127367272D01*
X183782462Y-127410993D01*
X183964935Y-127498868D01*
X184085968Y-127541219D01*
X184251224Y-127599045D01*
X184251227Y-127599045D01*
X184251228Y-127599046D01*
X184546937Y-127666540D01*
X184848343Y-127700500D01*
X184848344Y-127700500D01*
X185151656Y-127700500D01*
X185151657Y-127700500D01*
X185453063Y-127666540D01*
X185748772Y-127599046D01*
X186035065Y-127498868D01*
X186308341Y-127367265D01*
X186565164Y-127205892D01*
X186802304Y-127016779D01*
X187016779Y-126802304D01*
X187205892Y-126565164D01*
X187367265Y-126308341D01*
X187498868Y-126035065D01*
X187599046Y-125748772D01*
X187666540Y-125453063D01*
X187700500Y-125151657D01*
X187700500Y-124848343D01*
X187666540Y-124546937D01*
X187599046Y-124251228D01*
X187498868Y-123964935D01*
X187367265Y-123691659D01*
X187205892Y-123434836D01*
X187016779Y-123197696D01*
X186802304Y-122983221D01*
X186565164Y-122794108D01*
X186308341Y-122632735D01*
X186308333Y-122632731D01*
X186308326Y-122632727D01*
X186035065Y-122501132D01*
X186035063Y-122501131D01*
X185748775Y-122400954D01*
X185453061Y-122333459D01*
X185151658Y-122299500D01*
X185151657Y-122299500D01*
X184848343Y-122299500D01*
X184848341Y-122299500D01*
X184546938Y-122333459D01*
X184251224Y-122400954D01*
X183964936Y-122501131D01*
X183964934Y-122501132D01*
X183691673Y-122632727D01*
X183691661Y-122632734D01*
X183434835Y-122794108D01*
X183197697Y-122983220D01*
X182983220Y-123197697D01*
X182794108Y-123434835D01*
X182632734Y-123691661D01*
X182632727Y-123691673D01*
X182501132Y-123964934D01*
X182501131Y-123964936D01*
X182400954Y-124251224D01*
X182333459Y-124546938D01*
X182299500Y-124848341D01*
X177700500Y-124848341D01*
X177666540Y-124546937D01*
X177599046Y-124251228D01*
X177498868Y-123964935D01*
X177367265Y-123691659D01*
X177205892Y-123434836D01*
X177016779Y-123197696D01*
X176802304Y-122983221D01*
X176565164Y-122794108D01*
X176308341Y-122632735D01*
X176308333Y-122632731D01*
X176308326Y-122632727D01*
X176035065Y-122501132D01*
X176035063Y-122501131D01*
X175748775Y-122400954D01*
X175453061Y-122333459D01*
X175151658Y-122299500D01*
X175151657Y-122299500D01*
X174848343Y-122299500D01*
X174848341Y-122299500D01*
X174546938Y-122333459D01*
X174251224Y-122400954D01*
X173964936Y-122501131D01*
X173964934Y-122501132D01*
X173691673Y-122632727D01*
X173691661Y-122632734D01*
X173434835Y-122794108D01*
X173197697Y-122983220D01*
X172983220Y-123197697D01*
X172794108Y-123434835D01*
X172632734Y-123691661D01*
X172632727Y-123691673D01*
X172501132Y-123964934D01*
X172501131Y-123964936D01*
X172400954Y-124251224D01*
X172333459Y-124546938D01*
X172299500Y-124848341D01*
X166290500Y-124848341D01*
X166290500Y-123130252D01*
X166290380Y-123129651D01*
X166287711Y-123116231D01*
X166278867Y-123071769D01*
X166234552Y-123005448D01*
X166234548Y-123005445D01*
X166168233Y-122961134D01*
X166168231Y-122961133D01*
X166168228Y-122961132D01*
X166168227Y-122961132D01*
X166109758Y-122949501D01*
X166109748Y-122949500D01*
X164370252Y-122949500D01*
X164370251Y-122949500D01*
X164370241Y-122949501D01*
X164311772Y-122961132D01*
X164311766Y-122961134D01*
X164245451Y-123005445D01*
X164245445Y-123005451D01*
X164201134Y-123071766D01*
X164201132Y-123071772D01*
X164189501Y-123130241D01*
X164189500Y-123130253D01*
X151050500Y-123130253D01*
X151050500Y-123130252D01*
X151050380Y-123129651D01*
X151047711Y-123116231D01*
X151038867Y-123071769D01*
X150994552Y-123005448D01*
X150994548Y-123005445D01*
X150928233Y-122961134D01*
X150928231Y-122961133D01*
X150928228Y-122961132D01*
X150928227Y-122961132D01*
X150869758Y-122949501D01*
X150869748Y-122949500D01*
X149130252Y-122949500D01*
X149130251Y-122949500D01*
X149130241Y-122949501D01*
X149071772Y-122961132D01*
X149071766Y-122961134D01*
X149005451Y-123005445D01*
X149005445Y-123005451D01*
X148961134Y-123071766D01*
X148961132Y-123071772D01*
X148949501Y-123130241D01*
X148949500Y-123130253D01*
X145815379Y-123130253D01*
X145815977Y-123129655D01*
X145930941Y-122957598D01*
X146010130Y-122766420D01*
X146050500Y-122563465D01*
X146050500Y-122356535D01*
X146010130Y-122153580D01*
X145930941Y-121962402D01*
X145815977Y-121790345D01*
X145669655Y-121644023D01*
X145549766Y-121563916D01*
X145511886Y-121515866D01*
X145509484Y-121454728D01*
X145543477Y-121403854D01*
X145600880Y-121382676D01*
X145604767Y-121382600D01*
X147877463Y-121382600D01*
X147877463Y-121382599D01*
X147953889Y-121362121D01*
X147963569Y-121356532D01*
X164189500Y-121356532D01*
X164189500Y-121563467D01*
X164229869Y-121766418D01*
X164309058Y-121957597D01*
X164313961Y-121964935D01*
X164424023Y-122129655D01*
X164570345Y-122275977D01*
X164742402Y-122390941D01*
X164933580Y-122470130D01*
X165136535Y-122510500D01*
X165136536Y-122510500D01*
X165343464Y-122510500D01*
X165343465Y-122510500D01*
X165546420Y-122470130D01*
X165737598Y-122390941D01*
X165909655Y-122275977D01*
X166055977Y-122129655D01*
X166170941Y-121957598D01*
X166250130Y-121766420D01*
X166290500Y-121563465D01*
X166290500Y-121356535D01*
X166250130Y-121153580D01*
X166170941Y-120962402D01*
X166055977Y-120790345D01*
X165909655Y-120644023D01*
X165909651Y-120644020D01*
X165737597Y-120529058D01*
X165546418Y-120449869D01*
X165343467Y-120409500D01*
X165343465Y-120409500D01*
X165136535Y-120409500D01*
X165136532Y-120409500D01*
X164933581Y-120449869D01*
X164742402Y-120529058D01*
X164570348Y-120644020D01*
X164424020Y-120790348D01*
X164309058Y-120962402D01*
X164229869Y-121153581D01*
X164189500Y-121356532D01*
X147963569Y-121356532D01*
X148022411Y-121322560D01*
X148078360Y-121266611D01*
X149449708Y-119895261D01*
X149504223Y-119867486D01*
X149557595Y-119873802D01*
X149693580Y-119930130D01*
X149896535Y-119970500D01*
X149896536Y-119970500D01*
X150103464Y-119970500D01*
X150103465Y-119970500D01*
X150306420Y-119930130D01*
X150497598Y-119850941D01*
X150669655Y-119735977D01*
X150815977Y-119589655D01*
X150930941Y-119417598D01*
X151010130Y-119226420D01*
X151050500Y-119023465D01*
X151050500Y-118816535D01*
X151050499Y-118816532D01*
X164189500Y-118816532D01*
X164189500Y-119023467D01*
X164229869Y-119226418D01*
X164309058Y-119417597D01*
X164349148Y-119477596D01*
X164424023Y-119589655D01*
X164570345Y-119735977D01*
X164742402Y-119850941D01*
X164933580Y-119930130D01*
X165136535Y-119970500D01*
X165136536Y-119970500D01*
X165343464Y-119970500D01*
X165343465Y-119970500D01*
X165546420Y-119930130D01*
X165737598Y-119850941D01*
X165909655Y-119735977D01*
X166055977Y-119589655D01*
X166170941Y-119417598D01*
X166250130Y-119226420D01*
X166290500Y-119023465D01*
X166290500Y-118816535D01*
X166250130Y-118613580D01*
X166170941Y-118422402D01*
X166055977Y-118250345D01*
X165909655Y-118104023D01*
X165909651Y-118104020D01*
X165737597Y-117989058D01*
X165546418Y-117909869D01*
X165343467Y-117869500D01*
X165343465Y-117869500D01*
X165136535Y-117869500D01*
X165136532Y-117869500D01*
X164933581Y-117909869D01*
X164742402Y-117989058D01*
X164570348Y-118104020D01*
X164424020Y-118250348D01*
X164309058Y-118422402D01*
X164229869Y-118613581D01*
X164189500Y-118816532D01*
X151050499Y-118816532D01*
X151010130Y-118613580D01*
X150930941Y-118422402D01*
X150815977Y-118250345D01*
X150669655Y-118104023D01*
X150669651Y-118104020D01*
X150669648Y-118104017D01*
X150621454Y-118071815D01*
X150583574Y-118023766D01*
X150581172Y-117962627D01*
X150615165Y-117911754D01*
X150672568Y-117890576D01*
X150676455Y-117890500D01*
X161529563Y-117890500D01*
X161529563Y-117890499D01*
X161605989Y-117870021D01*
X161674511Y-117830460D01*
X161730460Y-117774511D01*
X163228438Y-116276532D01*
X164189500Y-116276532D01*
X164189500Y-116483467D01*
X164229869Y-116686418D01*
X164309058Y-116877597D01*
X164309059Y-116877598D01*
X164424023Y-117049655D01*
X164570345Y-117195977D01*
X164742402Y-117310941D01*
X164933580Y-117390130D01*
X165136535Y-117430500D01*
X165136536Y-117430500D01*
X165343464Y-117430500D01*
X165343465Y-117430500D01*
X165546420Y-117390130D01*
X165737598Y-117310941D01*
X165909655Y-117195977D01*
X166055977Y-117049655D01*
X166170941Y-116877598D01*
X166250130Y-116686420D01*
X166290500Y-116483465D01*
X166290500Y-116276535D01*
X166250130Y-116073580D01*
X166170941Y-115882402D01*
X166055977Y-115710345D01*
X165909655Y-115564023D01*
X165828281Y-115509651D01*
X165737597Y-115449058D01*
X165546418Y-115369869D01*
X165343467Y-115329500D01*
X165343465Y-115329500D01*
X165136535Y-115329500D01*
X165136532Y-115329500D01*
X164933581Y-115369869D01*
X164742402Y-115449058D01*
X164570348Y-115564020D01*
X164424020Y-115710348D01*
X164309058Y-115882402D01*
X164229869Y-116073581D01*
X164189500Y-116276532D01*
X163228438Y-116276532D01*
X164689708Y-114815261D01*
X164744223Y-114787486D01*
X164797595Y-114793802D01*
X164933580Y-114850130D01*
X165136535Y-114890500D01*
X165136536Y-114890500D01*
X165343464Y-114890500D01*
X165343465Y-114890500D01*
X165546420Y-114850130D01*
X165737598Y-114770941D01*
X165909655Y-114655977D01*
X166055977Y-114509655D01*
X166170941Y-114337598D01*
X166250130Y-114146420D01*
X166290500Y-113943465D01*
X166290500Y-113736535D01*
X166250130Y-113533580D01*
X166170941Y-113342402D01*
X166055977Y-113170345D01*
X165909655Y-113024023D01*
X165737598Y-112909059D01*
X165737599Y-112909059D01*
X165737597Y-112909058D01*
X165546418Y-112829869D01*
X165343467Y-112789500D01*
X165343465Y-112789500D01*
X165136535Y-112789500D01*
X165136532Y-112789500D01*
X164933581Y-112829869D01*
X164742402Y-112909058D01*
X164570348Y-113024020D01*
X164424020Y-113170348D01*
X164309058Y-113342402D01*
X164229869Y-113533581D01*
X164189500Y-113736532D01*
X164189500Y-113943467D01*
X164229869Y-114146418D01*
X164286196Y-114282401D01*
X164290997Y-114343398D01*
X164264736Y-114390291D01*
X161394525Y-117260504D01*
X161340008Y-117288281D01*
X161324521Y-117289500D01*
X150815139Y-117289500D01*
X150756948Y-117270593D01*
X150720984Y-117221093D01*
X150720984Y-117159907D01*
X150745133Y-117120498D01*
X150815977Y-117049655D01*
X150930941Y-116877598D01*
X151010130Y-116686420D01*
X151050500Y-116483465D01*
X151050500Y-116276535D01*
X151010130Y-116073580D01*
X150930941Y-115882402D01*
X150815977Y-115710345D01*
X150669655Y-115564023D01*
X150534499Y-115473715D01*
X150496620Y-115425666D01*
X150494218Y-115364528D01*
X150528210Y-115313654D01*
X150585614Y-115292476D01*
X150589501Y-115292400D01*
X161587663Y-115292400D01*
X161587663Y-115292399D01*
X161664089Y-115271921D01*
X161732611Y-115232360D01*
X161788560Y-115176411D01*
X164689708Y-112275261D01*
X164744223Y-112247486D01*
X164797595Y-112253802D01*
X164933580Y-112310130D01*
X165136535Y-112350500D01*
X165136536Y-112350500D01*
X165343464Y-112350500D01*
X165343465Y-112350500D01*
X165546420Y-112310130D01*
X165737598Y-112230941D01*
X165909655Y-112115977D01*
X166055977Y-111969655D01*
X166170941Y-111797598D01*
X166250130Y-111606420D01*
X166290500Y-111403465D01*
X166290500Y-111196535D01*
X166250130Y-110993580D01*
X166170941Y-110802402D01*
X166055977Y-110630345D01*
X165909655Y-110484023D01*
X165778721Y-110396536D01*
X165737597Y-110369058D01*
X165546418Y-110289869D01*
X165343467Y-110249500D01*
X165343465Y-110249500D01*
X165136535Y-110249500D01*
X165136532Y-110249500D01*
X164933581Y-110289869D01*
X164742402Y-110369058D01*
X164570348Y-110484020D01*
X164424020Y-110630348D01*
X164309058Y-110802402D01*
X164229869Y-110993581D01*
X164189500Y-111196532D01*
X164189500Y-111403467D01*
X164229869Y-111606418D01*
X164286196Y-111742401D01*
X164290997Y-111803398D01*
X164264736Y-111850291D01*
X161452625Y-114662404D01*
X161398108Y-114690181D01*
X161382621Y-114691400D01*
X150873239Y-114691400D01*
X150815048Y-114672493D01*
X150779084Y-114622993D01*
X150779084Y-114561807D01*
X150803233Y-114522398D01*
X150815977Y-114509655D01*
X150930941Y-114337598D01*
X151010130Y-114146420D01*
X151050500Y-113943465D01*
X151050500Y-113736535D01*
X151010130Y-113533580D01*
X150930941Y-113342402D01*
X150815977Y-113170345D01*
X150669655Y-113024023D01*
X150497598Y-112909059D01*
X150497599Y-112909059D01*
X150497597Y-112909058D01*
X150306418Y-112829869D01*
X150103467Y-112789500D01*
X150103465Y-112789500D01*
X149896535Y-112789500D01*
X149896532Y-112789500D01*
X149693581Y-112829869D01*
X149502402Y-112909058D01*
X149330348Y-113024020D01*
X149184020Y-113170348D01*
X149149174Y-113222501D01*
X149101124Y-113260381D01*
X149066858Y-113266500D01*
X120612479Y-113266500D01*
X120554288Y-113247593D01*
X120542475Y-113237504D01*
X118355263Y-111050292D01*
X118327486Y-110995775D01*
X118333802Y-110942405D01*
X118390130Y-110806420D01*
X118430500Y-110603465D01*
X118430500Y-110396535D01*
X118430499Y-110396532D01*
X118869500Y-110396532D01*
X118869500Y-110603467D01*
X118909869Y-110806418D01*
X118989058Y-110997597D01*
X119104020Y-111169651D01*
X119104023Y-111169655D01*
X119250345Y-111315977D01*
X119422402Y-111430941D01*
X119613580Y-111510130D01*
X119816535Y-111550500D01*
X119816536Y-111550500D01*
X120023464Y-111550500D01*
X120023465Y-111550500D01*
X120226420Y-111510130D01*
X120417598Y-111430941D01*
X120589655Y-111315977D01*
X120735977Y-111169655D01*
X120850941Y-110997598D01*
X120930130Y-110806420D01*
X120970500Y-110603465D01*
X120970500Y-110396535D01*
X120930130Y-110193580D01*
X120873801Y-110057592D01*
X120869001Y-109996600D01*
X120895261Y-109949708D01*
X121211375Y-109633596D01*
X121265891Y-109605819D01*
X121281378Y-109604600D01*
X123850500Y-109604600D01*
X123908691Y-109623507D01*
X123944655Y-109673007D01*
X123949500Y-109703600D01*
X123949500Y-111369746D01*
X123949501Y-111369758D01*
X123961132Y-111428227D01*
X123961134Y-111428233D01*
X123975012Y-111449002D01*
X124005448Y-111494552D01*
X124071769Y-111538867D01*
X124116231Y-111547711D01*
X124130241Y-111550498D01*
X124130246Y-111550498D01*
X124130252Y-111550500D01*
X124130253Y-111550500D01*
X125869747Y-111550500D01*
X125869748Y-111550500D01*
X125928231Y-111538867D01*
X125994552Y-111494552D01*
X126038867Y-111428231D01*
X126050500Y-111369748D01*
X126050500Y-109703600D01*
X126069407Y-109645409D01*
X126118907Y-109609445D01*
X126149500Y-109604600D01*
X131248921Y-109604600D01*
X131307112Y-109623507D01*
X131318925Y-109633596D01*
X132899840Y-111214511D01*
X132899839Y-111214511D01*
X132955789Y-111270460D01*
X133024307Y-111310019D01*
X133024311Y-111310021D01*
X133100735Y-111330499D01*
X133100737Y-111330500D01*
X133100738Y-111330500D01*
X133179862Y-111330500D01*
X148853739Y-111330500D01*
X148911930Y-111349407D01*
X148947894Y-111398907D01*
X148950837Y-111410186D01*
X148989869Y-111606418D01*
X149069058Y-111797597D01*
X149069059Y-111797598D01*
X149184023Y-111969655D01*
X149330345Y-112115977D01*
X149502402Y-112230941D01*
X149693580Y-112310130D01*
X149896535Y-112350500D01*
X149896536Y-112350500D01*
X150103464Y-112350500D01*
X150103465Y-112350500D01*
X150306420Y-112310130D01*
X150497598Y-112230941D01*
X150669655Y-112115977D01*
X150815977Y-111969655D01*
X150930941Y-111797598D01*
X151010130Y-111606420D01*
X151050500Y-111403465D01*
X151050500Y-111196535D01*
X151010130Y-110993580D01*
X150930941Y-110802402D01*
X150815977Y-110630345D01*
X150669655Y-110484023D01*
X150538721Y-110396536D01*
X150497597Y-110369058D01*
X150306418Y-110289869D01*
X150103467Y-110249500D01*
X150103465Y-110249500D01*
X149896535Y-110249500D01*
X149896532Y-110249500D01*
X149693581Y-110289869D01*
X149502402Y-110369058D01*
X149330348Y-110484020D01*
X149184020Y-110630348D01*
X149147169Y-110685501D01*
X149099119Y-110723381D01*
X149064853Y-110729500D01*
X145755139Y-110729500D01*
X145696948Y-110710593D01*
X145660984Y-110661093D01*
X145660984Y-110599907D01*
X145685133Y-110560498D01*
X145815977Y-110429655D01*
X145930941Y-110257598D01*
X146010130Y-110066420D01*
X146050500Y-109863465D01*
X146050500Y-109656535D01*
X146010130Y-109453580D01*
X145930941Y-109262402D01*
X145815977Y-109090345D01*
X145669655Y-108944023D01*
X145497598Y-108829059D01*
X145497599Y-108829059D01*
X145497597Y-108829058D01*
X145306418Y-108749869D01*
X145103467Y-108709500D01*
X145103465Y-108709500D01*
X144896535Y-108709500D01*
X144896532Y-108709500D01*
X144693581Y-108749869D01*
X144502402Y-108829058D01*
X144330348Y-108944020D01*
X144184020Y-109090348D01*
X144069058Y-109262402D01*
X143989869Y-109453581D01*
X143949500Y-109656532D01*
X143949500Y-109863467D01*
X143989869Y-110066418D01*
X144069058Y-110257597D01*
X144184020Y-110429651D01*
X144184023Y-110429655D01*
X144314866Y-110560498D01*
X144342642Y-110615013D01*
X144333071Y-110675445D01*
X144289806Y-110718710D01*
X144244861Y-110729500D01*
X133305779Y-110729500D01*
X133247588Y-110710593D01*
X133235775Y-110700504D01*
X132484977Y-109949706D01*
X131598911Y-109063640D01*
X131587169Y-109056861D01*
X131555092Y-109038341D01*
X131555091Y-109038341D01*
X131530388Y-109024078D01*
X131453964Y-109003600D01*
X131453962Y-109003600D01*
X121076338Y-109003600D01*
X121076335Y-109003600D01*
X120999912Y-109024078D01*
X120975207Y-109038342D01*
X120975206Y-109038341D01*
X120931388Y-109063640D01*
X120470291Y-109524736D01*
X120415775Y-109552513D01*
X120362402Y-109546196D01*
X120226418Y-109489869D01*
X120023467Y-109449500D01*
X120023465Y-109449500D01*
X119816535Y-109449500D01*
X119816532Y-109449500D01*
X119613581Y-109489869D01*
X119422402Y-109569058D01*
X119250348Y-109684020D01*
X119104020Y-109830348D01*
X118989058Y-110002402D01*
X118909869Y-110193581D01*
X118869500Y-110396532D01*
X118430499Y-110396532D01*
X118390130Y-110193580D01*
X118310941Y-110002402D01*
X118195977Y-109830345D01*
X118049655Y-109684023D01*
X118049651Y-109684020D01*
X117877597Y-109569058D01*
X117686418Y-109489869D01*
X117483467Y-109449500D01*
X117483465Y-109449500D01*
X117276535Y-109449500D01*
X117276532Y-109449500D01*
X117073581Y-109489869D01*
X116882402Y-109569058D01*
X116710348Y-109684020D01*
X116564020Y-109830348D01*
X116449058Y-110002402D01*
X116369869Y-110193581D01*
X116329500Y-110396532D01*
X116329500Y-110603467D01*
X116369869Y-110806418D01*
X116449058Y-110997597D01*
X116564020Y-111169651D01*
X116564023Y-111169655D01*
X116710345Y-111315977D01*
X116882402Y-111430941D01*
X117073580Y-111510130D01*
X117276535Y-111550500D01*
X117276536Y-111550500D01*
X117483464Y-111550500D01*
X117483465Y-111550500D01*
X117686420Y-111510130D01*
X117822405Y-111453802D01*
X117883399Y-111449002D01*
X117930292Y-111475263D01*
X120206540Y-113751511D01*
X120206539Y-113751511D01*
X120262489Y-113807460D01*
X120331007Y-113847019D01*
X120331011Y-113847021D01*
X120407435Y-113867499D01*
X120407437Y-113867500D01*
X120407438Y-113867500D01*
X120486562Y-113867500D01*
X144247861Y-113867500D01*
X144306052Y-113886407D01*
X144342016Y-113935907D01*
X144342016Y-113997093D01*
X144317866Y-114036501D01*
X144207950Y-114146418D01*
X144184020Y-114170348D01*
X144069058Y-114342402D01*
X143989869Y-114533581D01*
X143949500Y-114736532D01*
X143949500Y-114943467D01*
X143989869Y-115146418D01*
X144069058Y-115337597D01*
X144143534Y-115449059D01*
X144184023Y-115509655D01*
X144314866Y-115640498D01*
X144342642Y-115695013D01*
X144333071Y-115755445D01*
X144289806Y-115798710D01*
X144244861Y-115809500D01*
X120615479Y-115809500D01*
X120557288Y-115790593D01*
X120545475Y-115780504D01*
X115815263Y-111050292D01*
X115787486Y-110995775D01*
X115793802Y-110942405D01*
X115850130Y-110806420D01*
X115890500Y-110603465D01*
X115890500Y-110396535D01*
X115850130Y-110193580D01*
X115770941Y-110002402D01*
X115655977Y-109830345D01*
X115509655Y-109684023D01*
X115509651Y-109684020D01*
X115337597Y-109569058D01*
X115146418Y-109489869D01*
X114943467Y-109449500D01*
X114943465Y-109449500D01*
X114736535Y-109449500D01*
X114736532Y-109449500D01*
X114533581Y-109489869D01*
X114342402Y-109569058D01*
X114170348Y-109684020D01*
X114024020Y-109830348D01*
X113909058Y-110002402D01*
X113829869Y-110193581D01*
X113789500Y-110396532D01*
X113789500Y-110603467D01*
X113829869Y-110806418D01*
X113909058Y-110997597D01*
X114024020Y-111169651D01*
X114024023Y-111169655D01*
X114170345Y-111315977D01*
X114342402Y-111430941D01*
X114533580Y-111510130D01*
X114736535Y-111550500D01*
X114736536Y-111550500D01*
X114943464Y-111550500D01*
X114943465Y-111550500D01*
X115146420Y-111510130D01*
X115282405Y-111453802D01*
X115343399Y-111449002D01*
X115390292Y-111475263D01*
X120209540Y-116294511D01*
X120209539Y-116294511D01*
X120265489Y-116350460D01*
X120334007Y-116390019D01*
X120334011Y-116390021D01*
X120410435Y-116410499D01*
X120410437Y-116410500D01*
X120410438Y-116410500D01*
X144244861Y-116410500D01*
X144303052Y-116429407D01*
X144339016Y-116478907D01*
X144339016Y-116540093D01*
X144314866Y-116579501D01*
X144207950Y-116686418D01*
X144184020Y-116710348D01*
X144069058Y-116882402D01*
X143989869Y-117073581D01*
X143949500Y-117276532D01*
X143949500Y-117483467D01*
X143989869Y-117686418D01*
X144069058Y-117877597D01*
X144184020Y-118049651D01*
X144184023Y-118049655D01*
X144330345Y-118195977D01*
X144502402Y-118310941D01*
X144693580Y-118390130D01*
X144896535Y-118430500D01*
X144896536Y-118430500D01*
X145103464Y-118430500D01*
X145103465Y-118430500D01*
X145306420Y-118390130D01*
X145497598Y-118310941D01*
X145669655Y-118195977D01*
X145815977Y-118049655D01*
X145930941Y-117877598D01*
X146010130Y-117686420D01*
X146050500Y-117483465D01*
X146050500Y-117276535D01*
X146010130Y-117073580D01*
X145930941Y-116882402D01*
X145815977Y-116710345D01*
X145685133Y-116579501D01*
X145657358Y-116524987D01*
X145666929Y-116464555D01*
X145710194Y-116421290D01*
X145755139Y-116410500D01*
X148853739Y-116410500D01*
X148911930Y-116429407D01*
X148947894Y-116478907D01*
X148950837Y-116490186D01*
X148989869Y-116686418D01*
X149069058Y-116877597D01*
X149069059Y-116877598D01*
X149184023Y-117049655D01*
X149254866Y-117120498D01*
X149282642Y-117175013D01*
X149273071Y-117235445D01*
X149229806Y-117278710D01*
X149184861Y-117289500D01*
X147369562Y-117289500D01*
X147290438Y-117289500D01*
X147243661Y-117302033D01*
X147214007Y-117309979D01*
X147145493Y-117349536D01*
X147145492Y-117349537D01*
X145550292Y-118944736D01*
X145495775Y-118972513D01*
X145442402Y-118966196D01*
X145306418Y-118909869D01*
X145103467Y-118869500D01*
X145103465Y-118869500D01*
X144896535Y-118869500D01*
X144896532Y-118869500D01*
X144693580Y-118909870D01*
X144693578Y-118909870D01*
X144557596Y-118966196D01*
X144496600Y-118970997D01*
X144449707Y-118944736D01*
X144029707Y-118524736D01*
X143588111Y-118083140D01*
X143588108Y-118083138D01*
X143519592Y-118043580D01*
X143519588Y-118043578D01*
X143443164Y-118023100D01*
X143443162Y-118023100D01*
X114296838Y-118023100D01*
X114296835Y-118023100D01*
X114220411Y-118043578D01*
X114220407Y-118043580D01*
X114151889Y-118083139D01*
X113710291Y-118524736D01*
X113655775Y-118552513D01*
X113602402Y-118546196D01*
X113466418Y-118489869D01*
X113263467Y-118449500D01*
X113263465Y-118449500D01*
X113056535Y-118449500D01*
X113056532Y-118449500D01*
X112853581Y-118489869D01*
X112662402Y-118569058D01*
X112490348Y-118684020D01*
X112344020Y-118830348D01*
X112229058Y-119002402D01*
X112149869Y-119193581D01*
X112109500Y-119396532D01*
X111670499Y-119396532D01*
X111630130Y-119193580D01*
X111550941Y-119002402D01*
X111435977Y-118830345D01*
X111289655Y-118684023D01*
X111261049Y-118664909D01*
X111117597Y-118569058D01*
X110926418Y-118489869D01*
X110723467Y-118449500D01*
X110723465Y-118449500D01*
X110516535Y-118449500D01*
X110516532Y-118449500D01*
X110313581Y-118489869D01*
X110122402Y-118569058D01*
X109950348Y-118684020D01*
X109804020Y-118830348D01*
X109689058Y-119002402D01*
X109609869Y-119193581D01*
X109569500Y-119396532D01*
X109130499Y-119396532D01*
X109090130Y-119193580D01*
X109010941Y-119002402D01*
X108895977Y-118830345D01*
X108749655Y-118684023D01*
X108721049Y-118664909D01*
X108577597Y-118569058D01*
X108386418Y-118489869D01*
X108183467Y-118449500D01*
X108183465Y-118449500D01*
X107976535Y-118449500D01*
X107976532Y-118449500D01*
X107773581Y-118489869D01*
X107582402Y-118569058D01*
X107410348Y-118684020D01*
X107264020Y-118830348D01*
X107149058Y-119002402D01*
X107069869Y-119193581D01*
X107029500Y-119396532D01*
X106590499Y-119396532D01*
X106550130Y-119193580D01*
X106470941Y-119002402D01*
X106355977Y-118830345D01*
X106209655Y-118684023D01*
X106181049Y-118664909D01*
X106037597Y-118569058D01*
X105846418Y-118489869D01*
X105643467Y-118449500D01*
X105643465Y-118449500D01*
X105436535Y-118449500D01*
X105436532Y-118449500D01*
X105233581Y-118489869D01*
X105042402Y-118569058D01*
X104870348Y-118684020D01*
X104724020Y-118830348D01*
X104609058Y-119002402D01*
X104529869Y-119193581D01*
X104489500Y-119396532D01*
X104050499Y-119396532D01*
X104010130Y-119193580D01*
X103930941Y-119002402D01*
X103815977Y-118830345D01*
X103669655Y-118684023D01*
X103641049Y-118664909D01*
X103497597Y-118569058D01*
X103306418Y-118489869D01*
X103103467Y-118449500D01*
X103103465Y-118449500D01*
X102896535Y-118449500D01*
X102896532Y-118449500D01*
X102693581Y-118489869D01*
X102502402Y-118569058D01*
X102330348Y-118684020D01*
X102184020Y-118830348D01*
X102069058Y-119002402D01*
X101989869Y-119193581D01*
X101949500Y-119396532D01*
X90200500Y-119396532D01*
X90200500Y-110396532D01*
X103629500Y-110396532D01*
X103629500Y-110603467D01*
X103669869Y-110806418D01*
X103749058Y-110997597D01*
X103864020Y-111169651D01*
X103864023Y-111169655D01*
X104010345Y-111315977D01*
X104182402Y-111430941D01*
X104373580Y-111510130D01*
X104576535Y-111550500D01*
X104576536Y-111550500D01*
X104783464Y-111550500D01*
X104783465Y-111550500D01*
X104986420Y-111510130D01*
X105177598Y-111430941D01*
X105349655Y-111315977D01*
X105495977Y-111169655D01*
X105610941Y-110997598D01*
X105690130Y-110806420D01*
X105730500Y-110603465D01*
X105730500Y-110396535D01*
X105730499Y-110396532D01*
X106169500Y-110396532D01*
X106169500Y-110603467D01*
X106209869Y-110806418D01*
X106289058Y-110997597D01*
X106404020Y-111169651D01*
X106404023Y-111169655D01*
X106550345Y-111315977D01*
X106722402Y-111430941D01*
X106913580Y-111510130D01*
X107116535Y-111550500D01*
X107116536Y-111550500D01*
X107323464Y-111550500D01*
X107323465Y-111550500D01*
X107526420Y-111510130D01*
X107717598Y-111430941D01*
X107889655Y-111315977D01*
X108035977Y-111169655D01*
X108150941Y-110997598D01*
X108230130Y-110806420D01*
X108270500Y-110603465D01*
X108270500Y-110396535D01*
X108270499Y-110396532D01*
X108709500Y-110396532D01*
X108709500Y-110603467D01*
X108749869Y-110806418D01*
X108829058Y-110997597D01*
X108944020Y-111169651D01*
X108944023Y-111169655D01*
X109090345Y-111315977D01*
X109262402Y-111430941D01*
X109453580Y-111510130D01*
X109656535Y-111550500D01*
X109656536Y-111550500D01*
X109863464Y-111550500D01*
X109863465Y-111550500D01*
X110066420Y-111510130D01*
X110257598Y-111430941D01*
X110429655Y-111315977D01*
X110575977Y-111169655D01*
X110690941Y-110997598D01*
X110770130Y-110806420D01*
X110810500Y-110603465D01*
X110810500Y-110396535D01*
X110810499Y-110396532D01*
X111249500Y-110396532D01*
X111249500Y-110603467D01*
X111289869Y-110806418D01*
X111369058Y-110997597D01*
X111484020Y-111169651D01*
X111484023Y-111169655D01*
X111630345Y-111315977D01*
X111802402Y-111430941D01*
X111993580Y-111510130D01*
X112196535Y-111550500D01*
X112196536Y-111550500D01*
X112403464Y-111550500D01*
X112403465Y-111550500D01*
X112606420Y-111510130D01*
X112797598Y-111430941D01*
X112969655Y-111315977D01*
X113115977Y-111169655D01*
X113230941Y-110997598D01*
X113310130Y-110806420D01*
X113350500Y-110603465D01*
X113350500Y-110396535D01*
X113310130Y-110193580D01*
X113230941Y-110002402D01*
X113115977Y-109830345D01*
X112969655Y-109684023D01*
X112969651Y-109684020D01*
X112797597Y-109569058D01*
X112606418Y-109489869D01*
X112403467Y-109449500D01*
X112403465Y-109449500D01*
X112196535Y-109449500D01*
X112196532Y-109449500D01*
X111993581Y-109489869D01*
X111802402Y-109569058D01*
X111630348Y-109684020D01*
X111484020Y-109830348D01*
X111369058Y-110002402D01*
X111289869Y-110193581D01*
X111249500Y-110396532D01*
X110810499Y-110396532D01*
X110770130Y-110193580D01*
X110690941Y-110002402D01*
X110575977Y-109830345D01*
X110429655Y-109684023D01*
X110429651Y-109684020D01*
X110257597Y-109569058D01*
X110066418Y-109489869D01*
X109863467Y-109449500D01*
X109863465Y-109449500D01*
X109656535Y-109449500D01*
X109656532Y-109449500D01*
X109453581Y-109489869D01*
X109262402Y-109569058D01*
X109090348Y-109684020D01*
X108944020Y-109830348D01*
X108829058Y-110002402D01*
X108749869Y-110193581D01*
X108709500Y-110396532D01*
X108270499Y-110396532D01*
X108230130Y-110193580D01*
X108150941Y-110002402D01*
X108035977Y-109830345D01*
X107889655Y-109684023D01*
X107889651Y-109684020D01*
X107717597Y-109569058D01*
X107526418Y-109489869D01*
X107323467Y-109449500D01*
X107323465Y-109449500D01*
X107116535Y-109449500D01*
X107116532Y-109449500D01*
X106913581Y-109489869D01*
X106722402Y-109569058D01*
X106550348Y-109684020D01*
X106404020Y-109830348D01*
X106289058Y-110002402D01*
X106209869Y-110193581D01*
X106169500Y-110396532D01*
X105730499Y-110396532D01*
X105690130Y-110193580D01*
X105610941Y-110002402D01*
X105495977Y-109830345D01*
X105349655Y-109684023D01*
X105349651Y-109684020D01*
X105177597Y-109569058D01*
X104986418Y-109489869D01*
X104783467Y-109449500D01*
X104783465Y-109449500D01*
X104576535Y-109449500D01*
X104576532Y-109449500D01*
X104373581Y-109489869D01*
X104182402Y-109569058D01*
X104010348Y-109684020D01*
X103864020Y-109830348D01*
X103749058Y-110002402D01*
X103669869Y-110193581D01*
X103629500Y-110396532D01*
X90200500Y-110396532D01*
X90200500Y-106848341D01*
X92299500Y-106848341D01*
X92299500Y-107151658D01*
X92333459Y-107453061D01*
X92400954Y-107748775D01*
X92501131Y-108035063D01*
X92501132Y-108035065D01*
X92632727Y-108308326D01*
X92632731Y-108308333D01*
X92632735Y-108308341D01*
X92794108Y-108565164D01*
X92983221Y-108802304D01*
X93197696Y-109016779D01*
X93434836Y-109205892D01*
X93691659Y-109367265D01*
X93691670Y-109367270D01*
X93691673Y-109367272D01*
X93782462Y-109410993D01*
X93964935Y-109498868D01*
X94038862Y-109524736D01*
X94251224Y-109599045D01*
X94251227Y-109599045D01*
X94251228Y-109599046D01*
X94546937Y-109666540D01*
X94848343Y-109700500D01*
X94848344Y-109700500D01*
X95151656Y-109700500D01*
X95151657Y-109700500D01*
X95453063Y-109666540D01*
X95748772Y-109599046D01*
X96035065Y-109498868D01*
X96308341Y-109367265D01*
X96565164Y-109205892D01*
X96802304Y-109016779D01*
X97016779Y-108802304D01*
X97205892Y-108565164D01*
X97367265Y-108308341D01*
X97498868Y-108035065D01*
X97599046Y-107748772D01*
X97666540Y-107453063D01*
X97700500Y-107151657D01*
X97700500Y-106848343D01*
X97675070Y-106622644D01*
X101640500Y-106622644D01*
X101640500Y-106827355D01*
X101672521Y-107029529D01*
X101735780Y-107224219D01*
X101828712Y-107406609D01*
X101828714Y-107406613D01*
X101949029Y-107572213D01*
X101949031Y-107572215D01*
X101949034Y-107572219D01*
X102093781Y-107716966D01*
X102093784Y-107716968D01*
X102093786Y-107716970D01*
X102259386Y-107837285D01*
X102259390Y-107837287D01*
X102441781Y-107930220D01*
X102636466Y-107993477D01*
X102636467Y-107993477D01*
X102636470Y-107993478D01*
X102838645Y-108025500D01*
X102838648Y-108025500D01*
X103043355Y-108025500D01*
X103245529Y-107993478D01*
X103245530Y-107993477D01*
X103245534Y-107993477D01*
X103440219Y-107930220D01*
X103622610Y-107837287D01*
X103633937Y-107829058D01*
X103742930Y-107749870D01*
X103788219Y-107716966D01*
X103932966Y-107572219D01*
X104053287Y-107406610D01*
X104146220Y-107224219D01*
X104209477Y-107029534D01*
X104220337Y-106960970D01*
X104241500Y-106827355D01*
X104241500Y-106690644D01*
X121870500Y-106690644D01*
X121870500Y-106895355D01*
X121902521Y-107097529D01*
X121965780Y-107292219D01*
X122058712Y-107474609D01*
X122058714Y-107474613D01*
X122179029Y-107640213D01*
X122179031Y-107640215D01*
X122179034Y-107640219D01*
X122323781Y-107784966D01*
X122323784Y-107784968D01*
X122323786Y-107784970D01*
X122489386Y-107905285D01*
X122489390Y-107905287D01*
X122671781Y-107998220D01*
X122866466Y-108061477D01*
X122866467Y-108061477D01*
X122866470Y-108061478D01*
X123068645Y-108093500D01*
X123068648Y-108093500D01*
X123273355Y-108093500D01*
X123475529Y-108061478D01*
X123475530Y-108061477D01*
X123475534Y-108061477D01*
X123670219Y-107998220D01*
X123852610Y-107905287D01*
X124018219Y-107784966D01*
X124162966Y-107640219D01*
X124264825Y-107500021D01*
X124283285Y-107474613D01*
X124283287Y-107474610D01*
X124376220Y-107292219D01*
X124439477Y-107097534D01*
X124439478Y-107097529D01*
X124471500Y-106895355D01*
X124471500Y-106690644D01*
X124439478Y-106488470D01*
X124432898Y-106468219D01*
X124376220Y-106293781D01*
X124283287Y-106111390D01*
X124283285Y-106111386D01*
X124162970Y-105945786D01*
X124162968Y-105945784D01*
X124162966Y-105945781D01*
X124083829Y-105866644D01*
X131015500Y-105866644D01*
X131015500Y-106071355D01*
X131047521Y-106273529D01*
X131110780Y-106468219D01*
X131203712Y-106650609D01*
X131203714Y-106650613D01*
X131324029Y-106816213D01*
X131324031Y-106816215D01*
X131324034Y-106816219D01*
X131468781Y-106960966D01*
X131468784Y-106960968D01*
X131468786Y-106960970D01*
X131634386Y-107081285D01*
X131634390Y-107081287D01*
X131816781Y-107174220D01*
X132011466Y-107237477D01*
X132011467Y-107237477D01*
X132011470Y-107237478D01*
X132213645Y-107269500D01*
X132213648Y-107269500D01*
X132418355Y-107269500D01*
X132620529Y-107237478D01*
X132620530Y-107237477D01*
X132620534Y-107237477D01*
X132815219Y-107174220D01*
X132997610Y-107081287D01*
X133163219Y-106960966D01*
X133307966Y-106816219D01*
X133428287Y-106650610D01*
X133521220Y-106468219D01*
X133559549Y-106350253D01*
X143949500Y-106350253D01*
X143949500Y-108089746D01*
X143949501Y-108089758D01*
X143961132Y-108148227D01*
X143961133Y-108148231D01*
X144005448Y-108214552D01*
X144071769Y-108258867D01*
X144116231Y-108267711D01*
X144130241Y-108270498D01*
X144130246Y-108270498D01*
X144130252Y-108270500D01*
X144130253Y-108270500D01*
X145869747Y-108270500D01*
X145869748Y-108270500D01*
X145928231Y-108258867D01*
X145994552Y-108214552D01*
X146038867Y-108148231D01*
X146050500Y-108089748D01*
X146050500Y-107619500D01*
X146069407Y-107561309D01*
X146118907Y-107525345D01*
X146149500Y-107520500D01*
X149841536Y-107520500D01*
X149899727Y-107539407D01*
X149935691Y-107588907D01*
X149935691Y-107650093D01*
X149899727Y-107699593D01*
X149860850Y-107716598D01*
X149693581Y-107749869D01*
X149502402Y-107829058D01*
X149330348Y-107944020D01*
X149184020Y-108090348D01*
X149069058Y-108262402D01*
X148989869Y-108453581D01*
X148949500Y-108656532D01*
X148949500Y-108863467D01*
X148989869Y-109066418D01*
X149069058Y-109257597D01*
X149142340Y-109367272D01*
X149184023Y-109429655D01*
X149330345Y-109575977D01*
X149502402Y-109690941D01*
X149693580Y-109770130D01*
X149896535Y-109810500D01*
X149896536Y-109810500D01*
X150103464Y-109810500D01*
X150103465Y-109810500D01*
X150306420Y-109770130D01*
X150497598Y-109690941D01*
X150669655Y-109575977D01*
X150815977Y-109429655D01*
X150930941Y-109257598D01*
X150987268Y-109121614D01*
X151027005Y-109075088D01*
X151078732Y-109060500D01*
X158979563Y-109060500D01*
X158979563Y-109060499D01*
X159055989Y-109040021D01*
X159124511Y-109000460D01*
X159180460Y-108944511D01*
X159468439Y-108656532D01*
X164189500Y-108656532D01*
X164189500Y-108863467D01*
X164229869Y-109066418D01*
X164309058Y-109257597D01*
X164382340Y-109367272D01*
X164424023Y-109429655D01*
X164570345Y-109575977D01*
X164742402Y-109690941D01*
X164933580Y-109770130D01*
X165136535Y-109810500D01*
X165136536Y-109810500D01*
X165343464Y-109810500D01*
X165343465Y-109810500D01*
X165546420Y-109770130D01*
X165737598Y-109690941D01*
X165909655Y-109575977D01*
X166055977Y-109429655D01*
X166170941Y-109257598D01*
X166250130Y-109066420D01*
X166290500Y-108863465D01*
X166290500Y-108656535D01*
X166250130Y-108453580D01*
X166170941Y-108262402D01*
X166055977Y-108090345D01*
X165909655Y-107944023D01*
X165909651Y-107944020D01*
X165737597Y-107829058D01*
X165546418Y-107749869D01*
X165343467Y-107709500D01*
X165343465Y-107709500D01*
X165136535Y-107709500D01*
X165136532Y-107709500D01*
X164933581Y-107749869D01*
X164742402Y-107829058D01*
X164570348Y-107944020D01*
X164424020Y-108090348D01*
X164309058Y-108262402D01*
X164229869Y-108453581D01*
X164189500Y-108656532D01*
X159468439Y-108656532D01*
X163276628Y-104848341D01*
X172299500Y-104848341D01*
X172299500Y-105151658D01*
X172333459Y-105453061D01*
X172400954Y-105748775D01*
X172501131Y-106035063D01*
X172501132Y-106035065D01*
X172632727Y-106308326D01*
X172632731Y-106308333D01*
X172632735Y-106308341D01*
X172794108Y-106565164D01*
X172983221Y-106802304D01*
X173197696Y-107016779D01*
X173434836Y-107205892D01*
X173691659Y-107367265D01*
X173691670Y-107367270D01*
X173691673Y-107367272D01*
X173773360Y-107406610D01*
X173964935Y-107498868D01*
X174052745Y-107529594D01*
X174251224Y-107599045D01*
X174251227Y-107599045D01*
X174251228Y-107599046D01*
X174546937Y-107666540D01*
X174848343Y-107700500D01*
X174848344Y-107700500D01*
X175151656Y-107700500D01*
X175151657Y-107700500D01*
X175453063Y-107666540D01*
X175748772Y-107599046D01*
X176035065Y-107498868D01*
X176308341Y-107367265D01*
X176565164Y-107205892D01*
X176802304Y-107016779D01*
X177016779Y-106802304D01*
X177205892Y-106565164D01*
X177367265Y-106308341D01*
X177498868Y-106035065D01*
X177599046Y-105748772D01*
X177666540Y-105453063D01*
X177700500Y-105151657D01*
X177700500Y-104848343D01*
X177700500Y-104848341D01*
X182299500Y-104848341D01*
X182299500Y-105151658D01*
X182333459Y-105453061D01*
X182400954Y-105748775D01*
X182501131Y-106035063D01*
X182501132Y-106035065D01*
X182632727Y-106308326D01*
X182632731Y-106308333D01*
X182632735Y-106308341D01*
X182794108Y-106565164D01*
X182983221Y-106802304D01*
X183197696Y-107016779D01*
X183434836Y-107205892D01*
X183691659Y-107367265D01*
X183691670Y-107367270D01*
X183691673Y-107367272D01*
X183773360Y-107406610D01*
X183964935Y-107498868D01*
X184052745Y-107529594D01*
X184251224Y-107599045D01*
X184251227Y-107599045D01*
X184251228Y-107599046D01*
X184546937Y-107666540D01*
X184848343Y-107700500D01*
X184848344Y-107700500D01*
X185151656Y-107700500D01*
X185151657Y-107700500D01*
X185453063Y-107666540D01*
X185748772Y-107599046D01*
X186035065Y-107498868D01*
X186308341Y-107367265D01*
X186565164Y-107205892D01*
X186802304Y-107016779D01*
X187016779Y-106802304D01*
X187205892Y-106565164D01*
X187367265Y-106308341D01*
X187498868Y-106035065D01*
X187599046Y-105748772D01*
X187666540Y-105453063D01*
X187700500Y-105151657D01*
X187700500Y-104848343D01*
X187666540Y-104546937D01*
X187599046Y-104251228D01*
X187594520Y-104238294D01*
X187543361Y-104092088D01*
X187498868Y-103964935D01*
X187367265Y-103691659D01*
X187205892Y-103434836D01*
X187016779Y-103197696D01*
X186802304Y-102983221D01*
X186565164Y-102794108D01*
X186308341Y-102632735D01*
X186308333Y-102632731D01*
X186308326Y-102632727D01*
X186035065Y-102501132D01*
X186035063Y-102501131D01*
X185748775Y-102400954D01*
X185453061Y-102333459D01*
X185151658Y-102299500D01*
X185151657Y-102299500D01*
X184848343Y-102299500D01*
X184848341Y-102299500D01*
X184546938Y-102333459D01*
X184251224Y-102400954D01*
X183964936Y-102501131D01*
X183964934Y-102501132D01*
X183691673Y-102632727D01*
X183691660Y-102632734D01*
X183691659Y-102632735D01*
X183659043Y-102653229D01*
X183434835Y-102794108D01*
X183197697Y-102983220D01*
X182983220Y-103197697D01*
X182794108Y-103434835D01*
X182632734Y-103691661D01*
X182632727Y-103691673D01*
X182501132Y-103964934D01*
X182501131Y-103964936D01*
X182400954Y-104251224D01*
X182333459Y-104546938D01*
X182299500Y-104848341D01*
X177700500Y-104848341D01*
X177666540Y-104546937D01*
X177599046Y-104251228D01*
X177594520Y-104238294D01*
X177543361Y-104092088D01*
X177498868Y-103964935D01*
X177367265Y-103691659D01*
X177205892Y-103434836D01*
X177016779Y-103197696D01*
X176802304Y-102983221D01*
X176565164Y-102794108D01*
X176308341Y-102632735D01*
X176308333Y-102632731D01*
X176308326Y-102632727D01*
X176035065Y-102501132D01*
X176035063Y-102501131D01*
X175748775Y-102400954D01*
X175453061Y-102333459D01*
X175151658Y-102299500D01*
X175151657Y-102299500D01*
X174848343Y-102299500D01*
X174848341Y-102299500D01*
X174546938Y-102333459D01*
X174251224Y-102400954D01*
X173964936Y-102501131D01*
X173964934Y-102501132D01*
X173691673Y-102632727D01*
X173691660Y-102632734D01*
X173691659Y-102632735D01*
X173659043Y-102653229D01*
X173434835Y-102794108D01*
X173197697Y-102983220D01*
X172983220Y-103197697D01*
X172794108Y-103434835D01*
X172632734Y-103691661D01*
X172632727Y-103691673D01*
X172501132Y-103964934D01*
X172501131Y-103964936D01*
X172400954Y-104251224D01*
X172333459Y-104546938D01*
X172299500Y-104848341D01*
X163276628Y-104848341D01*
X164149708Y-103975261D01*
X164204223Y-103947486D01*
X164257595Y-103953802D01*
X164393580Y-104010130D01*
X164596535Y-104050500D01*
X164596536Y-104050500D01*
X164803464Y-104050500D01*
X164803465Y-104050500D01*
X165006420Y-104010130D01*
X165197598Y-103930941D01*
X165369655Y-103815977D01*
X165515977Y-103669655D01*
X165630941Y-103497598D01*
X165710130Y-103306420D01*
X165750500Y-103103465D01*
X165750500Y-102896535D01*
X165710130Y-102693580D01*
X165630941Y-102502402D01*
X165515977Y-102330345D01*
X165485133Y-102299501D01*
X165457358Y-102244987D01*
X165466929Y-102184555D01*
X165510194Y-102141290D01*
X165555139Y-102130500D01*
X165904521Y-102130500D01*
X165962712Y-102149407D01*
X165974525Y-102159496D01*
X166264736Y-102449707D01*
X166292513Y-102504224D01*
X166286196Y-102557596D01*
X166229870Y-102693578D01*
X166229870Y-102693580D01*
X166189500Y-102896532D01*
X166189500Y-103103467D01*
X166229869Y-103306418D01*
X166309058Y-103497597D01*
X166424020Y-103669651D01*
X166424023Y-103669655D01*
X166570345Y-103815977D01*
X166742402Y-103930941D01*
X166933580Y-104010130D01*
X167136535Y-104050500D01*
X167136536Y-104050500D01*
X167343464Y-104050500D01*
X167343465Y-104050500D01*
X167546420Y-104010130D01*
X167737598Y-103930941D01*
X167909655Y-103815977D01*
X168055977Y-103669655D01*
X168170941Y-103497598D01*
X168250130Y-103306420D01*
X168290500Y-103103465D01*
X168290500Y-102896535D01*
X168250130Y-102693580D01*
X168170941Y-102502402D01*
X168055977Y-102330345D01*
X167909655Y-102184023D01*
X167885919Y-102168163D01*
X167737597Y-102069058D01*
X167546418Y-101989869D01*
X167343467Y-101949500D01*
X167343465Y-101949500D01*
X167136535Y-101949500D01*
X167136532Y-101949500D01*
X166933580Y-101989870D01*
X166933578Y-101989870D01*
X166797596Y-102046196D01*
X166736600Y-102050997D01*
X166689708Y-102024736D01*
X166254511Y-101589540D01*
X166254509Y-101589538D01*
X166238182Y-101580112D01*
X166238182Y-101580111D01*
X166185990Y-101549979D01*
X166185985Y-101549977D01*
X166109564Y-101529500D01*
X166109562Y-101529500D01*
X159175962Y-101529500D01*
X159096838Y-101529500D01*
X159050061Y-101542033D01*
X159020407Y-101549979D01*
X158951893Y-101589536D01*
X158107491Y-102433938D01*
X158052974Y-102461715D01*
X157992542Y-102452144D01*
X157955171Y-102418935D01*
X157895979Y-102330348D01*
X157895977Y-102330345D01*
X157749655Y-102184023D01*
X157725919Y-102168163D01*
X157577597Y-102069058D01*
X157386418Y-101989869D01*
X157183467Y-101949500D01*
X157183465Y-101949500D01*
X156976535Y-101949500D01*
X156976532Y-101949500D01*
X156773581Y-101989869D01*
X156582402Y-102069058D01*
X156410348Y-102184020D01*
X156264020Y-102330348D01*
X156149058Y-102502402D01*
X156069869Y-102693581D01*
X156029500Y-102896532D01*
X156029500Y-103103467D01*
X156069869Y-103306418D01*
X156149058Y-103497597D01*
X156264020Y-103669651D01*
X156264023Y-103669655D01*
X156410345Y-103815977D01*
X156582402Y-103930941D01*
X156773580Y-104010130D01*
X156976535Y-104050500D01*
X156976536Y-104050500D01*
X157018620Y-104050500D01*
X157076811Y-104069407D01*
X157112775Y-104118907D01*
X157112775Y-104180093D01*
X157088624Y-104219504D01*
X154417625Y-106890504D01*
X154363108Y-106918281D01*
X154347621Y-106919500D01*
X146149500Y-106919500D01*
X146091309Y-106900593D01*
X146055345Y-106851093D01*
X146050500Y-106820500D01*
X146050500Y-106350253D01*
X146050498Y-106350241D01*
X146042163Y-106308341D01*
X146038867Y-106291769D01*
X145994552Y-106225448D01*
X145994548Y-106225445D01*
X145928233Y-106181134D01*
X145928231Y-106181133D01*
X145928228Y-106181132D01*
X145928227Y-106181132D01*
X145869758Y-106169501D01*
X145869748Y-106169500D01*
X144130252Y-106169500D01*
X144130251Y-106169500D01*
X144130241Y-106169501D01*
X144071772Y-106181132D01*
X144071766Y-106181134D01*
X144005451Y-106225445D01*
X144005445Y-106225451D01*
X143961134Y-106291766D01*
X143961132Y-106291772D01*
X143949501Y-106350241D01*
X143949500Y-106350253D01*
X133559549Y-106350253D01*
X133571070Y-106314795D01*
X133571071Y-106314795D01*
X133584477Y-106273535D01*
X133616500Y-106071355D01*
X133616500Y-105866644D01*
X133584478Y-105664470D01*
X133584477Y-105664466D01*
X133521220Y-105469781D01*
X133428287Y-105287390D01*
X133428285Y-105287386D01*
X133307970Y-105121786D01*
X133307968Y-105121784D01*
X133307966Y-105121781D01*
X133163219Y-104977034D01*
X133163215Y-104977031D01*
X133163213Y-104977029D01*
X132997613Y-104856714D01*
X132997609Y-104856712D01*
X132815219Y-104763780D01*
X132620529Y-104700521D01*
X132418355Y-104668500D01*
X132418352Y-104668500D01*
X132213648Y-104668500D01*
X132213645Y-104668500D01*
X132011470Y-104700521D01*
X131816780Y-104763780D01*
X131634390Y-104856712D01*
X131634386Y-104856714D01*
X131468786Y-104977029D01*
X131324029Y-105121786D01*
X131203714Y-105287386D01*
X131203712Y-105287390D01*
X131110780Y-105469780D01*
X131047521Y-105664470D01*
X131015500Y-105866644D01*
X124083829Y-105866644D01*
X124018219Y-105801034D01*
X124018215Y-105801031D01*
X124018213Y-105801029D01*
X123852613Y-105680714D01*
X123852609Y-105680712D01*
X123670219Y-105587780D01*
X123475529Y-105524521D01*
X123273355Y-105492500D01*
X123273352Y-105492500D01*
X123068648Y-105492500D01*
X123068645Y-105492500D01*
X122866470Y-105524521D01*
X122671780Y-105587780D01*
X122489390Y-105680712D01*
X122489386Y-105680714D01*
X122323786Y-105801029D01*
X122179029Y-105945786D01*
X122058714Y-106111386D01*
X122058712Y-106111390D01*
X121965780Y-106293780D01*
X121902521Y-106488470D01*
X121870500Y-106690644D01*
X104241500Y-106690644D01*
X104241500Y-106622644D01*
X104209478Y-106420470D01*
X104186663Y-106350252D01*
X104146220Y-106225781D01*
X104053287Y-106043390D01*
X104053285Y-106043386D01*
X103932970Y-105877786D01*
X103932968Y-105877784D01*
X103932966Y-105877781D01*
X103788219Y-105733034D01*
X103788215Y-105733031D01*
X103788213Y-105733029D01*
X103622613Y-105612714D01*
X103622609Y-105612712D01*
X103440219Y-105519780D01*
X103245529Y-105456521D01*
X103043355Y-105424500D01*
X103043352Y-105424500D01*
X102838648Y-105424500D01*
X102838645Y-105424500D01*
X102636470Y-105456521D01*
X102441780Y-105519780D01*
X102259390Y-105612712D01*
X102259386Y-105612714D01*
X102093786Y-105733029D01*
X101949029Y-105877786D01*
X101828714Y-106043386D01*
X101828712Y-106043390D01*
X101735780Y-106225780D01*
X101672521Y-106420470D01*
X101640500Y-106622644D01*
X97675070Y-106622644D01*
X97666540Y-106546937D01*
X97599046Y-106251228D01*
X97590141Y-106225780D01*
X97536105Y-106071352D01*
X97498868Y-105964935D01*
X97367265Y-105691659D01*
X97205892Y-105434836D01*
X97016779Y-105197696D01*
X96802304Y-104983221D01*
X96565164Y-104794108D01*
X96308341Y-104632735D01*
X96308333Y-104632731D01*
X96308326Y-104632727D01*
X96035065Y-104501132D01*
X96035063Y-104501131D01*
X95748775Y-104400954D01*
X95453061Y-104333459D01*
X95151658Y-104299500D01*
X95151657Y-104299500D01*
X94848343Y-104299500D01*
X94848341Y-104299500D01*
X94546938Y-104333459D01*
X94251224Y-104400954D01*
X93964936Y-104501131D01*
X93964934Y-104501132D01*
X93691673Y-104632727D01*
X93691660Y-104632734D01*
X93691659Y-104632735D01*
X93624692Y-104674813D01*
X93434835Y-104794108D01*
X93197697Y-104983220D01*
X92983220Y-105197697D01*
X92794108Y-105434835D01*
X92698007Y-105587780D01*
X92639614Y-105680712D01*
X92632734Y-105691661D01*
X92632727Y-105691673D01*
X92501132Y-105964934D01*
X92501131Y-105964936D01*
X92400954Y-106251224D01*
X92333459Y-106546938D01*
X92299500Y-106848341D01*
X90200500Y-106848341D01*
X90200500Y-103897824D01*
X100149999Y-103897824D01*
X100156401Y-103957370D01*
X100156403Y-103957381D01*
X100206646Y-104092088D01*
X100206647Y-104092090D01*
X100292807Y-104207184D01*
X100292815Y-104207192D01*
X100407909Y-104293352D01*
X100407911Y-104293353D01*
X100542618Y-104343596D01*
X100542629Y-104343598D01*
X100602176Y-104350000D01*
X101249999Y-104350000D01*
X101250000Y-104349999D01*
X101250000Y-103433012D01*
X101307007Y-103465925D01*
X101434174Y-103500000D01*
X101565826Y-103500000D01*
X101692993Y-103465925D01*
X101750000Y-103433012D01*
X101750000Y-104349999D01*
X101750001Y-104350000D01*
X102397824Y-104350000D01*
X102457370Y-104343598D01*
X102457381Y-104343596D01*
X102592088Y-104293353D01*
X102592090Y-104293352D01*
X102707184Y-104207192D01*
X102707192Y-104207184D01*
X102793352Y-104092090D01*
X102793353Y-104092088D01*
X102843596Y-103957381D01*
X102843598Y-103957370D01*
X102850000Y-103897824D01*
X102850000Y-103369881D01*
X102868907Y-103311690D01*
X102918407Y-103275726D01*
X102979593Y-103275726D01*
X103029093Y-103311690D01*
X103040464Y-103331995D01*
X103109058Y-103497597D01*
X103224020Y-103669651D01*
X103224023Y-103669655D01*
X103370345Y-103815977D01*
X103542402Y-103930941D01*
X103733580Y-104010130D01*
X103936535Y-104050500D01*
X103936536Y-104050500D01*
X104143464Y-104050500D01*
X104143465Y-104050500D01*
X104346420Y-104010130D01*
X104537598Y-103930941D01*
X104709655Y-103815977D01*
X104855977Y-103669655D01*
X104970941Y-103497598D01*
X105050130Y-103306420D01*
X105090500Y-103103465D01*
X105090500Y-102896535D01*
X105050130Y-102693580D01*
X104993802Y-102557595D01*
X104989002Y-102496599D01*
X105015261Y-102449708D01*
X106217075Y-101247896D01*
X106271592Y-101220119D01*
X106287079Y-101218900D01*
X107452908Y-101218900D01*
X107511099Y-101237807D01*
X107547063Y-101287307D01*
X107547063Y-101348493D01*
X107522913Y-101387901D01*
X107456022Y-101454793D01*
X107408029Y-101502786D01*
X107287714Y-101668386D01*
X107287712Y-101668390D01*
X107194780Y-101850780D01*
X107131521Y-102045470D01*
X107099500Y-102247644D01*
X107099500Y-103752355D01*
X107131521Y-103954529D01*
X107194780Y-104149219D01*
X107287712Y-104331609D01*
X107287714Y-104331613D01*
X107408029Y-104497213D01*
X107408031Y-104497215D01*
X107408034Y-104497219D01*
X107552781Y-104641966D01*
X107552784Y-104641968D01*
X107552786Y-104641970D01*
X107718386Y-104762285D01*
X107718390Y-104762287D01*
X107900781Y-104855220D01*
X108095466Y-104918477D01*
X108095467Y-104918477D01*
X108095470Y-104918478D01*
X108297645Y-104950500D01*
X108297648Y-104950500D01*
X108502355Y-104950500D01*
X108704529Y-104918478D01*
X108704530Y-104918477D01*
X108704534Y-104918477D01*
X108899219Y-104855220D01*
X109081610Y-104762287D01*
X109084340Y-104760304D01*
X109166617Y-104700526D01*
X109247219Y-104641966D01*
X109391966Y-104497219D01*
X109456873Y-104407880D01*
X109506369Y-104371920D01*
X109567554Y-104371919D01*
X109596849Y-104389870D01*
X109597341Y-104389135D01*
X109605448Y-104394552D01*
X109671769Y-104438867D01*
X109716231Y-104447711D01*
X109730241Y-104450498D01*
X109730246Y-104450498D01*
X109730252Y-104450500D01*
X109730253Y-104450500D01*
X111269747Y-104450500D01*
X111269748Y-104450500D01*
X111328231Y-104438867D01*
X111394552Y-104394552D01*
X111438867Y-104328231D01*
X111450500Y-104269748D01*
X111450500Y-103947765D01*
X111469407Y-103889574D01*
X111518907Y-103853610D01*
X111580093Y-103853610D01*
X111629593Y-103889574D01*
X111640964Y-103909880D01*
X111657675Y-103950226D01*
X111657681Y-103950238D01*
X111732065Y-104061559D01*
X111761698Y-104105908D01*
X111894092Y-104238302D01*
X112010584Y-104316139D01*
X112049767Y-104342321D01*
X112049768Y-104342321D01*
X112049769Y-104342322D01*
X112138386Y-104379028D01*
X112184911Y-104418763D01*
X112199500Y-104470491D01*
X112199500Y-104591264D01*
X112219978Y-104667688D01*
X112238936Y-104700523D01*
X112238937Y-104700526D01*
X112259535Y-104736205D01*
X112259538Y-104736208D01*
X112259540Y-104736211D01*
X112797640Y-105274311D01*
X112797639Y-105274311D01*
X112853589Y-105330260D01*
X112922107Y-105369819D01*
X112922111Y-105369821D01*
X112998535Y-105390299D01*
X112998537Y-105390300D01*
X112998538Y-105390300D01*
X122489763Y-105390300D01*
X122489763Y-105390299D01*
X122566189Y-105369821D01*
X122634711Y-105330260D01*
X122690660Y-105274311D01*
X123989708Y-103975261D01*
X124044223Y-103947486D01*
X124097595Y-103953802D01*
X124233580Y-104010130D01*
X124436535Y-104050500D01*
X124436536Y-104050500D01*
X124643464Y-104050500D01*
X124643465Y-104050500D01*
X124846420Y-104010130D01*
X124982405Y-103953802D01*
X125043399Y-103949002D01*
X125090291Y-103975263D01*
X125507188Y-104392159D01*
X125507193Y-104392163D01*
X125575708Y-104431720D01*
X125575706Y-104431720D01*
X125575710Y-104431721D01*
X125575712Y-104431722D01*
X125652138Y-104452200D01*
X125652140Y-104452200D01*
X140427863Y-104452200D01*
X140427863Y-104452199D01*
X140504289Y-104431721D01*
X140572811Y-104392160D01*
X140610627Y-104354344D01*
X140628761Y-104336211D01*
X140799285Y-104165685D01*
X140989708Y-103975261D01*
X141044223Y-103947485D01*
X141097591Y-103953801D01*
X141233580Y-104010130D01*
X141436535Y-104050500D01*
X141436536Y-104050500D01*
X141643464Y-104050500D01*
X141643465Y-104050500D01*
X141846420Y-104010130D01*
X142037598Y-103930941D01*
X142209655Y-103815977D01*
X142355977Y-103669655D01*
X142470941Y-103497598D01*
X142550130Y-103306420D01*
X142590500Y-103103465D01*
X142590500Y-102896535D01*
X142550130Y-102693580D01*
X142470941Y-102502402D01*
X142355977Y-102330345D01*
X142269333Y-102243701D01*
X142241558Y-102189187D01*
X142251129Y-102128755D01*
X142294394Y-102085490D01*
X142339339Y-102074700D01*
X149457021Y-102074700D01*
X149515212Y-102093607D01*
X149527025Y-102103696D01*
X150607840Y-103184511D01*
X150607839Y-103184511D01*
X150663789Y-103240460D01*
X150732307Y-103280019D01*
X150732311Y-103280021D01*
X150808735Y-103300499D01*
X150808737Y-103300500D01*
X150808738Y-103300500D01*
X150850500Y-103300500D01*
X150908691Y-103319407D01*
X150944655Y-103368907D01*
X150949500Y-103399500D01*
X150949500Y-103869746D01*
X150949501Y-103869758D01*
X150961132Y-103928227D01*
X150961134Y-103928233D01*
X150985658Y-103964935D01*
X151005448Y-103994552D01*
X151071769Y-104038867D01*
X151116231Y-104047711D01*
X151130241Y-104050498D01*
X151130246Y-104050498D01*
X151130252Y-104050500D01*
X151130253Y-104050500D01*
X152869747Y-104050500D01*
X152869748Y-104050500D01*
X152928231Y-104038867D01*
X152994552Y-103994552D01*
X153038867Y-103928231D01*
X153050500Y-103869748D01*
X153050500Y-102896532D01*
X153489500Y-102896532D01*
X153489500Y-103103467D01*
X153529869Y-103306418D01*
X153609058Y-103497597D01*
X153724020Y-103669651D01*
X153724023Y-103669655D01*
X153870345Y-103815977D01*
X154042402Y-103930941D01*
X154233580Y-104010130D01*
X154436535Y-104050500D01*
X154436536Y-104050500D01*
X154643464Y-104050500D01*
X154643465Y-104050500D01*
X154846420Y-104010130D01*
X155037598Y-103930941D01*
X155209655Y-103815977D01*
X155355977Y-103669655D01*
X155470941Y-103497598D01*
X155550130Y-103306420D01*
X155590500Y-103103465D01*
X155590500Y-102896535D01*
X155550130Y-102693580D01*
X155470941Y-102502402D01*
X155355977Y-102330345D01*
X155209655Y-102184023D01*
X155185919Y-102168163D01*
X155037597Y-102069058D01*
X154846418Y-101989869D01*
X154643467Y-101949500D01*
X154643465Y-101949500D01*
X154436535Y-101949500D01*
X154436532Y-101949500D01*
X154233581Y-101989869D01*
X154042402Y-102069058D01*
X153870348Y-102184020D01*
X153724020Y-102330348D01*
X153609058Y-102502402D01*
X153529869Y-102693581D01*
X153489500Y-102896532D01*
X153050500Y-102896532D01*
X153050500Y-102130252D01*
X153049955Y-102127514D01*
X153040645Y-102080709D01*
X153038867Y-102071769D01*
X152994552Y-102005448D01*
X152994548Y-102005445D01*
X152928233Y-101961134D01*
X152928231Y-101961133D01*
X152928228Y-101961132D01*
X152928227Y-101961132D01*
X152869758Y-101949501D01*
X152869748Y-101949500D01*
X151130252Y-101949500D01*
X151130251Y-101949500D01*
X151130241Y-101949501D01*
X151071772Y-101961132D01*
X151071766Y-101961134D01*
X151005451Y-102005445D01*
X151005445Y-102005451D01*
X150961134Y-102071766D01*
X150961132Y-102071772D01*
X150949501Y-102130241D01*
X150949500Y-102130253D01*
X150949500Y-102437221D01*
X150930593Y-102495412D01*
X150881093Y-102531376D01*
X150819907Y-102531376D01*
X150780496Y-102507225D01*
X150298007Y-102024736D01*
X149807011Y-101533740D01*
X149799667Y-101529500D01*
X149738489Y-101494179D01*
X149738488Y-101494178D01*
X149738487Y-101494178D01*
X149662064Y-101473700D01*
X149662062Y-101473700D01*
X130170297Y-101473700D01*
X130112106Y-101454793D01*
X130091361Y-101431755D01*
X130090349Y-101432532D01*
X130086405Y-101427392D01*
X130086401Y-101427388D01*
X130086400Y-101427386D01*
X129993214Y-101334200D01*
X129993211Y-101334198D01*
X129993209Y-101334196D01*
X129879089Y-101268309D01*
X129879091Y-101268309D01*
X129821981Y-101253007D01*
X129751792Y-101234200D01*
X129620008Y-101234200D01*
X129549819Y-101253007D01*
X129492709Y-101268309D01*
X129378590Y-101334196D01*
X129285394Y-101427392D01*
X129281451Y-101432532D01*
X129279581Y-101431097D01*
X129241761Y-101465145D01*
X129201503Y-101473700D01*
X128148735Y-101473700D01*
X128072312Y-101494178D01*
X128011133Y-101529500D01*
X128011132Y-101529499D01*
X128003789Y-101533739D01*
X127484595Y-102052932D01*
X127430079Y-102080709D01*
X127390903Y-102077184D01*
X127390586Y-102078640D01*
X127384694Y-102077353D01*
X127354274Y-102074500D01*
X127354266Y-102074500D01*
X126570734Y-102074500D01*
X126570725Y-102074500D01*
X126540305Y-102077353D01*
X126540296Y-102077355D01*
X126412116Y-102122207D01*
X126302855Y-102202845D01*
X126302845Y-102202855D01*
X126222207Y-102312116D01*
X126177355Y-102440296D01*
X126177353Y-102440305D01*
X126174500Y-102470725D01*
X126174500Y-103529274D01*
X126177353Y-103559694D01*
X126177355Y-103559703D01*
X126222206Y-103687881D01*
X126226287Y-103693410D01*
X126245630Y-103751458D01*
X126227160Y-103809788D01*
X126177931Y-103846123D01*
X126146633Y-103851200D01*
X125857179Y-103851200D01*
X125798988Y-103832293D01*
X125787175Y-103822204D01*
X125515263Y-103550292D01*
X125487486Y-103495775D01*
X125493802Y-103442405D01*
X125550130Y-103306420D01*
X125590500Y-103103465D01*
X125590500Y-102896535D01*
X125550130Y-102693580D01*
X125470941Y-102502402D01*
X125355977Y-102330345D01*
X125209655Y-102184023D01*
X125185919Y-102168163D01*
X125037597Y-102069058D01*
X124846418Y-101989869D01*
X124643467Y-101949500D01*
X124643465Y-101949500D01*
X124436535Y-101949500D01*
X124436532Y-101949500D01*
X124233581Y-101989869D01*
X124042402Y-102069058D01*
X123870348Y-102184020D01*
X123724020Y-102330348D01*
X123609058Y-102502402D01*
X123529869Y-102693581D01*
X123489500Y-102896532D01*
X123489500Y-103103467D01*
X123529869Y-103306418D01*
X123586196Y-103442402D01*
X123590997Y-103503399D01*
X123564736Y-103550292D01*
X123219504Y-103895524D01*
X123164987Y-103923301D01*
X123104555Y-103913730D01*
X123061290Y-103870465D01*
X123050500Y-103825520D01*
X123050500Y-102130253D01*
X123050498Y-102130241D01*
X123040645Y-102080709D01*
X123038867Y-102071769D01*
X122994552Y-102005448D01*
X122994548Y-102005445D01*
X122928233Y-101961134D01*
X122928231Y-101961133D01*
X122928228Y-101961132D01*
X122928227Y-101961132D01*
X122869758Y-101949501D01*
X122869748Y-101949500D01*
X121130252Y-101949500D01*
X121130251Y-101949500D01*
X121130241Y-101949501D01*
X121071772Y-101961132D01*
X121071766Y-101961134D01*
X121005451Y-102005445D01*
X121005445Y-102005451D01*
X120961134Y-102071766D01*
X120961132Y-102071772D01*
X120949501Y-102130241D01*
X120949500Y-102130253D01*
X120949500Y-102437221D01*
X120930593Y-102495412D01*
X120881093Y-102531376D01*
X120819907Y-102531376D01*
X120780496Y-102507225D01*
X118916911Y-100643640D01*
X118907799Y-100638379D01*
X118848389Y-100604079D01*
X118848387Y-100604078D01*
X118848385Y-100604077D01*
X118771964Y-100583600D01*
X118771962Y-100583600D01*
X111024638Y-100583600D01*
X111024635Y-100583600D01*
X110948214Y-100604077D01*
X110948211Y-100604079D01*
X110888801Y-100638379D01*
X110888800Y-100638379D01*
X110879688Y-100643640D01*
X110879684Y-100643643D01*
X110570002Y-100953325D01*
X110515486Y-100981102D01*
X110455054Y-100971531D01*
X110429998Y-100953327D01*
X110154611Y-100677940D01*
X110154608Y-100677938D01*
X110086092Y-100638380D01*
X110086088Y-100638378D01*
X110009664Y-100617900D01*
X110009662Y-100617900D01*
X106082038Y-100617900D01*
X106082035Y-100617900D01*
X106005611Y-100638378D01*
X106005607Y-100638380D01*
X105937091Y-100677938D01*
X104590292Y-102024736D01*
X104535775Y-102052513D01*
X104482402Y-102046196D01*
X104346418Y-101989869D01*
X104143467Y-101949500D01*
X104143465Y-101949500D01*
X103936535Y-101949500D01*
X103936532Y-101949500D01*
X103733581Y-101989869D01*
X103542402Y-102069058D01*
X103370348Y-102184020D01*
X103224020Y-102330348D01*
X103109058Y-102502402D01*
X103040464Y-102668004D01*
X103000727Y-102714529D01*
X102941232Y-102728813D01*
X102884705Y-102705398D01*
X102852735Y-102653229D01*
X102850000Y-102630118D01*
X102850000Y-102102175D01*
X102843598Y-102042629D01*
X102843596Y-102042618D01*
X102793353Y-101907911D01*
X102793352Y-101907909D01*
X102707192Y-101792815D01*
X102707184Y-101792807D01*
X102592090Y-101706647D01*
X102592088Y-101706646D01*
X102457381Y-101656403D01*
X102457370Y-101656401D01*
X102397824Y-101650000D01*
X101750001Y-101650000D01*
X101750000Y-101650001D01*
X101750000Y-102566988D01*
X101692993Y-102534075D01*
X101565826Y-102500000D01*
X101434174Y-102500000D01*
X101307007Y-102534075D01*
X101250000Y-102566988D01*
X101250000Y-101650001D01*
X101249999Y-101650000D01*
X100602176Y-101650000D01*
X100542629Y-101656401D01*
X100542618Y-101656403D01*
X100407911Y-101706646D01*
X100407909Y-101706647D01*
X100292815Y-101792807D01*
X100292807Y-101792815D01*
X100206647Y-101907909D01*
X100206646Y-101907911D01*
X100156403Y-102042618D01*
X100156401Y-102042629D01*
X100150000Y-102102175D01*
X100150000Y-102749999D01*
X100150001Y-102750000D01*
X101066988Y-102750000D01*
X101034075Y-102807007D01*
X101000000Y-102934174D01*
X101000000Y-103065826D01*
X101034075Y-103192993D01*
X101066988Y-103250000D01*
X100150001Y-103250000D01*
X100150000Y-103250001D01*
X100150000Y-103897824D01*
X100149999Y-103897824D01*
X90200500Y-103897824D01*
X90200500Y-100299500D01*
X90219407Y-100241309D01*
X90268907Y-100205345D01*
X90299500Y-100200500D01*
X189700500Y-100200500D01*
X189758691Y-100219407D01*
G37*
G04 #@! TD.AperFunction*
G04 #@! TD*
M02*
